<svg width="351" height="173" viewBox="0 0 351 173" fill="none" xmlns="http://www.w3.org/2000/svg">
<path d="M183.494 169.981C200.453 169.981 217.412 169.981 234.37 169.981C246.135 169.981 257.056 170.464 268.203 166.607C276.954 163.58 286.2 161.393 295.117 158.681C304.949 155.69 313.309 151.275 322.453 147.212C330.685 143.556 338.373 127.539 341.774 119.891C344.489 113.787 345.952 109.069 347.427 102.435C348.665 96.8702 347.512 89.9246 347.512 84.2207C347.512 70.0302 338.51 54.2224 329.963 43.2381C321.341 32.1593 304.164 22.0733 289.802 21.2289C286.1 21.0112 281.496 19.1073 277.99 17.8558C273.791 16.3569 269.623 15.8689 265.503 14.3985C255.964 10.9934 245.17 9.00161 235.13 7.56802C211.74 4.22837 189.875 3.0144 166.114 3.0144C155.364 3.0144 145.282 2.67507 134.812 5.29121C123.184 8.1967 111.648 11.8179 99.9672 14.8201C92.9974 16.6114 82.3236 17.4889 76.4277 22.0721C71.343 26.0248 64.1668 30.723 58.2035 33.3719C44.0631 39.6532 31.6919 45.0255 20.6584 56.4773C12.4653 64.981 -2.45681 82.859 5.04978 96.3637C15.7255 115.57 44.5255 124.694 64.2782 131.275C84.9397 138.158 105.447 143.164 126.122 149.068C140.512 153.177 154.875 153.284 169.826 153.284C181.408 153.284 191.825 156.32 203.237 156.32" stroke="#42B4A7" stroke-width="5" stroke-linecap="round"/>
<path d="M143.508 50.9736V38.8296L138.492 48.0456H136.908L131.868 38.8296V50.9736H129.18V33.9336H132.06L137.7 44.3496L143.34 33.9336H146.22V50.9736H143.508ZM155.204 51.2136C154.228 51.2136 153.34 51.0456 152.54 50.7096C151.756 50.3576 151.076 49.8856 150.5 49.2936C149.924 48.6856 149.476 47.9976 149.156 47.2296C148.852 46.4456 148.7 45.6136 148.7 44.7336C148.7 43.5496 148.972 42.4696 149.516 41.4936C150.06 40.5016 150.82 39.7096 151.796 39.1176C152.772 38.5096 153.916 38.2056 155.228 38.2056C156.54 38.2056 157.668 38.5096 158.612 39.1176C159.572 39.7096 160.316 40.4936 160.844 41.4696C161.372 42.4456 161.636 43.4936 161.636 44.6136C161.636 44.8056 161.628 44.9896 161.612 45.1656C161.596 45.3256 161.58 45.4616 161.564 45.5736H151.508C151.556 46.3096 151.756 46.9576 152.108 47.5176C152.476 48.0616 152.94 48.4936 153.5 48.8136C154.06 49.1176 154.66 49.2696 155.3 49.2696C156.004 49.2696 156.668 49.0936 157.292 48.7416C157.932 48.3896 158.364 47.9256 158.588 47.3496L160.844 47.9976C160.572 48.6056 160.156 49.1576 159.596 49.6536C159.052 50.1336 158.404 50.5176 157.652 50.8056C156.9 51.0776 156.084 51.2136 155.204 51.2136ZM151.436 43.8216H159.02C158.972 43.1016 158.764 42.4696 158.396 41.9256C158.044 41.3656 157.588 40.9336 157.028 40.6296C156.484 40.3096 155.876 40.1496 155.204 40.1496C154.548 40.1496 153.94 40.3096 153.38 40.6296C152.836 40.9336 152.388 41.3656 152.036 41.9256C151.684 42.4696 151.484 43.1016 151.436 43.8216ZM163.814 33.4536H166.454V47.3496C166.454 47.9896 166.55 48.3976 166.742 48.5736C166.934 48.7496 167.174 48.8376 167.462 48.8376C167.782 48.8376 168.078 48.8056 168.35 48.7416C168.638 48.6776 168.886 48.5976 169.094 48.5016L169.478 50.5896C169.094 50.7496 168.638 50.8856 168.11 50.9976C167.582 51.1096 167.11 51.1656 166.694 51.1656C165.798 51.1656 165.094 50.9176 164.582 50.4216C164.07 49.9096 163.814 49.2056 163.814 48.3096V33.4536ZM170.216 44.7096C170.216 43.5096 170.456 42.4216 170.936 41.4456C171.432 40.4536 172.104 39.6696 172.952 39.0936C173.8 38.5016 174.776 38.2056 175.88 38.2056C176.84 38.2056 177.704 38.4536 178.472 38.9496C179.256 39.4456 179.864 40.0616 180.296 40.7976V33.4536H182.936V47.9976C182.936 48.3016 182.992 48.5176 183.104 48.6456C183.216 48.7736 183.4 48.8456 183.656 48.8616V50.9736C183.16 51.0536 182.776 51.0936 182.504 51.0936C182.008 51.0936 181.584 50.9496 181.232 50.6616C180.896 50.3736 180.72 50.0296 180.704 49.6296L180.68 48.6936C180.2 49.4936 179.552 50.1176 178.736 50.5656C177.92 50.9976 177.072 51.2136 176.192 51.2136C175.328 51.2136 174.528 51.0456 173.792 50.7096C173.072 50.3736 172.44 49.9016 171.896 49.2936C171.368 48.6856 170.952 47.9896 170.648 47.2056C170.36 46.4216 170.216 45.5896 170.216 44.7096ZM180.296 46.4616V43.1736C180.12 42.6616 179.832 42.2056 179.432 41.8056C179.048 41.3896 178.608 41.0616 178.112 40.8216C177.632 40.5816 177.152 40.4616 176.672 40.4616C176.112 40.4616 175.6 40.5816 175.136 40.8216C174.688 41.0616 174.296 41.3816 173.96 41.7816C173.64 42.1816 173.392 42.6376 173.216 43.1496C173.04 43.6616 172.952 44.1976 172.952 44.7576C172.952 45.3336 173.048 45.8776 173.24 46.3896C173.432 46.8856 173.704 47.3336 174.056 47.7336C174.424 48.1176 174.84 48.4216 175.304 48.6456C175.784 48.8536 176.304 48.9576 176.864 48.9576C177.216 48.9576 177.568 48.8936 177.92 48.7656C178.288 48.6376 178.632 48.4616 178.952 48.2376C179.288 48.0136 179.568 47.7496 179.792 47.4456C180.032 47.1416 180.2 46.8136 180.296 46.4616ZM197.907 51.2136C196.931 51.2136 196.043 51.0456 195.243 50.7096C194.459 50.3576 193.779 49.8856 193.203 49.2936C192.627 48.6856 192.179 47.9976 191.859 47.2296C191.555 46.4456 191.403 45.6136 191.403 44.7336C191.403 43.5496 191.675 42.4696 192.219 41.4936C192.763 40.5016 193.523 39.7096 194.499 39.1176C195.475 38.5096 196.619 38.2056 197.931 38.2056C199.243 38.2056 200.371 38.5096 201.315 39.1176C202.275 39.7096 203.019 40.4936 203.547 41.4696C204.075 42.4456 204.339 43.4936 204.339 44.6136C204.339 44.8056 204.331 44.9896 204.315 45.1656C204.299 45.3256 204.283 45.4616 204.267 45.5736H194.211C194.259 46.3096 194.459 46.9576 194.811 47.5176C195.179 48.0616 195.643 48.4936 196.203 48.8136C196.763 49.1176 197.363 49.2696 198.003 49.2696C198.707 49.2696 199.371 49.0936 199.995 48.7416C200.635 48.3896 201.067 47.9256 201.291 47.3496L203.547 47.9976C203.275 48.6056 202.859 49.1576 202.299 49.6536C201.755 50.1336 201.107 50.5176 200.355 50.8056C199.603 51.0776 198.787 51.2136 197.907 51.2136ZM194.139 43.8216H201.723C201.675 43.1016 201.467 42.4696 201.099 41.9256C200.747 41.3656 200.291 40.9336 199.731 40.6296C199.187 40.3096 198.579 40.1496 197.907 40.1496C197.251 40.1496 196.643 40.3096 196.083 40.6296C195.539 40.9336 195.091 41.3656 194.739 41.9256C194.387 42.4696 194.187 43.1016 194.139 43.8216ZM212.181 51.2136C211.205 51.2136 210.317 51.0456 209.517 50.7096C208.733 50.3576 208.053 49.8856 207.477 49.2936C206.901 48.6856 206.453 47.9976 206.133 47.2296C205.829 46.4456 205.677 45.6136 205.677 44.7336C205.677 43.5496 205.949 42.4696 206.493 41.4936C207.037 40.5016 207.797 39.7096 208.773 39.1176C209.749 38.5096 210.893 38.2056 212.205 38.2056C213.517 38.2056 214.645 38.5096 215.589 39.1176C216.549 39.7096 217.293 40.4936 217.821 41.4696C218.349 42.4456 218.613 43.4936 218.613 44.6136C218.613 44.8056 218.605 44.9896 218.589 45.1656C218.573 45.3256 218.557 45.4616 218.541 45.5736H208.485C208.533 46.3096 208.733 46.9576 209.085 47.5176C209.453 48.0616 209.917 48.4936 210.477 48.8136C211.037 49.1176 211.637 49.2696 212.277 49.2696C212.981 49.2696 213.645 49.0936 214.269 48.7416C214.909 48.3896 215.341 47.9256 215.565 47.3496L217.821 47.9976C217.549 48.6056 217.133 49.1576 216.573 49.6536C216.029 50.1336 215.381 50.5176 214.629 50.8056C213.877 51.0776 213.061 51.2136 212.181 51.2136ZM208.413 43.8216H215.997C215.949 43.1016 215.741 42.4696 215.373 41.9256C215.021 41.3656 214.565 40.9336 214.005 40.6296C213.461 40.3096 212.853 40.1496 212.181 40.1496C211.525 40.1496 210.917 40.3096 210.357 40.6296C209.813 40.9336 209.365 41.3656 209.013 41.9256C208.661 42.4696 208.461 43.1016 208.413 43.8216ZM232.022 50.9736H229.382V43.9416C229.382 42.7736 229.19 41.9176 228.806 41.3736C228.438 40.8296 227.886 40.5576 227.15 40.5576C226.638 40.5576 226.126 40.6856 225.614 40.9416C225.118 41.1976 224.67 41.5496 224.27 41.9976C223.87 42.4296 223.582 42.9336 223.406 43.5096V50.9736H220.766V38.4216H223.166V40.9416C223.486 40.3816 223.902 39.9016 224.414 39.5016C224.942 39.0856 225.534 38.7656 226.19 38.5416C226.846 38.3176 227.542 38.2056 228.278 38.2056C229.03 38.2056 229.646 38.3416 230.126 38.6136C230.622 38.8856 231.006 39.2616 231.278 39.7416C231.566 40.2056 231.758 40.7496 231.854 41.3736C231.966 41.9816 232.022 42.6296 232.022 43.3176V50.9736ZM53.8469 92.9736H48.0869V82.3536C48.0869 81.1056 47.8469 80.2056 47.3669 79.6536C46.9109 79.0776 46.2989 78.7896 45.5309 78.7896C45.0029 78.7896 44.4629 78.9336 43.9109 79.2216C43.3589 79.5096 42.8549 79.9056 42.3989 80.4096C41.9669 80.9136 41.6309 81.4896 41.3909 82.1376V92.9736H35.6309V74.0736H40.8149V77.2416C41.2949 76.4976 41.8949 75.8616 42.6149 75.3336C43.3349 74.8056 44.1629 74.4096 45.0989 74.1456C46.0349 73.8576 47.0549 73.7136 48.1589 73.7136C49.3829 73.7136 50.3669 73.9416 51.1109 74.3976C51.8789 74.8296 52.4549 75.4056 52.8389 76.1256C53.2469 76.8456 53.5109 77.6256 53.6309 78.4656C53.7749 79.2816 53.8469 80.0856 53.8469 80.8776V92.9736ZM57.6739 92.9736V74.0736H63.4339V92.9736H57.6739ZM57.6739 71.9136V66.6936H63.4339V71.9136H57.6739ZM76.413 93.3336C74.805 93.3336 73.377 93.0816 72.129 92.5776C70.881 92.0496 69.813 91.3416 68.925 90.4536C68.061 89.5656 67.401 88.5456 66.945 87.3936C66.489 86.2176 66.261 84.9936 66.261 83.7216C66.261 81.8976 66.657 80.2416 67.449 78.7536C68.265 77.2416 69.429 76.0296 70.941 75.1176C72.453 74.1816 74.277 73.7136 76.413 73.7136C78.549 73.7136 80.361 74.1696 81.849 75.0816C83.361 75.9936 84.513 77.1936 85.305 78.6816C86.097 80.1456 86.493 81.7416 86.493 83.4696C86.493 83.8056 86.469 84.1416 86.421 84.4776C86.397 84.7896 86.373 85.0656 86.349 85.3056H72.381C72.453 86.1456 72.681 86.8536 73.065 87.4296C73.473 88.0056 73.989 88.4496 74.613 88.7616C75.237 89.0496 75.897 89.1936 76.593 89.1936C77.457 89.1936 78.261 88.9896 79.005 88.5816C79.773 88.1736 80.301 87.6216 80.589 86.9256L85.485 88.2936C85.005 89.2776 84.321 90.1536 83.433 90.9216C82.569 91.6656 81.537 92.2536 80.337 92.6856C79.161 93.1176 77.853 93.3336 76.413 93.3336ZM72.237 81.7776H80.445C80.349 80.9856 80.121 80.3016 79.761 79.7256C79.401 79.1256 78.921 78.6696 78.321 78.3576C77.721 78.0216 77.061 77.8536 76.341 77.8536C75.597 77.8536 74.925 78.0216 74.325 78.3576C73.749 78.6696 73.281 79.1256 72.921 79.7256C72.561 80.3016 72.333 80.9856 72.237 81.7776ZM88.9236 86.1696V74.0736H94.6836V84.9096C94.6836 86.0616 94.9116 86.9496 95.3676 87.5736C95.8236 88.1736 96.4716 88.4736 97.3116 88.4736C97.8396 88.4736 98.3436 88.3896 98.8236 88.2216C99.3036 88.0296 99.7716 87.7296 100.228 87.3216C100.684 86.9136 101.092 86.3856 101.452 85.7376V74.0736H107.212V86.5656C107.212 87.1416 107.296 87.5496 107.464 87.7896C107.656 88.0056 107.98 88.1376 108.436 88.1856V92.9736C107.908 93.0696 107.44 93.1416 107.032 93.1896C106.648 93.2376 106.3 93.2616 105.988 93.2616C104.98 93.2616 104.176 93.0576 103.576 92.6496C102.976 92.2176 102.604 91.6176 102.46 90.8496L102.352 89.6976C101.488 90.9456 100.408 91.8696 99.1116 92.4696C97.8396 93.0456 96.4116 93.3336 94.8276 93.3336C92.9076 93.3336 91.4436 92.7216 90.4356 91.4976C89.4276 90.2736 88.9236 88.4976 88.9236 86.1696ZM134.825 74.0736H140.297L132.485 92.9736H127.733L124.853 85.2696L121.973 92.9736H117.221L109.409 74.0736H114.845L119.921 87.5376L121.721 82.2816L118.337 74.0736H123.053L124.853 79.7616L126.653 74.0736H131.333L127.985 82.2816L129.785 87.5376L134.825 74.0736ZM156.881 93.0456C155.633 93.0456 154.493 92.8056 153.461 92.3256C152.429 91.8216 151.541 91.1376 150.797 90.2736C150.077 89.3856 149.513 88.3656 149.105 87.2136C148.697 86.0616 148.493 84.8256 148.493 83.5056C148.493 82.1136 148.709 80.8296 149.141 79.6536C149.573 78.4776 150.173 77.4456 150.941 76.5576C151.733 75.6456 152.657 74.9496 153.713 74.4696C154.793 73.9656 155.981 73.7136 157.277 73.7136C158.693 73.7136 159.941 74.0256 161.021 74.6496C162.101 75.2496 162.965 76.0896 163.613 77.1696V74.0736H168.617V91.6776C168.617 93.5976 168.149 95.2536 167.213 96.6456C166.301 98.0376 165.017 99.1056 163.361 99.8496C161.729 100.618 159.833 101.002 157.673 101.002C155.657 101.002 153.917 100.666 152.453 99.9936C151.013 99.3456 149.753 98.4216 148.673 97.2216L151.769 94.0896C152.465 94.8816 153.329 95.5056 154.361 95.9616C155.393 96.4416 156.497 96.6816 157.673 96.6816C158.609 96.6816 159.473 96.5136 160.265 96.1776C161.057 95.8416 161.681 95.3016 162.137 94.5576C162.617 93.8136 162.857 92.8536 162.857 91.6776V89.8416C162.281 90.8736 161.441 91.6656 160.337 92.2176C159.257 92.7696 158.105 93.0456 156.881 93.0456ZM158.861 88.4736C159.317 88.4736 159.737 88.4136 160.121 88.2936C160.529 88.1496 160.901 87.9696 161.237 87.7536C161.573 87.5136 161.885 87.2376 162.173 86.9256C162.461 86.5896 162.689 86.2296 162.857 85.8456V81.8856C162.617 81.2136 162.269 80.6376 161.813 80.1576C161.357 79.6536 160.853 79.2696 160.301 79.0056C159.749 78.7416 159.173 78.6096 158.573 78.6096C157.973 78.6096 157.409 78.7416 156.881 79.0056C156.353 79.2696 155.897 79.6536 155.513 80.1576C155.153 80.6376 154.865 81.1776 154.649 81.7776C154.457 82.3776 154.361 83.0016 154.361 83.6496C154.361 84.3456 154.469 84.9816 154.685 85.5576C154.925 86.1336 155.249 86.6496 155.657 87.1056C156.065 87.5376 156.545 87.8736 157.097 88.1136C157.649 88.3536 158.237 88.4736 158.861 88.4736ZM181.565 93.3336C179.957 93.3336 178.517 93.0696 177.245 92.5416C175.997 92.0136 174.941 91.2936 174.077 90.3816C173.213 89.4696 172.553 88.4256 172.097 87.2496C171.665 86.0736 171.449 84.8376 171.449 83.5416C171.449 82.2216 171.665 80.9736 172.097 79.7976C172.553 78.6216 173.213 77.5776 174.077 76.6656C174.941 75.7536 175.997 75.0336 177.245 74.5056C178.517 73.9776 179.957 73.7136 181.565 73.7136C183.173 73.7136 184.601 73.9776 185.849 74.5056C187.097 75.0336 188.153 75.7536 189.017 76.6656C189.881 77.5776 190.541 78.6216 190.997 79.7976C191.453 80.9736 191.681 82.2216 191.681 83.5416C191.681 84.8376 191.453 86.0736 190.997 87.2496C190.541 88.4256 189.881 89.4696 189.017 90.3816C188.153 91.2936 187.097 92.0136 185.849 92.5416C184.601 93.0696 183.173 93.3336 181.565 93.3336ZM177.353 83.5416C177.353 84.5256 177.533 85.3896 177.893 86.1336C178.277 86.8776 178.781 87.4536 179.405 87.8616C180.029 88.2696 180.749 88.4736 181.565 88.4736C182.357 88.4736 183.065 88.2696 183.689 87.8616C184.337 87.4296 184.841 86.8416 185.201 86.0976C185.561 85.3536 185.741 84.5016 185.741 83.5416C185.741 82.5576 185.561 81.6936 185.201 80.9496C184.841 80.2056 184.337 79.6296 183.689 79.2216C183.065 78.8136 182.357 78.6096 181.565 78.6096C180.749 78.6096 180.029 78.8136 179.405 79.2216C178.781 79.6296 178.277 80.2056 177.893 80.9496C177.533 81.6936 177.353 82.5576 177.353 83.5416ZM203.573 93.3336C201.965 93.3336 200.537 93.0816 199.289 92.5776C198.041 92.0496 196.973 91.3416 196.085 90.4536C195.221 89.5656 194.561 88.5456 194.105 87.3936C193.649 86.2176 193.421 84.9936 193.421 83.7216C193.421 81.8976 193.817 80.2416 194.609 78.7536C195.425 77.2416 196.589 76.0296 198.101 75.1176C199.613 74.1816 201.437 73.7136 203.573 73.7136C205.709 73.7136 207.521 74.1696 209.009 75.0816C210.521 75.9936 211.673 77.1936 212.465 78.6816C213.257 80.1456 213.653 81.7416 213.653 83.4696C213.653 83.8056 213.629 84.1416 213.581 84.4776C213.557 84.7896 213.533 85.0656 213.509 85.3056H199.541C199.613 86.1456 199.841 86.8536 200.225 87.4296C200.633 88.0056 201.149 88.4496 201.773 88.7616C202.397 89.0496 203.057 89.1936 203.753 89.1936C204.617 89.1936 205.421 88.9896 206.165 88.5816C206.933 88.1736 207.461 87.6216 207.749 86.9256L212.645 88.2936C212.165 89.2776 211.481 90.1536 210.593 90.9216C209.729 91.6656 208.697 92.2536 207.497 92.6856C206.321 93.1176 205.013 93.3336 203.573 93.3336ZM199.397 81.7776H207.605C207.509 80.9856 207.281 80.3016 206.921 79.7256C206.561 79.1256 206.081 78.6696 205.481 78.3576C204.881 78.0216 204.221 77.8536 203.501 77.8536C202.757 77.8536 202.085 78.0216 201.485 78.3576C200.909 78.6696 200.441 79.1256 200.081 79.7256C199.721 80.3016 199.493 80.9856 199.397 81.7776ZM215.184 83.5056C215.184 81.6576 215.544 80.0016 216.264 78.5376C216.984 77.0496 217.968 75.8736 219.216 75.0096C220.464 74.1456 221.904 73.7136 223.536 73.7136C224.856 73.7136 226.056 74.0376 227.136 74.6856C228.216 75.3096 229.032 76.1376 229.584 77.1696V66.6936H235.344V86.5656C235.344 87.1416 235.44 87.5496 235.632 87.7896C235.824 88.0056 236.136 88.1376 236.568 88.1856V92.9736C235.56 93.1656 234.744 93.2616 234.12 93.2616C233.136 93.2616 232.332 93.0456 231.708 92.6136C231.108 92.1816 230.736 91.5816 230.592 90.8136L230.484 89.8416C229.812 91.0176 228.9 91.8936 227.748 92.4696C226.596 93.0456 225.384 93.3336 224.112 93.3336C222.816 93.3336 221.616 93.0936 220.512 92.6136C219.432 92.1096 218.484 91.4136 217.668 90.5256C216.876 89.6376 216.264 88.5936 215.832 87.3936C215.4 86.1936 215.184 84.8976 215.184 83.5056ZM229.62 85.8456V81.8856C229.38 81.2376 229.032 80.6736 228.576 80.1936C228.144 79.7136 227.64 79.3296 227.064 79.0416C226.512 78.7536 225.948 78.6096 225.372 78.6096C224.748 78.6096 224.172 78.7416 223.644 79.0056C223.14 79.2696 222.696 79.6416 222.312 80.1216C221.928 80.5776 221.628 81.1056 221.412 81.7056C221.22 82.3056 221.124 82.9416 221.124 83.6136C221.124 84.3096 221.232 84.9576 221.448 85.5576C221.688 86.1336 222.012 86.6496 222.42 87.1056C222.828 87.5376 223.308 87.8736 223.86 88.1136C224.412 88.3536 225.012 88.4736 225.66 88.4736C226.068 88.4736 226.464 88.4136 226.848 88.2936C227.232 88.1496 227.592 87.9696 227.928 87.7536C228.288 87.5376 228.612 87.2616 228.9 86.9256C229.188 86.5896 229.428 86.2296 229.62 85.8456ZM247.141 83.5056C247.141 81.6576 247.501 80.0016 248.221 78.5376C248.941 77.0496 249.925 75.8736 251.173 75.0096C252.421 74.1456 253.861 73.7136 255.493 73.7136C256.813 73.7136 258.013 74.0376 259.093 74.6856C260.173 75.3096 260.989 76.1376 261.541 77.1696V66.6936H267.301V86.5656C267.301 87.1416 267.397 87.5496 267.589 87.7896C267.781 88.0056 268.093 88.1376 268.525 88.1856V92.9736C267.517 93.1656 266.701 93.2616 266.077 93.2616C265.093 93.2616 264.289 93.0456 263.665 92.6136C263.065 92.1816 262.693 91.5816 262.549 90.8136L262.441 89.8416C261.769 91.0176 260.857 91.8936 259.705 92.4696C258.553 93.0456 257.341 93.3336 256.069 93.3336C254.773 93.3336 253.573 93.0936 252.469 92.6136C251.389 92.1096 250.441 91.4136 249.625 90.5256C248.833 89.6376 248.221 88.5936 247.789 87.3936C247.357 86.1936 247.141 84.8976 247.141 83.5056ZM261.577 85.8456V81.8856C261.337 81.2376 260.989 80.6736 260.533 80.1936C260.101 79.7136 259.597 79.3296 259.021 79.0416C258.469 78.7536 257.905 78.6096 257.329 78.6096C256.705 78.6096 256.129 78.7416 255.601 79.0056C255.097 79.2696 254.653 79.6416 254.269 80.1216C253.885 80.5776 253.585 81.1056 253.369 81.7056C253.177 82.3056 253.081 82.9416 253.081 83.6136C253.081 84.3096 253.189 84.9576 253.405 85.5576C253.645 86.1336 253.969 86.6496 254.377 87.1056C254.785 87.5376 255.265 87.8736 255.817 88.1136C256.369 88.3536 256.969 88.4736 257.617 88.4736C258.025 88.4736 258.421 88.4136 258.805 88.2936C259.189 88.1496 259.549 87.9696 259.885 87.7536C260.245 87.5376 260.569 87.2616 260.857 86.9256C261.145 86.5896 261.385 86.2296 261.577 85.8456ZM280.775 93.3336C279.167 93.3336 277.727 93.0696 276.455 92.5416C275.207 92.0136 274.151 91.2936 273.287 90.3816C272.423 89.4696 271.763 88.4256 271.307 87.2496C270.875 86.0736 270.659 84.8376 270.659 83.5416C270.659 82.2216 270.875 80.9736 271.307 79.7976C271.763 78.6216 272.423 77.5776 273.287 76.6656C274.151 75.7536 275.207 75.0336 276.455 74.5056C277.727 73.9776 279.167 73.7136 280.775 73.7136C282.383 73.7136 283.811 73.9776 285.059 74.5056C286.307 75.0336 287.363 75.7536 288.227 76.6656C289.091 77.5776 289.751 78.6216 290.207 79.7976C290.663 80.9736 290.891 82.2216 290.891 83.5416C290.891 84.8376 290.663 86.0736 290.207 87.2496C289.751 88.4256 289.091 89.4696 288.227 90.3816C287.363 91.2936 286.307 92.0136 285.059 92.5416C283.811 93.0696 282.383 93.3336 280.775 93.3336ZM276.563 83.5416C276.563 84.5256 276.743 85.3896 277.103 86.1336C277.487 86.8776 277.991 87.4536 278.615 87.8616C279.239 88.2696 279.959 88.4736 280.775 88.4736C281.567 88.4736 282.275 88.2696 282.899 87.8616C283.547 87.4296 284.051 86.8416 284.411 86.0976C284.771 85.3536 284.951 84.5016 284.951 83.5416C284.951 82.5576 284.771 81.6936 284.411 80.9496C284.051 80.2056 283.547 79.6296 282.899 79.2216C282.275 78.8136 281.567 78.6096 280.775 78.6096C279.959 78.6096 279.239 78.8136 278.615 79.2216C277.991 79.6296 277.487 80.2056 277.103 80.9496C276.743 81.6936 276.563 82.5576 276.563 83.5416ZM302.784 93.3336C301.176 93.3336 299.748 93.0816 298.5 92.5776C297.252 92.0496 296.184 91.3416 295.296 90.4536C294.432 89.5656 293.772 88.5456 293.316 87.3936C292.86 86.2176 292.632 84.9936 292.632 83.7216C292.632 81.8976 293.028 80.2416 293.82 78.7536C294.636 77.2416 295.8 76.0296 297.312 75.1176C298.824 74.1816 300.648 73.7136 302.784 73.7136C304.92 73.7136 306.732 74.1696 308.22 75.0816C309.732 75.9936 310.884 77.1936 311.676 78.6816C312.468 80.1456 312.864 81.7416 312.864 83.4696C312.864 83.8056 312.84 84.1416 312.792 84.4776C312.768 84.7896 312.744 85.0656 312.72 85.3056H298.752C298.824 86.1456 299.052 86.8536 299.436 87.4296C299.844 88.0056 300.36 88.4496 300.984 88.7616C301.608 89.0496 302.268 89.1936 302.964 89.1936C303.828 89.1936 304.632 88.9896 305.376 88.5816C306.144 88.1736 306.672 87.6216 306.96 86.9256L311.856 88.2936C311.376 89.2776 310.692 90.1536 309.804 90.9216C308.94 91.6656 307.908 92.2536 306.708 92.6856C305.532 93.1176 304.224 93.3336 302.784 93.3336ZM298.608 81.7776H306.816C306.72 80.9856 306.492 80.3016 306.132 79.7256C305.772 79.1256 305.292 78.6696 304.692 78.3576C304.092 78.0216 303.432 77.8536 302.712 77.8536C301.968 77.8536 301.296 78.0216 300.696 78.3576C300.12 78.6696 299.652 79.1256 299.292 79.7256C298.932 80.3016 298.704 80.9856 298.608 81.7776ZM315.403 66.6936H321.163V86.2416C321.163 87.0336 321.307 87.5976 321.595 87.9336C321.883 88.2696 322.291 88.4376 322.819 88.4376C323.179 88.4376 323.539 88.3896 323.899 88.2936C324.283 88.1736 324.619 88.0416 324.907 87.8976L325.663 92.2176C324.943 92.5536 324.115 92.8176 323.179 93.0096C322.243 93.2016 321.367 93.2976 320.551 93.2976C318.919 93.2976 317.647 92.8656 316.735 92.0016C315.847 91.1136 315.403 89.8656 315.403 88.2576V66.6936ZM163.311 131.302C163.311 130.502 163.535 129.806 163.983 129.214C164.447 128.606 165.079 128.142 165.879 127.822C166.679 127.486 167.607 127.318 168.663 127.318C169.223 127.318 169.791 127.358 170.367 127.438C170.959 127.518 171.479 127.646 171.927 127.822V127.03C171.927 126.15 171.663 125.462 171.135 124.966C170.607 124.47 169.847 124.222 168.855 124.222C168.151 124.222 167.487 124.35 166.863 124.606C166.239 124.846 165.575 125.19 164.871 125.638L163.983 123.862C164.815 123.302 165.647 122.886 166.479 122.614C167.327 122.342 168.215 122.206 169.143 122.206C170.823 122.206 172.143 122.654 173.103 123.55C174.079 124.43 174.567 125.686 174.567 127.318V131.998C174.567 132.302 174.615 132.518 174.711 132.646C174.823 132.774 175.007 132.846 175.263 132.862V134.974C175.023 135.022 174.807 135.054 174.615 135.07C174.423 135.086 174.263 135.094 174.135 135.094C173.575 135.094 173.151 134.958 172.863 134.686C172.575 134.414 172.407 134.094 172.359 133.726L172.287 133.006C171.743 133.71 171.047 134.254 170.199 134.638C169.351 135.022 168.495 135.214 167.631 135.214C166.799 135.214 166.055 135.046 165.399 134.71C164.743 134.358 164.231 133.886 163.863 133.294C163.495 132.702 163.311 132.038 163.311 131.302ZM171.303 132.07C171.495 131.862 171.647 131.654 171.759 131.446C171.871 131.238 171.927 131.054 171.927 130.894V129.454C171.479 129.278 171.007 129.15 170.511 129.07C170.015 128.974 169.527 128.926 169.047 128.926C168.087 128.926 167.303 129.118 166.695 129.502C166.103 129.886 165.807 130.414 165.807 131.086C165.807 131.454 165.903 131.806 166.095 132.142C166.303 132.478 166.591 132.75 166.959 132.958C167.343 133.166 167.815 133.27 168.375 133.27C168.951 133.27 169.503 133.158 170.031 132.934C170.559 132.71 170.983 132.422 171.303 132.07ZM176.858 131.302C176.858 130.502 177.082 129.806 177.53 129.214C177.994 128.606 178.626 128.142 179.426 127.822C180.226 127.486 181.154 127.318 182.21 127.318C182.77 127.318 183.338 127.358 183.914 127.438C184.506 127.518 185.026 127.646 185.474 127.822V127.03C185.474 126.15 185.21 125.462 184.682 124.966C184.154 124.47 183.394 124.222 182.402 124.222C181.698 124.222 181.034 124.35 180.41 124.606C179.786 124.846 179.122 125.19 178.418 125.638L177.53 123.862C178.362 123.302 179.194 122.886 180.026 122.614C180.874 122.342 181.762 122.206 182.69 122.206C184.37 122.206 185.69 122.654 186.65 123.55C187.626 124.43 188.114 125.686 188.114 127.318V131.998C188.114 132.302 188.162 132.518 188.258 132.646C188.37 132.774 188.554 132.846 188.81 132.862V134.974C188.57 135.022 188.354 135.054 188.162 135.07C187.97 135.086 187.81 135.094 187.682 135.094C187.122 135.094 186.698 134.958 186.41 134.686C186.122 134.414 185.954 134.094 185.906 133.726L185.834 133.006C185.29 133.71 184.594 134.254 183.746 134.638C182.898 135.022 182.042 135.214 181.178 135.214C180.346 135.214 179.602 135.046 178.946 134.71C178.29 134.358 177.778 133.886 177.41 133.294C177.042 132.702 176.858 132.038 176.858 131.302ZM184.85 132.07C185.042 131.862 185.194 131.654 185.306 131.446C185.418 131.238 185.474 131.054 185.474 130.894V129.454C185.026 129.278 184.554 129.15 184.058 129.07C183.562 128.974 183.074 128.926 182.594 128.926C181.634 128.926 180.85 129.118 180.242 129.502C179.65 129.886 179.354 130.414 179.354 131.086C179.354 131.454 179.45 131.806 179.642 132.142C179.85 132.478 180.138 132.75 180.506 132.958C180.89 133.166 181.362 133.27 181.922 133.27C182.498 133.27 183.05 133.158 183.578 132.934C184.106 132.71 184.53 132.422 184.85 132.07ZM202.573 134.974H199.933V127.942C199.933 126.774 199.741 125.918 199.357 125.374C198.989 124.83 198.437 124.558 197.701 124.558C197.189 124.558 196.677 124.686 196.165 124.942C195.669 125.198 195.221 125.55 194.821 125.998C194.421 126.43 194.133 126.934 193.957 127.51V134.974H191.317V122.422H193.717V124.942C194.037 124.382 194.453 123.902 194.965 123.502C195.493 123.086 196.085 122.766 196.741 122.542C197.397 122.318 198.093 122.206 198.829 122.206C199.581 122.206 200.197 122.342 200.677 122.614C201.173 122.886 201.557 123.262 201.829 123.742C202.117 124.206 202.309 124.75 202.405 125.374C202.517 125.982 202.573 126.63 202.573 127.318V134.974Z" fill="#42B4A7"/>
</svg>
