<svg width="239" height="167" viewBox="0 0 239 167" fill="none" xmlns="http://www.w3.org/2000/svg">
<path d="M5 161.095C30.3531 145.691 63.8691 130.81 90.6569 110.657M90.6569 110.657C102.729 101.574 113.434 91.4213 121.41 79.6669C129.212 68.1702 123.418 63.2048 112.003 63.2048C93.6288 63.2048 69.3667 100.232 90.6569 110.657ZM90.6569 110.657C92.0011 111.315 93.527 111.867 95.2474 112.297C119.943 118.471 148.696 107.496 162.271 84.2233C171.981 67.5789 189.215 41.5709 206.072 31.4565M179.616 15.5828C183.033 14.6216 186.282 13.3525 189.494 11.9865M189.494 11.9865C192.372 10.7626 195.221 9.46103 198.136 8.23362C206.505 4.70964 218.939 7.99582 227.974 6.32284C240.992 3.91206 228.986 26.7508 226.651 35.5724C225.357 40.4578 222.344 44.2258 221.947 49.3888C220.684 65.8084 213.558 44.0696 211.511 38.953C207.656 29.3149 194.487 21.2474 189.494 11.9865ZM189.494 11.9865C188.283 9.74099 187.553 7.42528 187.553 5" stroke="#42B4A7" stroke-width="10" stroke-linecap="round"/>
</svg>
