<svg width="276" height="193" viewBox="0 0 276 193" fill="none" xmlns="http://www.w3.org/2000/svg">
<path d="M270.793 125.804C261.762 129.219 254.966 136.56 245.738 140.029C232.266 145.094 220.185 153.601 206.008 156.606C177.579 162.632 146.975 160.139 118.445 156.01C96.9598 152.9 70.1531 146.225 56.9796 127.311C48.9837 115.831 42.5262 103.683 32.0029 94.4824" stroke="#42B4A7" stroke-width="10" stroke-linecap="round"/>
<path d="M16.1418 100.189C14.2951 91.4766 12.4484 82.7641 10.6017 74.0515C9.11403 67.0331 7.6264 60.0146 6.13877 52.9962C4.93223 47.3039 8.273 54.059 10.1232 56.1346C20.5672 67.8517 33.5393 71.4385 46.3299 79.7552C52.193 83.5675 28.3157 88.2055 26.9457 90.3125C25.5996 92.3827 24.9988 95.2849 23.056 97.0166C21.1358 98.7282 15.3948 100.348 16.1418 100.189Z" stroke="#42B4A7" stroke-width="10" stroke-linecap="round"/>
</svg>
