<svg width="204" height="93" viewBox="0 0 204 93" fill="none" xmlns="http://www.w3.org/2000/svg">
<path d="M3.37891 33.321C4.44502 42.916 13.1752 54.805 17.6171 63.2212C21.3153 70.2283 25.8903 71.7642 33.2791 71.7642C40.6703 71.7642 45.6587 68.2044 50.365 63.2212C53.3737 60.0356 57.9377 50.9739 54.3201 46.4518C51.67 43.1392 41.0047 43.9903 37.5506 45.819C32.6062 48.4366 29.0077 51.274 29.0077 57.526C29.0077 69.4717 30.2559 85.4358 44.9861 86.0024C55.7509 86.4164 78.8029 95.1132 86.2769 83.1547C87.9661 80.452 92.5353 80.6315 94.5034 78.1714C97.7194 74.1514 104.793 72.6457 108.742 68.9165C113.732 64.2034 118.24 59.6966 122.98 54.6783C130.71 46.4937 138.708 38.8283 148.609 33.0046C153.356 30.2121 159.255 24.7313 163.163 20.823C166.896 17.0901 173.331 17.659 178.509 17.659" stroke="#42B4A7" stroke-width="6" stroke-linecap="round"/>
<path d="M167.119 4.84428C167.846 11.7503 175.909 22.4687 180.645 28.2582C181.978 29.8875 185.629 36.6135 185.629 31.8969C185.629 24.4611 192.258 15.5808 197.019 10.5396C198.413 9.06417 203.448 3.42045 199.155 3.42045C195.011 3.42045 190.842 2.84385 187.053 4.52787C181.359 7.05846 170.537 4.84428 164.271 4.84428" stroke="#42B4A7" stroke-width="6" stroke-linecap="round"/>
</svg>
