<svg width="266" height="138" viewBox="0 0 266 138" fill="none" xmlns="http://www.w3.org/2000/svg">
<path d="M3.50391 120.527C3.91773 123.837 14.7183 128.555 17.6033 130.083C23.1152 133.001 25.8659 134.626 32.4076 134.626C45.2505 134.626 53.5119 134.098 63.4262 126.166C69.9004 120.987 76.7259 113.498 81.677 107.132C89.1765 97.4898 102.157 87.7843 106.429 76.0352C109.637 67.2132 121.795 50.4146 130.398 46.1133C134.424 44.1003 138.137 38.2054 142.383 37.262C146.351 36.3801 155.177 29.9537 158.283 27.1575C165.593 20.5791 181.4 20.4211 191.025 20.4211C197.8 20.4211 218.755 18.073 222.044 24.6509" stroke="#42B4A7" stroke-width="6" stroke-linecap="round"/>
<path d="M229.093 6.32182C229.093 13.7319 227.683 21.072 227.683 28.1758C227.683 32.5661 225.084 36.4155 224.863 40.1603C224.43 47.5232 232.108 36.8562 236.769 36.0088C241.211 35.2012 246.43 35.9305 250.947 35.9305C254.472 35.9305 265.039 36.1649 261.522 35.9305C258.351 35.7191 250.853 30.2178 248.127 28.0975C239.586 21.4545 234.955 12.2944 229.093 3.50195" stroke="#42B4A7" stroke-width="6" stroke-linecap="round"/>
</svg>
