<svg width="125" height="124" fill="none" xmlns="http://www.w3.org/2000/svg">
  <g clip-path="url(#a)">
    <path fill-rule="evenodd" clip-rule="evenodd" d="M83.88 82.374v35.212A6.414 6.414 0 0 1 77.465 124H17.603a6.414 6.414 0 0 1-6.413-6.414V82.374h72.69Z" fill="#0B7C68"/>
    <path fill-rule="evenodd" clip-rule="evenodd" d="M11.19 106.897a6.413 6.413 0 0 0 6.414 6.413h59.862a6.413 6.413 0 0 0 6.414-6.413V6.414A6.414 6.414 0 0 0 77.466 0H17.604a6.414 6.414 0 0 0-6.414 6.414v100.483Z" fill="#BEE9D2"/>
    <path fill-rule="evenodd" clip-rule="evenodd" d="M83.88 6.414v4.276s-70.852 2.073-72.648 96.762a2.432 2.432 0 0 1-.042-.555V6.414A6.414 6.414 0 0 1 17.603 0h59.863a6.414 6.414 0 0 1 6.413 6.414Z" fill="#BEE9D2"/>
    <path fill-rule="evenodd" clip-rule="evenodd" d="m68.914 0-6.117 6.525a6.414 6.414 0 0 1-4.68 2.027H36.952a6.414 6.414 0 0 1-4.68-2.027L26.155 0h42.759Z" fill="#0B7C68"/>
    <path fill-rule="evenodd" clip-rule="evenodd" d="M26.155 57.724V62a2.138 2.138 0 0 0 3.207 1.856l11.759-6.132h29.93a4.276 4.276 0 0 0 4.277-4.276V21.38a4.276 4.276 0 0 0-4.276-4.276H24.017a4.276 4.276 0 0 0-4.276 4.276v32.07a4.276 4.276 0 0 0 4.276 4.275h2.138ZM105.045 72.903c-11.69-11.688-30.64-11.687-42.328.002-11.689 11.689-11.689 30.639 0 42.328 11.688 11.689 30.639 11.689 42.328.001a29.93 29.93 0 0 0 0-42.33Z" fill="#FB6B47"/>
    <path fill-rule="evenodd" clip-rule="evenodd" d="M95.68 76.239 66.05 105.87A21.38 21.38 0 0 1 95.68 76.239ZM98.995 109.184a21.4 21.4 0 0 1-26.917 2.715l29.632-29.631a21.402 21.402 0 0 1-2.715 26.916Z" fill="#F6F6F6"/>
    <path fill-rule="evenodd" clip-rule="evenodd" d="M47.534 42.759a2.138 2.138 0 0 1-2.137-2.138V25.655a2.138 2.138 0 0 1 4.275 0v14.966c0 1.18-.957 2.138-2.138 2.138Z" fill="#fff"/>
    <path d="M47.534 51.31a2.138 2.138 0 1 0 0-4.275 2.138 2.138 0 0 0 0 4.275Z" fill="#fff"/>
  </g>
  <defs>
    <clipPath id="a">
      <path fill="#fff" transform="translate(.5)" d="M0 0h124v124H0z"/>
    </clipPath>
  </defs>
</svg>
