<svg width="107" height="170" fill="none" xmlns="http://www.w3.org/2000/svg">
  <path d="M97.311 65.612c3.237-17.066 4.534-26.61 4.649-37.698.025-3.353-.187-6.7-.635-10.021-.375-2.69-2.637-5.819-5.435-7.482-.748-.444-4.103-2.624-4.776-3.045-1.612-1.006-2.997-1.794-4.325-2.431-3.077-1.476-5.621-2.024-7.694-1.407-2.534.751-4.25 2.988-5.757 6.654-.405.985-1.596 4.29-1.482 3.99-.999 2.655-2.913 8.42-4.23 12.703.082-.527.17-1.069.268-1.628.278-1.608.603-3.253 1.058-5.418-.017.081.77-3.62.969-4.596.337-1.65.572-2.921.735-4.034.046-.316.095-.63.165-1.079.492-3.11.598-4.105.455-5.394-.203-1.819-1.072-3.035-2.778-3.6-2.993-.991-5.835 1.448-8.204 6.68a114.904 114.904 0 00-1.761 4.134 207.149 207.149 0 00-2.004 5.153C54.72 21.925 50.79 33.3 51 32.736c-.54 1.449-1.036 3.205-1.753 6.053.05-.197-.642 2.57-.826 3.282-.085.333-.167.643-.244.934l-.05-.167c.018.062-.652-2.228-.852-2.887-1.24-4.077-2.37-6.55-4.096-8.28a4.408 4.408 0 00-3.768-1.17c-2.069.386-2.941 1.282-3.265 3.294-.255 1.578-.275 3.26-.118 5.38.052.714.11 1.326.231 2.53.101 1.005.135 1.346.179 1.844.172 1.944.294 3.517.55 6.996.26 3.533.38 5.074.552 7.027.316 3.573.663 6.435 1.5 12.76a1238 1238 0 01.288 2.196c.655 5 1.033 8.288 1.305 11.666.385 4.72.593 10.426.445 13.348-.06 1.158-9.286 58.059-9.286 58.059a.596.596 0 00.584.704h43.237a.595.595 0 00.583-.475l8.437-38.886c1.3-4.957 11.269-43.897 12.68-51.332z" fill="#FFBF80"/>
  <path d="M81.195 30.191a324.347 324.347 0 00.557-2.756l.037-.187c.181-.916.323-1.662.414-2.18.24-1.378.516-2.71.974-4.783l.181-.816c.441-1.983.636-2.886.857-4.005.203-1.022.356-1.86.679-3.677.11-.627.154-.87.213-1.2.11-.61.204-1.126.298-1.619.297-1.625.34-3.168.02-4.393a.594.594 0 10-1.15.3c.267 1.027.23 2.409-.039 3.874-.093.494-.189 1.014-.299 1.627l-.214 1.203c-.32 1.809-.472 2.641-.674 3.653a162.073 162.073 0 01-.85 3.978l-.182.817c-.462 2.09-.74 3.436-.985 4.835-.089.508-.23 1.247-.409 2.155l-.036.186c-.122.614-.252 1.26-.382 1.9l-.126.615-.048.232a.594.594 0 101.164.241zM90.273 33.498c.092-.404.196-.843.34-1.44.019-.078.295-1.22.377-1.565.112-.465.207-.866.295-1.25.388-1.687.643-2.996.782-4.112.313-2.515.68-4.995 1.1-7.42l.305-1.738c.06-.338.11-.638.159-.924.394-2.362.567-3.89.482-4.847a.595.595 0 10-1.184.104c.072.817-.094 2.294-.47 4.546l-.157.916-.305 1.74a158.409 158.409 0 00-1.11 7.475c-.133 1.067-.38 2.342-.76 3.992-.088.38-.182.778-.292 1.24l-.377 1.564c-.145.601-.25 1.044-.343 1.454a.594.594 0 101.159.264zM69.927 80.866c-.91-.188-1.814-.078-3.26.27a.596.596 0 00.277 1.159c1.28-.308 2.06-.403 2.742-.261a.596.596 0 00.24-1.167z" fill="#FB6B47"/>
  <path d="M94.38 34.102c-.659-.118-1.343-.306-3.216-.858l-.085-.024c-1.726-.509-2.559-.732-3.304-.862-.976-.17-1.82-.417-3.284-.926l-.357-.124c-1.293-.45-1.945-.659-2.76-.86-.366-.09-.747-.172-1.206-.261-.203-.04-.353-.068-.732-.138-1.675-.311-2.415-.488-3.29-.841-1.841-.744-3.43-1.224-6.82-2.137l-.137-.037c-2.749-.74-3.97-1.093-5.434-1.61a.597.597 0 00-.395 1.124c1.503.53 2.743.89 5.52 1.637l.137.037c3.345.9 4.902 1.371 6.686 2.091.971.392 1.765.582 3.516.907.376.07.524.098.723.137.441.086.803.163 1.147.248.77.19 1.395.39 2.654.829l.359.125c1.521.528 2.414.79 3.47.974.683.118 1.495.336 3.172.83l.085.025c1.927.567 2.621.758 3.343.887a.596.596 0 00.21-1.173zM55.955 49.54c2.812-.782 9.087 1.204 10.982 3.379 2.57 2.927 4.13 8.012 3.916 12.301a.595.595 0 101.187.06c.23-4.585-1.424-9.975-4.21-13.147-2.19-2.513-8.934-4.647-12.193-3.74a.596.596 0 00.318 1.148zM94.507 51.343a17.063 17.063 0 01-5.603-.437c-.6-.141-1.152-.261-2.118-.466a190.837 190.837 0 01-1.585-.34c-2.886-.632-4.753-1.203-6.456-2.078-3.75-1.925-7.21-4.487-9.119-7.01a.594.594 0 00-.833-.114.597.597 0 00-.114.835c2.034 2.689 5.629 5.35 9.524 7.35 1.816.932 3.765 1.529 6.744 2.182.427.093.519.113 1.594.34.957.204 1.504.323 2.085.46 1.95.483 3.975.642 5.984.465a.595.595 0 00-.103-1.187z" fill="#FB6B47"/>
  <path d="M39.29 105.027c1.453.7 3.176 1.209 4.846 1.704.517.152 1.022.298 1.504.452a68.364 68.364 0 007.208 1.737l1.67.334c6.641 1.331 13.508 2.711 20.31 2.913 2.33.09 4.665-.01 6.98-.298 3.92-.518 4.698-1.245 5.943-5.567.27-.933.594-1.88.915-2.795.243-.7.493-1.421.719-2.136a.597.597 0 00-.25-.682c-.062-.039-.127-.098-.184-.334a.595.595 0 00-.817-.41c-5.509 2.418-11.767 2.046-17.829 1.682-1.396-.083-2.837-.169-4.228-.217-6.778-.229-14.1-2.57-21.017-4.948-.594-.209-1.188-.483-1.783-.75-.86-.435-1.766-.771-2.7-1.002a.537.537 0 00-.12 0 .595.595 0 00-.594.474 40.3 40.3 0 00-.594 5.392c-.092 1.34-.175 2.607-.35 3.834a.596.596 0 00.37.617z" fill="#744B15"/>
  <path d="M60.66 110.004c-1.055.448-2.263.29-4.008-.396-1.966-.771-2.135-1.247-1.555-4.065.096-.47.133-.721.258-1.661.266-2.004.547-2.591 1.589-2.856 1.572-.401 4.012-.018 4.96.907a.596.596 0 00.829-.854c-1.284-1.253-4.144-1.702-6.082-1.208-.925.236-1.547.753-1.925 1.543-.276.574-.393 1.132-.55 2.311-.12.909-.155 1.147-.243 1.579-.685 3.327-.304 4.398 2.285 5.414 2.008.789 3.493.982 4.905.384a.597.597 0 00-.463-1.098z" fill="#0B0B0A"/>
  <path d="M57.248 104.905a17.025 17.025 0 00-.81-.002c-.257.003-.375.003-.517.003-.898-.006-1.449-.111-1.855-.393a.597.597 0 00-.677.98c.655.454 1.405.597 2.524.604a28 28 0 00.54-.003c.392-.005.558-.005.755.002a.595.595 0 00.04-1.191zM62.896 107.217l.166-.182a.594.594 0 10-.876-.806l-.166.182a.594.594 0 10.876.806zM66.578 107.74l.481.018a.595.595 0 00.044-1.191l-.48-.018a.596.596 0 00-.045 1.191zM71.153 106.518a.594.594 0 00-.665.516c-.062.492.267.915.8.861a.594.594 0 00.323-1.049.593.593 0 00-.458-.328zM74.736 108.208h.318a.594.594 0 000-1.191h-.318a.595.595 0 000 1.191zM78.897 103.343c2.184 1.364 1.451 6.721-.935 7.412a.595.595 0 00.33 1.145c3.375-.977 4.29-7.659 1.233-9.569a.594.594 0 00-.818.191.597.597 0 00.19.821z" fill="#0B0B0A"/>
  <path d="M103.041 55.005c-.184-.894-.333-1.603-.401-2.121.151-1.112.19-2.31-.553-2.98-.113-.472-.2-.95-.261-1.432-.562-4.71-2.306-13.156-3.028-16.57a2.268 2.268 0 00-2.63-1.748c-1.783.34-4.16.819-5.444 1.164a186.724 186.724 0 00-8.697 2.544c-1.893.611-3.913 1.109-5.872 1.588-1.518.373-3.087.757-4.537 1.192l-.674.09c-.407-.063-.82-.12-1.219-.174a20.23 20.23 0 01-2.118-.36c-3.409-.894-6.965-1.218-10.4-1.543-1.299-.125-2.639-.25-3.95-.405a16.165 16.165 0 01-1.634-.298c-2.059-.417-4.391-.894-5.72 1.49a24.268 24.268 0 00-1.67 3.845c-1.173.218-6.81.79-7.71.724a.594.594 0 00-.82.631c.047.334.08.775.115 1.246.044.963.168 1.92.369 2.863h-.211a.595.595 0 00-.594.545 22.587 22.587 0 00.261 4.984h-.2a.558.558 0 00-.154.033c-.5.145-1.016.234-1.536.265a9.513 9.513 0 00-1.667.274.595.595 0 00-.43.545c-.075 1.752.198 3.557.46 5.303.065.444.134.893.193 1.32.297 2.085.443 4.239.594 6.324.098 1.335.2 2.711.333 4.06.259 2.628.416 7.09.473 8.887a1.541 1.541 0 001.542 1.49h.154c3.147-.316 10.995-1.09 15.79-1.407l1.219-.086c2.763-.2 5.372-.387 8.082.209 1.408.297 2.832.253 4.208.2a23.09 23.09 0 012.799 0c1.782.154 3.565-.019 5.316-.189 1.123-.107 2.282-.22 3.402-.238 1.854-.033 3.726-.042 5.536-.05l3.444-.021c.25 0 .641.023 1.102.056 2.267.158 3.913.206 4.505-.596a.597.597 0 00.095-.515 5.258 5.258 0 01-.16-.986l1.161.048c1.404.018 2.805.134 4.193.348.232.045.41.096.57.14.624.179 1.082.239 1.718-.542.508-.62.76-1.87.948-2.782.038-.182.07-.346.1-.48.535-2.32 1.029-4.73 1.469-7.17l.415-.257c.461 0 1.454.018 2.541-.038a.593.593 0 00.559-.653 76.33 76.33 0 00-1.376-8.767z" fill="#BEE9D2"/>
  <path d="M93.017 35.104c.885 3.178 1.374 6.274 2.076 12.154.078.65.137 1.124.293 2.361.148 1.174.22 1.754.3 2.435.183 1.543.31 2.817.394 4.032.05.734.15 1.34.393 2.557.196.98.262 1.346.323 1.837.166 1.36.155 1.374-1.516 1.852-3.627 1.04-5.4 1.54-7.514 2.107-1.168.313-2.126.627-4.05 1.3-.57.2-.624.22-.85.298-2.948 1.024-4.722 1.493-6.727 1.66-2.073.18-3.695.486-7.282 1.291l-.276.062c-3.108.697-4.691.997-6.541 1.177-1.8.175-3.524.524-6.102 1.174-.33.083-.554.14-1.205.308-1.855.475-2.73.689-3.793.911-.964.197-1.96.353-3.292.528-.332.044-.589.077-1.2.153-2.133.27-3.094.407-4.284.64-.31.061-.632.14-.991.242-.284.08-.474.137-1.027.309a29.89 29.89 0 01-1.12.332 6.541 6.541 0 00-.416-.992c.085-2.862-.15-5.204-.886-10.35-.51-3.564-.702-5.15-.82-7.122-.059-1.023-.183-1.925-.467-3.624l-.033-.195a68.51 68.51 0 01-.283-1.774.595.595 0 10-1.176.17 71.565 71.565 0 00.32 1.996c.277 1.658.397 2.529.453 3.498.12 2.015.316 3.623.83 7.22.738 5.173.965 7.459.87 10.301a.597.597 0 00.073.309c.244.442.424.916.535 1.41.071.319.386.52.706.45.51-.11.93-.231 1.767-.49.54-.17.725-.226.995-.301.33-.093.621-.165.898-.219 1.155-.226 2.098-.362 4.205-.627.613-.077.871-.11 1.205-.154 1.357-.178 2.378-.339 3.378-.543 1.088-.227 1.976-.444 3.847-.924.65-.167.873-.224 1.201-.306 2.525-.637 4.199-.975 5.927-1.144 1.913-.187 3.532-.493 6.685-1.2l.276-.062c3.536-.793 5.123-1.093 7.123-1.266 2.128-.177 3.981-.668 7.016-1.722l.853-.298c1.897-.665 2.834-.972 3.965-1.275 2.123-.57 3.9-1.07 7.533-2.112 2.184-.625 2.615-1.13 2.37-3.144-.066-.532-.136-.914-.338-1.925-.233-1.167-.327-1.737-.372-2.405a84.673 84.673 0 00-.399-4.09c-.08-.686-.153-1.267-.302-2.444a314.53 314.53 0 01-.291-2.353c-.749-6.269-1.26-9.419-2.266-12.874a.594.594 0 00-.688-.417c-2.24.453-3.935.824-8.111 1.76-8.742 1.958-12.784 2.75-17.748 3.32-3.4.374-6.777.949-10.112 1.722-.615.148-1.087.283-2.134.599-1.438.434-2.083.608-2.924.763-.391.073-.738.13-1.426.24l-.516.083c-1.07.174-1.77.307-2.467.484-3.075.782-6.137 1.134-10.88 1.383a.595.595 0 00.062 1.19c4.815-.252 7.942-.612 11.11-1.418.654-.166 1.326-.294 2.365-.462l.513-.083c.698-.111 1.05-.17 1.455-.245.896-.165 1.571-.348 3.05-.794 1.026-.31 1.482-.44 2.064-.58a85.362 85.362 0 019.973-1.697c5.022-.577 9.092-1.375 17.874-3.343 3.827-.857 5.565-1.239 7.549-1.644z" fill="#0B7C68"/>
  <path fill-rule="evenodd" clip-rule="evenodd" d="M88.595 38.944v-.002c.164-1.04-.595-1.446-1.958-1.242a194.079 194.079 0 00-2.695.434c-1.703.28-2.473.404-3.427.543-2.135.317-3.828.634-7.624 1.394l-.023.005c-2.303.461-3.346.665-4.636.898-.585.106-1.183.22-1.8.343-2.06.41-3.66.77-7.432 1.651-8.307 1.94-12.084 2.652-16.774 2.921-.556.033-.767.745-.318 1.076.584.43.768 1.623.36 2.326-.507.873-1.464 1.149-3.284 1.174a.596.596 0 00-.558.779c.511 1.583.808 3.298 1.058 5.748.05.486.08.813.169 1.777.082.898.127 1.362.183 1.888.062.583.124 1.057.265 2.067.076.548.106.765.144 1.055.217 1.663.294 2.828.225 4.003-.035.572.678.858 1.047.42.442-.526 1.748-.489 2.433.022.605.457.814 1.119.826 2.305.002.168.001.307-.003.61l-.002.102a.595.595 0 00.593.604c.549.002 1.102-.108 1.868-.333.13-.038.248-.074.451-.137.653-.2.893-.27 1.204-.335 2.085-.443 4.167-.897 6.247-1.36a273.62 273.62 0 014.563-.962l1.122-.23c4.79-.987 7.563-1.64 10.505-2.55a57.117 57.117 0 017.255-1.625c.868-.153 1.687-.35 2.918-.687l.572-.157c1.82-.5 2.666-.707 3.715-.869a135.975 135.975 0 011.218-.17c.651-.09 1.2-.176 1.729-.273 2.363-.43 3.604-.887 3.73-1.857.052-.456-.043-.765-.315-1.35l-.008-.017c-.293-.627-.305-.786-.007-1.126.285-.326 1.31-.554 1.953-.472a.595.595 0 00.66-.49c.18-1.043.06-2.158-.308-3.58-.107-.41-.216-.788-.408-1.425-.398-1.32-.511-1.726-.626-2.314a74.46 74.46 0 01-.884-5.887.594.594 0 00-.92-.43c-1.797 1.203-3.694.14-3.667-2.068a1.74 1.74 0 01.048-.359c.048-.209.122-.426.252-.753l.067-.166.039-.099c.042-.105.074-.187.102-.266a2.97 2.97 0 00.156-.554zm-1.78-.066c.238-.035.428-.05.567-.043l.024.001c-.024.107-.076.24-.28.753-.15.38-.24.645-.306.928-.047.21-.074.412-.077.608-.035 2.83 2.333 4.454 4.695 3.51.22 1.794.489 3.54.798 5.119.125.644.243 1.066.654 2.431.188.622.294.99.395 1.38.264 1.02.384 1.842.346 2.563-.897.03-1.91.34-2.394.894-.692.79-.647 1.406-.176 2.416l.008.017c.163.35.219.513.215.655a.559.559 0 01-.08.067c-.127.092-.33.191-.598.29-.511.188-1.217.36-2.087.518a41.58 41.58 0 01-1.681.265l-.09.013c-.258.035-.989.135-1.145.16-1.108.17-1.985.384-3.849.897l-.569.157c-1.199.327-1.988.517-2.8.66-2.494.39-4.97.946-7.404 1.66-2.903.898-5.647 1.544-10.401 2.524l-1.12.23a273.89 273.89 0 00-4.584.966 670.43 670.43 0 01-6.235 1.357c-.358.075-.617.15-1.307.362a36.67 36.67 0 01-.436.133 8.594 8.594 0 01-.932.228l-.001-.08c-.015-1.52-.329-2.512-1.303-3.247-.796-.594-2.01-.801-2.98-.511-.01-.92-.098-1.9-.259-3.135-.038-.295-.069-.514-.145-1.065-.139-.997-.2-1.463-.26-2.029-.055-.519-.1-.977-.181-1.87-.09-.968-.12-1.298-.17-1.79-.22-2.153-.478-3.77-.885-5.242 1.745-.109 2.82-.542 3.512-1.737.486-.835.498-1.986.098-2.884 4.303-.322 8.154-1.075 15.878-2.878 3.759-.878 5.35-1.236 7.395-1.644.61-.121 1.2-.234 1.778-.339 1.3-.234 2.348-.439 4.658-.902l.023-.004c3.776-.757 5.456-1.071 7.564-1.384.961-.14 1.736-.264 3.447-.546l.646-.107c.83-.136 1.436-.233 2.033-.325z" fill="#0B7C68"/>
  <path fill-rule="evenodd" clip-rule="evenodd" d="M65.993 64.423c.319.067.638.116.96.148 2.541.246 5.37-.616 7.695-2.204 2.595-1.782 4.283-4.666 4.419-7.708a12.498 12.498 0 00-1.374-6.608c-1.236-2.347-4.368-3.859-7.787-4.302-5.416-.703-11.324 3.86-12.3 9.349-.697 3.885 1.063 7.748 4.455 9.964.98.64 1.92.929 3.932 1.361zm11.887-9.832c-.12 2.672-1.61 5.217-3.903 6.792-2.106 1.44-4.665 2.22-6.91 2.002a7.682 7.682 0 01-.827-.127c-1.866-.401-2.715-.663-3.53-1.195-3-1.959-4.545-5.35-3.935-8.755.868-4.876 6.204-8.997 10.978-8.377 3.075.399 5.874 1.75 6.887 3.673a11.316 11.316 0 011.24 5.987z" fill="#0B7C68"/>
  <path d="M48.5 60.06a.594.594 0 00.906.487c.34-.21.52-.345 1.22-.896.502-.397.88-.668 1.203-.847a6.838 6.838 0 01-.16.589c-.196.615.589 1.06 1.013.574.078-.088.162-.142.389-.252.168-.08.208-.1.294-.148.05-.028.097-.056.144-.086a.597.597 0 00-.4-1.093 7.84 7.84 0 00.045-.408.595.595 0 00-.665-.641c-.735.092-1.31.394-2.216 1.08l.002-.004c.36-.67.507-.981.622-1.398a.595.595 0 00-.846-.688c-2.697 1.403-4.845 2.708-5.425 3.555a.597.597 0 00.154.828c.27.186.64.118.826-.154.318-.465 1.69-1.359 3.419-2.324-.378.734-.545 1.244-.524 1.827zM85.878 49.03a62.868 62.868 0 00-2.7 1.056.597.597 0 00.462 1.098c.763-.323 1.57-.637 2.65-1.037.349-.13 1.532-.564 1.656-.61l-.002.001a.597.597 0 00.355-.765.594.594 0 00-.761-.355c-.127.047-1.31.481-1.66.611zM88.086 51.6a.597.597 0 00-.01-.844c-.317-.31-.596-.266-1.277-.043-.296.097-.37.124-1.28.478l-.146.057c-.82.316-1.303.473-1.567.497a.596.596 0 00.109 1.187c.419-.039.945-.21 1.885-.572l.148-.057c.879-.342.955-.37 1.22-.457a2.9 2.9 0 01.325-.092c.205.06.434.008.593-.155zM85.11 54.643a12.955 12.955 0 001.51-.487.596.596 0 00-.432-1.11c-.448.176-.906.324-1.372.443a.596.596 0 00.294 1.154z" fill="#0B7C68"/>
  <path fill-rule="evenodd" clip-rule="evenodd" d="M65.89 54.618c-.781.513-1.723.163-2.208-.815-.526-1.06-.175-2.143.91-2.505a1.78 1.78 0 01.092-.594c.178-.547.59-1.086 1.081-1.381 1.135-.672 2.19-.323 3.228.709.658.652 1.274 2.115 1.43 3.413.204 1.703-.375 2.987-1.876 3.195-.929.13-1.674-.311-2.207-1.128a4.79 4.79 0 01-.45-.894zm.483-4.271c-.234.14-.467.445-.559.726-.019.06-.029.11-.033.147.597.24.423 1.172-.255 1.145-.864-.035-1.062.339-.78.907.26.523.534.55.862-.14a.594.594 0 011.117.125c.32 1.439.889 2.31 1.659 2.203.71-.098.996-.733.859-1.872-.126-1.05-.638-2.265-1.086-2.71-.699-.694-1.218-.866-1.784-.531z" fill="#0B7C68"/>
  <path d="M64.618 62.814c.893-2.627 2.642-5.274 4.248-5.778.813-.257 2.185-.144 3.223.223.127.045 1.51.497 1.95.658 1.139.417 1.891.83 2.239 1.27a.593.593 0 00.835.098c.257-.204.3-.58.097-.837-.526-.665-1.428-1.16-2.763-1.65-.463-.17-1.857-.626-1.963-.663-1.262-.445-2.886-.58-3.974-.236-2.085.654-4.01 3.568-5.017 6.531a.594.594 0 101.125.384z" fill="#0B7C68"/>
  <path d="M70.361 63.528a.594.594 0 00.71-.168c.124-.156.265-.306.436-.472.117-.113.582-.536.69-.641.794-.768 1.086-1.51.8-2.542a1.49 1.49 0 00-.064-2.607.596.596 0 00-.549 1.057.299.299 0 01-.146.562.596.596 0 00-.56.838c.396.89.302 1.246-.306 1.835-.091.088-.556.51-.69.64-.072.07-.14.139-.206.207-.732-.467-1.273-1.224-1.222-1.849a.595.595 0 00-.82-.599c-1.078.447-1.591-.194-1.093-1.212a.594.594 0 10-1.067-.525c-.84 1.718.158 3.297 1.872 3.048.271 1.02 1.165 1.947 2.215 2.428z" fill="#0B7C68"/>
  <path d="M68.63 57.296c1.111.936 1.61 2.665 1.657 4.949a.595.595 0 101.188-.026c-.054-2.596-.637-4.62-2.08-5.835a.596.596 0 00-.764.912zM71.316 37.53c2.433.33 3.547.607 4.224 1.188.25.214.625.185.838-.065a.597.597 0 00-.065-.84c-.928-.797-2.14-1.098-4.838-1.464a.595.595 0 00-.16 1.181zM43.82 44.268c.13-1.362.42-2.704.862-3.998a.594.594 0 10-1.124-.387 18.632 18.632 0 00-.92 4.272.595.595 0 101.183.113zM48.472 40.617c.322.113.627.157.925.107 1.117-.183 2.061-1.877 1.983-3.163.235.027.502.073.81.137.153.032.305.066.53.118.73.168.886.202 1.193.251.645.103 1.18.214 2.299.466l.05.011c1.196.27 1.736.382 2.427.491.522.086.968.18 1.825.377.423.098.467.108.638.146 1.163.26 1.97.39 2.847.426a.595.595 0 00.048-1.19c-.792-.033-1.537-.153-2.636-.4a98.444 98.444 0 01-.632-.143 28.49 28.49 0 00-1.902-.392c-.66-.105-1.183-.214-2.354-.477l-.05-.012c-1.143-.257-1.696-.372-2.374-.48-.268-.043-.416-.075-1.113-.235-.232-.053-.391-.089-.553-.123-.806-.169-1.4-.232-1.942-.166a.596.596 0 00-.37.99c.354.395-.353 2.1-.917 2.192-.077.013-.19-.003-.338-.055a3.44 3.44 0 01-.563-.276c.034.02-.43-.255-.548-.317a.594.594 0 00-.819.283c-.167.374-.217.484-.3.675-.27.623-.47 1.133-.627 1.631-.182.58-.294 1.108-.327 1.601a.595.595 0 101.186.08c.025-.388.118-.827.274-1.322.142-.451.328-.925.584-1.514l.026-.06c.27.154.491.262.72.343zM94.82 43.222c.278.011.492.007 1.137-.016.397-.015.613-.02.854-.021 1.26-.005 1.944.186 2.118.578.093.209.09.663-.013 1.319-.028.175-.06.358-.106.591l-.108.557a7.345 7.345 0 00-.081.497 392.91 392.91 0 01-.254 2.094l-.022.175c-.128 1.044-.2 1.632-.274 2.276-.044.369-.085.753-.143 1.32l-.05.495-.05.5c-.04.382-.075.703-.11 1.01-.229 1.968-.505 3.339-.94 4.39a.593.593 0 101.098.457c.488-1.18.782-2.64 1.022-4.71a78.587 78.587 0 00.163-1.527l.05-.494c.056-.56.097-.939.14-1.301.075-.643.146-1.229.274-2.27l.021-.175c.13-1.06.186-1.518.255-2.1.012-.102.034-.234.068-.416.02-.108.101-.519.108-.55.047-.247.083-.442.113-.634.138-.875.142-1.5-.074-1.988-.444-1-1.493-1.292-3.21-1.286-.257.001-.482.007-.891.022-.61.021-.813.026-1.049.017a.595.595 0 00-.046 1.19zM92.073 68.211l-.279-.077c-1.033-.288-1.518-.402-2.144-.476-.58-.069-1.044-.094-2.084-.126l-.095-.003c-1.05-.034-1.578-.066-2.167-.152l-.786-.111c-.327-.048-.598-.09-.857-.139-.855-.156-1.476-.347-1.842-.582a.594.594 0 00-.82.179.597.597 0 00.178.823c.53.342 1.273.57 2.27.753.275.05.56.096.9.145l.786.111c.647.094 1.208.129 2.3.164l.096.003c1.006.031 1.447.055 1.982.118.546.065.99.17 1.966.44l.281.079c1.248.344 2 .478 2.87.44a.595.595 0 00.566-.54c.071-.785.244-1.572.584-2.791l.144-.51c.4-1.41.556-2.027.681-2.814a.596.596 0 10-1.173-.188c-.116.724-.264 1.312-.651 2.675l-.145.515c-.284 1.018-.46 1.76-.56 2.46-.546-.032-1.133-.157-2.001-.396zM90.188 74.6c-.988-.082-1.764-.163-3.89-.397l-.344-.038c-1.996-.219-3.146-.332-4.273-.409-1.245-.085-2.704-.308-5.822-.848l-.142-.024c-3.979-.69-5.434-.906-6.676-.917a.595.595 0 00-.01 1.192c1.145.01 2.598.225 6.484.899l.141.024c3.165.549 4.641.774 5.944.863 1.106.076 2.244.188 4.225.405l.343.038c2.138.235 2.919.316 3.922.4a.594.594 0 00.098-1.188z" fill="#0B7C68"/>
  <path d="M98.705 50.379c1.09.022 2.289.178 2.55.375.294.221.419.863.361 1.915-.014.256-.036.509-.074.89-.073.727-.075.757-.087.993l-.03.586a113.221 113.221 0 01-.245 3.942 47.647 47.647 0 01-.608 4.708.595.595 0 101.17.213c.286-1.58.481-3.114.623-4.822.093-1.12.155-2.154.247-3.98l.03-.587c.01-.206.013-.239.083-.934.039-.398.062-.665.078-.943.079-1.433-.107-2.387-.835-2.934-.554-.418-1.834-.584-3.238-.614a.595.595 0 00-.025 1.192zM51.834 74.557c-.108-.43-.167-.745-.16-.807a.595.595 0 10-1.183-.122c-.027.262.04.621.19 1.22l.047.186.127.484c.07.269.318.453.596.444.61-.022 1.084-.11 2.203-.371l.442-.102c.245-.055.45-.097.645-.132 1.045-.187 1.897-.314 3.811-.583l.137-.02c2.379-.333 3.537-.515 4.892-.794 1.35-.279 2.449-.432 4.939-.725l.043-.005c2.717-.32 3.96-.5 5.476-.84 2.342-.532 4.333-1.039 8.312-2.09a25.958 25.958 0 001.02-.293l.174-.052.173-.052c.533-.159.888-.259 1.247-.348.802-.2 1.452-.295 2.019-.278a.595.595 0 00.034-1.191c-.693-.02-1.442.089-2.34.312-.38.095-.75.2-1.299.363l-.175.052-.172.052c-.139.042-.24.072-.34.1-.25.075-.455.133-.645.183-3.965 1.048-5.947 1.552-8.27 2.08-1.46.328-2.675.504-5.352.819l-.044.005c-2.524.296-3.646.453-5.04.74-1.321.273-2.463.452-4.817.783l-.137.019c-1.928.27-2.79.4-3.855.59-.213.038-.434.084-.695.142l-.452.104c-.718.168-1.145.258-1.507.304l-.044-.177zM96.17 37.159a133.899 133.899 0 01.702 2.673c.319 1.278.537 2.277.618 2.87a.595.595 0 101.178-.162c-.089-.649-.314-1.678-.642-2.997l-.147-.582a131.818 131.818 0 00-.748-2.788l-.07-.251a.594.594 0 00-.64-.43l-2.448.284a.596.596 0 00.136 1.184l1.945-.225c.036.133.076.274.116.424z" fill="#0B7C68"/>
  <path d="M15.397 166.071c3.383 1.122 13.841 1.021 15.016 1.006 4.777-.063 10.061-.085 15.659-.107 8.246-.035 16.779-.07 23.936-.243l2.482-.057c6.586-.148 13.395-.315 19.824-1.135 7.745-1.005 8.213-6.417 8.628-11.192.049-.561.098-1.126.157-1.687.332-3.111.633-11.943.16-15.381l-.062-.464c-.357-2.679-1.095-8.252-3.47-10.83-2.713-2.947-7.689-3.448-11.73-3.556l-1.09-.025a677.026 677.026 0 01-3.214 13.037l-.178.879c.123 1.034.228 2.071.335 3.092l.117 1.135c.274 2.616.557 5.321.661 8 .084 2.153.099 4.233-.64 5.989-.716 1.724-2.18 2.206-4.306 2.471a28.26 28.26 0 01-3.239.154c-.56 0-1.116 0-1.666-.019-1.154 0-2.344-.034-3.523.023-6.133.315-12.367.264-18.402.23l-2.91-.016c-1.107 0-2.257.038-3.383.082-3.116.12-6.337.246-9.228-.631a.542.542 0 00-.169-.028c-5.032-.019-9.335-.362-10.999-4.394-.723-1.756-.252-6.934 1.23-13.484 1.483-6.55 3.11-10.809 3.667-11.253 1.178-.731 2.808-.715 4.383-.703.615 0 1.2 0 1.76-.028.187-1.062.408-2.355.633-3.704l-4.14.098-3.498.082c-.464 0-.965.019-1.494.028-3.488.051-8.271.117-11.073 1.577-4.986 2.568-5.537 8.841-5.94 13.421-.049.554-.095 1.081-.147 1.576-.517 4.917-.145 13.761.495 19.958.289 2.796 2.294 5.075 5.358 6.099z" fill="#1A4E66"/>
  <path d="M13.463 152.894c.255 1.566.89 3.739 3.441 4.741 2.551 1.003 12.605.981 15.53.94 10.849-.135 25.812-.019 36.636-.266 6.651-.154 15.025-.15 21.58-.94 7.36-.902 6.875-4.876 7.4-9.543a60.11 60.11 0 00.202-9.615c-.135-1.86-.886-7.203-3.066-9.436-2.34-2.412-6.774-2.819-10.257-2.894l-.852-.019c-.74 3.038-1.534 6.314-2.426 9.709L78.8 149.665c-5.299 2.994-13.556 4.92-22.841 4.92-10.327 0-19.388-2.383-24.509-5.97l3.398-18.804c0-.04.254-1.381.582-3.263l-4.66.103c-3.192.075-9.757-.128-12.572 1.253-4.78 2.336-4.796 8.65-5.213 12.493-.475 4.216-.134 8.757.479 12.497z" fill="#fff"/>
  <path d="M85.455 141.674c0-2.398-1.32-4.685-3.8-6.686-.027.117-.058.237-.089.354l-3.035 15.065c4.484-2.417 6.924-5.47 6.924-8.733zM31.38 149.149l3.095-16.679c-5.286 2.476-8.182 5.716-8.182 9.197 0 2.725 1.78 5.304 5.087 7.482zM11.908 159.646c1.017 1.681 3.887 2.374 8.498 2.577 1.308.058 2.378.07 4.512.069 1.032 0 1.44.001 1.895.01 2.96.053 6.38.069 11.177.062 1.044-.001 1.942-.003 3.71-.008 3.857-.01 5.373-.012 7.223-.008 11.405.02 23.603-.258 37.11-.802 3.697-.148 7.235-.729 9.74-1.764a.621.621 0 00.335-.808.612.612 0 00-.8-.338c-2.348.97-5.758 1.529-9.323 1.672-13.492.544-25.674.822-37.06.802-1.852-.005-3.369-.002-7.228.008l-3.708.008c-4.79.007-8.203-.009-11.154-.063a99.54 99.54 0 00-1.917-.009c-2.117.001-3.175-.011-4.459-.068-4.157-.183-6.799-.821-7.503-1.985a.611.611 0 00-.845-.206.622.622 0 00-.204.851zM79.452 163.311c-2.878.163-6.773.292-8.464.237-.342-.011-.628.276-.638.641-.01.365.259.67.6.681 1.737.056 5.657-.073 8.568-.239.342-.019.604-.33.586-.695-.018-.365-.31-.645-.652-.625z" fill="#0D323F"/>
  <path d="M81.584 137.201c1.54 1.523 2.329 3.143 2.329 4.785 0 6.59-12.66 12.196-28.354 12.196-15.694 0-28.353-5.606-28.353-12.196 0-2.398 1.693-4.751 4.874-6.777a.64.64 0 00.198-.867.605.605 0 00-.845-.204c-3.506 2.233-5.454 4.941-5.454 7.848 0 7.576 13.278 13.456 29.58 13.456s29.58-5.88 29.58-13.456c0-2.016-.94-3.948-2.703-5.693a.602.602 0 00-.868.017.642.642 0 00.016.891z" fill="#0D323F"/>
</svg>
