<svg width="109" height="170" fill="none" xmlns="http://www.w3.org/2000/svg">
  <g clip-path="url(#clip0)">
    <path d="M8.086 56.897c4.13-3.477 10.46-3.548 15.735-.854.38.195.772.403 1.191.63 1.377-1.91 4.506-2.323 7.227-1.604 1.09.29 2.393.771 3.976 1.447.438.187.896.388 1.393.61.659.296 2.824 1.29 3.209 1.463 1.785.8 3.597 1.628 6.2 2.83.25.117.514.238.815.377 3.73 1.726 3.87 1.79 5.246 2.42 3.995 1.828 9.675 4.72 13.666 6.95a470 470 0 015.421 3.118l.096.056a1716.84 1716.84 0 015.88 3.435l.245.144 2.326-1.244a669.63 669.63 0 013.678-1.95c2.46-1.292 4.482-2.321 6.155-3.122 4.134-1.98 5.819-2.652 8.034-2.976 1.407-.206 2.747-.154 4.069.183 3.098.788 4.239 4.46 2.391 7.608-1.096 1.866-2.472 3.395-5.217 6.043l-1.043 1.005c-.393.38-.712.694-1.013.994-.29.29-.556.563-.805.825-.25.264-1.662 1.746-2.07 2.178-3.86 4.098-5.854 6.865-6.79 10.033-1.48 5.018-1.84 10.085-1.84 19.706 0 2.601-.063 8.828-.173 17.581l-.04 3.161c-.048 3.623-.098 23.09-.148 26.711l-.049 3.466-.013.957-.005.336a.63.63 0 01-.631.62H30.516a.63.63 0 01-.631-.638l.019-1.344.05-3.542c.053-3.665.106-23.07.155-26.49l.002-.097.193-13.354c.044-2.66.13-5.449.26-8.599.1-2.421.196-4.436.407-8.664.253-5.079.357-7.286.461-9.967l-.332-.297a423.112 423.112 0 01-6.4-5.85c-2.49-2.335-4.326-4.148-5.282-5.255a77.552 77.552 0 00-2.08-2.302c-.372-.397-.762-.81-1.254-1.327l-1.276-1.337c-4.222-4.432-6.353-7.021-8.07-10.212-1.048-1.939-.88-4.304.455-5.763-2.073-2.534-1.517-6.07.893-8.1z" fill="#FFBF80"/>
    <path d="M63.075 103.573a24.53 24.53 0 01-.867-.067 29.047 29.047 0 00-.578-.047c-.741-.053-1.26-.041-1.708.059a.63.63 0 11-.274-1.229c.593-.132 1.218-.147 2.07-.086.171.012.319.024.6.049.444.038.609.052.827.064a.63.63 0 11-.07 1.257zM64.948 79.756c-2.296-.549-5.12-.052-7.892 1.586-2.53 1.494-4.004 3.579-5.137 6.563a.631.631 0 01-1.18-.446c1.226-3.228 2.86-5.538 5.674-7.2 3.045-1.8 6.203-2.356 8.829-1.727a.63.63 0 11-.294 1.224zM48.663 68.881c-7.288 0-15.211 2.433-21.296 6.487a.632.632 0 01-.875-.174.629.629 0 01.174-.874c6.29-4.19 14.458-6.698 21.997-6.698a.63.63 0 110 1.26z" fill="#484882"/>
    <path d="M35.79 70.942a109.81 109.81 0 01-1.633-1.04c-3.258-2.113-12.42-8.698-12.85-8.991-4.203-2.864-7.094-4.279-9.818-4.614a.63.63 0 11.155-1.25c2.975.367 6.017 1.855 10.374 4.824.454.309 9.6 6.882 12.826 8.975.542.351 1.08.693 1.616 1.029a.629.629 0 11-.67 1.067zM43.275 68.99l-1.003-.72c-4.081-2.93-5.83-4.164-8.21-5.768-4.088-2.753-5.645-3.727-8.55-5.25a.628.628 0 01-.265-.85.632.632 0 01.852-.265c2.956 1.55 4.546 2.544 8.67 5.321 2.393 1.613 4.148 2.853 8.24 5.79l1.003.719a.629.629 0 01.144.879.632.632 0 01-.88.143zM8.211 64.79a.629.629 0 11-.64-1.085 7.55 7.55 0 013.467-1.032h.04c.98.017 2.039.348 3.222.953.815.415 1.646.934 2.685 1.65.032.022 1.907 1.339 2.363 1.636 4.809 3.14 7.025 4.56 9.818 6.257a.629.629 0 11-.657 1.076c-2.808-1.707-5.032-3.133-9.852-6.279-.477-.311-2.373-1.643-2.388-1.654-.999-.687-1.788-1.18-2.544-1.566-1.018-.52-1.897-.796-2.648-.814a6.277 6.277 0 00-2.866.858z" fill="#484882"/>
    <path d="M1.801 156.746c.93-3.06 2.177-5.446 5.231-7.143 2.26-1.259 4.316-1.451 6.503-.551a13.352 13.352 0 01-1.53-6.86c.141-3.919 1.785-7.533 4.4-9.664 5.289-4.313 9.239-1.625 13.047 1.051.028-1.373-.054-2.858-.13-4.2a34.43 34.43 0 01-.094-3.463c.13-2.433.06-4.948 0-7.385-.066-2.487-.136-5.059 0-7.556a.632.632 0 01.962-.5c2.127 1.3 4.326 2.647 7.064 3.293 6.992 1.646 15.034 2.235 24.588 1.797 1.577-.069 3.155-.126 4.732-.182 3.786-.136 7.68-.274 11.484-.63 6.907-.658 7.986-1.659 8.153-1.952a.632.632 0 011.177.258c.142 1.603.99 11.46 1.139 18.763 1.678-.355 3.492-.283 5.08.806 4.363 2.994 3.366 7.808 2.489 12.055-.067.314-.133.629-.193.944a5.55 5.55 0 01.502-.315c2.395-1.322 6.285-1.398 8.001-.157 3.174 2.295 3.859 7.766 3.994 9.388.297 3.62-.946 8.465-3.133 11.578-1.079 1.543-3.423 3.892-5.249 3.892H3.189c-1.716-2.793-2.631-9.174-1.388-13.267z" fill="#2AC28B"/>
    <path fill-rule="evenodd" clip-rule="evenodd" d="M33.39 113.176c0 1.723-.035 3.104-.137 6.165-.152 4.569-.182 6.576-.078 9.09.076 1.831.23 3.532.48 5.167a.631.631 0 01-1.248.189 48.567 48.567 0 01-.493-5.304c-.106-2.555-.076-4.583.078-9.184.102-3.047.136-4.418.136-6.123a.63.63 0 011.262 0zm51.953 1.853c.223 1.88.326 3.753.415 6.816l.027.98c.05 1.841.078 2.671.126 3.676.053 1.11.041 3.406-.018 6.847-.011.662-.024 1.358-.04 2.147l-.037 1.837v.023l-.02.972c-.01.476-.017.862-.022 1.18.65-.325 1.067-.676 1.425-1.174.796-1.109 1.094-2.931.814-5.862a.63.63 0 011.256-.12c.307 3.206-.038 5.315-1.045 6.716-.815 1.134-1.788 1.655-3.844 2.331l-.197.064-.013.005-.003.001-.376.123-1.02.334-.117.038-.01.003-2.094.688c-.844.277-1.543.503-2.214.717-5.063 1.613-8.794 2.559-12.713 3.1-10.705 1.484-21.872-.374-32.143-5.146-1.958-.909-2.736-1.379-3.518-2.319-1.001-1.204-1.484-2.874-1.484-5.313a.63.63 0 011.262 0c0 2.169.402 3.557 1.194 4.51.62.746 1.29 1.15 3.079 1.98 1.029.478 2.067.927 3.114 1.345-.123-1.324-.146-2.873-.096-4.818.019-.706.043-1.361.087-2.462.059-1.434.07-1.711.087-2.296a.63.63 0 011.261.037c-.017.592-.028.87-.087 2.31a157.855 157.855 0 00-.086 2.444c-.057 2.186-.02 3.847.15 5.225a.676.676 0 01.005.07c5.034 1.878 10.23 3.056 15.43 3.487v-20.534a.63.63 0 011.263 0v20.624a52.41 52.41 0 0012.514-.743.682.682 0 01-.001-.035v-4.895a.63.63 0 011.262 0v4.686a64.39 64.39 0 003.206-.749.624.624 0 01-.09-.323c0-3.119-.008-4.803-.047-6.825-.059-2.978-.175-5.364-.368-7.08a.63.63 0 011.254-.14c.198 1.763.316 4.181.375 7.196.04 2.033.049 3.722.049 6.849v.009c1.44-.396 2.973-.857 4.657-1.394.667-.212 1.363-.438 2.205-.713l2.105-.692.114-.037 1.02-.334.38-.124.209-.069c.183-.06.356-.119.52-.176a934.72 934.72 0 01.05-2.712v-.019l.036-1.824c.016-.789.029-1.484.04-2.145.059-3.408.07-5.694.02-6.766a170.788 170.788 0 01-.127-3.7l-.028-.978c-.087-3.028-.189-4.872-.406-6.705a.63.63 0 111.253-.148zm-3.391 9.833c-.035-3.325-.128-6.056-.304-8.412a.629.629 0 00-.677-.58.63.63 0 00-.582.674c.175 2.324.266 5.03.3 8.331.02 1.753.022 3.196.016 6.202l-.002 2.105a.63.63 0 001.262 0l.002-2.103c.006-3.011.003-4.458-.015-6.217zm-45.262-1.078c-.05-4.272-.022-6.572.166-9.123a.63.63 0 00-1.259-.092c-.19 2.597-.218 4.923-.169 9.23a.63.63 0 001.262-.015z" fill="#1CB377"/>
    <path d="M57.106 10.784c-.287-.255-.631-.506-.947-.752-.728-.557-1.482-1.133-1.911-1.864a3.305 3.305 0 01-.366-.944 29.898 29.898 0 013.259.082 26.38 26.38 0 0115.5 6.576 1.338 1.338 0 01-.113.12c-2.054 1.967-4.06.759-5.68-.211a29.93 29.93 0 00-.911-.532 3.446 3.446 0 01-.997.576c-.085 1.234-.41 3.463-1.606 3.828a1.17 1.17 0 01-.338.05c-.864 0-1.577-.963-1.823-1.306-1.417-1.93-1.448-2.477-.978-4.675.042-.177.095-.351.157-.522.055-.141.097-.287.123-.435-1.381.718-2.561.724-3.369.01zM34.213 52.334a2.708 2.708 0 011.417-.602c.732-.132 1.706.23 2.741.611 1.212.447 2.581.945 2.931.356a.462.462 0 01.474-.23c1.669.233 2.76 1.32 3.65 2.317.208.23.379.457.546.674.328.492.758.909 1.262 1.221 1.013.592 1.158.526 1.694.287a6.3 6.3 0 011.205-.425c2.354-.567 5.881 1.961 6.402 4.036.066.264.126.566.174.89a28.85 28.85 0 01-4.007.114c-6.165-.268-12.854-3.734-17.29-8.021-.42-.4-.82-.809-1.199-1.228z" fill="#C1EAF7"/>
    <path d="M80.198 42.518c-2.43 9.702-10.664 16.335-20.038 18.4.029-1.227.647-3.107.915-3.462.432-.554.593-1.436.751-2.29.09-.595.235-1.18.435-1.75.145-.353.36-.674.631-.944.152-.15.281-.32.385-.507.15-.427.186-.886.104-1.331a4.943 4.943 0 010-1.105c.053-.28.152-.55.294-.797.095-.154.16-.325.19-.504a1.174 1.174 0 00-.36-.673 2.553 2.553 0 01-.493-.819c-.217-.69-.031-1.483.12-2.118l.041-.167a4.77 4.77 0 00.085-.721c.01-.222.031-.442.063-.661.247-1.556 2.26-1.836 3.471-1.647.463.102.895.312 1.262.61.212.168.445.306.694.41.333.1.683.134 1.029.1.605-.018 1.344-.04 1.893.763.214-.06.413-.274.71-.63.094-.113.186-.227.28-.315.603-.654.83-.692 1.603-.736h.126c1.158-.07 1.663-.655 2.455-1.688.127-.153.267-.296.416-.428.212-.192.499-.46.502-.63.003-.17 0-.15-.41-.248-.126-.032-.252-.06-.372-.101l-.467-.173c-.631-.243-1.004-.372-1.452-.186-.583.24-.675.268-1.148.202l-.29-.035a3.374 3.374 0 00-1.243.192 6.23 6.23 0 01-.837.192c-.212.04-.423.09-.63.151-.301.094-.611.159-.925.192a3.148 3.148 0 01-.909-.129 4.203 4.203 0 00-.347-.076 6.942 6.942 0 00-.82-.044 4.836 4.836 0 01-1.52-.176 2.234 2.234 0 01-1.442-1.51c-.376-1.238.132-2.856.798-3.747.085-.114.164-.211.24-.315.208-.224.365-.492.457-.784a1.465 1.465 0 00-.114-1.159c-.053-.138-.113-.292-.173-.468-.227-.687 0-1.26.19-1.785.16-.425.315-.794.189-1.178a5.493 5.493 0 00-.632-1.237c-.495-.797-1.053-1.697-.895-2.635.249-1.47 2.088-2.232 2.867-2.49.212-.073.42-.136.631-.202a10.664 10.664 0 001.534-.56c.094-.044.198-.088.315-.13a1.97 1.97 0 00.496-.251c.059-.06.113-.123.16-.192.148-.236.362-.423.616-.538.273-.077.564-.063.83.04.077.027.158.044.24.054.36-.06.705-.198 1.009-.403.04-.028.151-.123.233-.195a1.79 1.79 0 01.631-.431c.246-.067.5-.103.754-.107.247.012.49-.059.691-.202l.038-.025.344-.23c.507.699.97 1.43 1.382 2.188 3.808 7.115 4.326 14.74 2.417 22.37zM34.217 36.993c-.054-.479-.108-.976-.19-1.445l-.094-.507a8.16 8.16 0 01-.209-1.675c.035-.82.15-1.633.344-2.43.073-.346.149-.705.205-1.055.246-1.486.464-2.452 1.773-3.538a3.159 3.159 0 011.894-.756c.301-.03.6-.08.896-.154 1.142-.29 1.312-.564 1.331-.63a1.81 1.81 0 00-.211-.55 6.418 6.418 0 00-.843-.098 9.269 9.269 0 01-.763-.082 5.29 5.29 0 00-1.91-.085c-.731.151-1.261.04-1.602-.315-.63-.695-.233-1.977.12-3.107.06-.192.12-.378.167-.545-.334.166-.635.39-.89.662l-.157.144c-.451.411-.991.713-1.578.882l-.05.019c-.584.214-1.185.38-1.796.497a25.856 25.856 0 0116.747-14.05v.053c0 .138-.007.276-.022.413a2.115 2.115 0 000 .46c.058.108.133.207.221.292.179.18.32.394.414.63l.091.258c.208.585.278.784.83.973.354.108.716.192 1.082.252.566.078 1.12.234 1.644.462.922.475 1.908.815 2.928 1.01a.473.473 0 01.369.407c.05.438.501.885.946 1.32.38.338.7.74.947 1.186.315.683.63 2.012.151 2.871a1.44 1.44 0 01-1.145.75.467.467 0 01-.42-.17 3.821 3.821 0 01-.394-.63 3.465 3.465 0 00-.394-.63 2.393 2.393 0 00-.631.07c.094.944.205 1.7.946 2.266.206.134.44.218.685.246.579.049 1.104.361 1.423.846.549.891.34 2.09.224 2.566l-.063.27a2.676 2.676 0 01-.767 1.509 4.833 4.833 0 01-1.663 1.149.477.477 0 01-.523-.139 2.707 2.707 0 00-.947-.63 4.779 4.779 0 01-.868-.497 5.094 5.094 0 01-1.17-1.533l-.095-.16a3.556 3.556 0 01-.394-2.144c0-.12.025-.243.04-.36l-.217.212c-.653.63-1.199 1.13-1.726 1.09a.74.74 0 01-.542-.29c-.417-.545-.287-1.222-.174-1.817.019-.098.038-.192.054-.283l-.035.04a5.806 5.806 0 01-.6.69c-.12.133-.226.279-.315.434a2.44 2.44 0 01-.66.769c-.332.195-.728.25-1.1.15a1.962 1.962 0 01-1.209-.764 2.817 2.817 0 01-.274-.806 4.989 4.989 0 00-.155-.539 2.654 2.654 0 00-.562.76c-.18.497.08 1.038.814 1.696l.316.29c.366.352.82.793 1.196.853.15.007.3-.008.445-.044a1.599 1.599 0 011.22.123c.203.134.383.3.534.49.092.118.198.224.315.315.675.463 1.382.879 2.13 1.32l.344.204c.435-.28.975.1 1.41.406l.12.082c.152.082.316.154.483.233.58.197 1.08.576 1.426 1.08.331.548.3 1.24.271 1.851 0 .157-.016.315 0 .453 0 1.023-.505 2.333-1.006 3.174-.852 1.432-2.023 2.13-3.38 2.024a7.932 7.932 0 01-1.545-.337 4.906 4.906 0 00-1.77-.315c-.568.06-.71.224-1.095.658l-.117.132a5.645 5.645 0 01-.596.539 3.1 3.1 0 00-.631.645c-.237.381-.167.734-.019 1.329.05.21.104.428.136.654a3.81 3.81 0 01-.265 1.833 11.09 11.09 0 00-.12.384c-.24.977-.346 1.982-.316 2.987v.139c-.019.944-.038 1.845-.612 2.736-.057.085-.126.207-.205.346-.426.74-.757 1.278-1.167 1.448a1.418 1.418 0 01-.553.117c-1.17 0-1.892-1.675-2.35-2.733a6.979 6.979 0 00-.372-.787c-.373-.58-.789-1.137-1.23-1.728-1.07-1.426-2.178-2.903-2.588-4.707a18.985 18.985 0 01-.337-2.084zM32.084 38.485c.716.75 1.653 3.64 1.757 3.967a.538.538 0 01.022.17 1.134 1.134 0 000 .166c.044.42.16 1.53-1.05 1.89a.913.913 0 01-.263.04.947.947 0 01-.567-.195c-1.057-.755-1.692-3.957-1.72-4.93v-.113c-.022-.753-.041-1.404.476-1.621.518-.218.95.214 1.345.626z" fill="#59D89E"/>
    <path fill-rule="evenodd" clip-rule="evenodd" d="M32.444 21.73c-.584.215-1.185.381-1.796.498a26.157 26.157 0 00-2.511 10.118c-.357 8.894 1.423 14.979 5.995 20.016a2.709 2.709 0 011.416-.601c.726-.132 1.692.224 2.718.602l.024.008.008.003c1.21.447 2.573.95 2.923.353a.461.461 0 01.473-.23c1.67.233 2.76 1.32 3.65 2.318a9.34 9.34 0 01.546.673c.328.493.759.91 1.262 1.222 1.003.595 1.155.527 1.678.293l.017-.007c.386-.182.79-.325 1.205-.425 2.354-.566 5.88 1.961 6.401 4.036.067.261.127.576.174.891a29.047 29.047 0 003.47-.551c.029-1.24.647-3.12.916-3.463.428-.546.588-1.409.743-2.25l.007-.039a9.49 9.49 0 01.436-1.75c.145-.354.36-.675.63-.944.152-.15.282-.32.386-.507.15-.428.185-.886.104-1.332a4.943 4.943 0 010-1.105c.052-.28.151-.55.293-.796.095-.155.16-.326.19-.504a1.175 1.175 0 00-.36-.674 2.552 2.552 0 01-.492-.818c-.218-.69-.032-1.49.12-2.12l.04-.166c.047-.238.076-.479.086-.72.01-.222.03-.443.063-.662.25-1.555 2.262-1.835 3.47-1.646.463.102.895.311 1.262.61.212.167.446.305.695.41.333.1.682.133 1.028.1.612-.019 1.35-.04 1.893.762.215-.053.413-.267.71-.63.047-.05.094-.103.14-.157.047-.053.093-.107.14-.157.603-.655.83-.693 1.604-.737h.126c1.158-.07 1.662-.655 2.454-1.687.127-.154.267-.297.417-.429.211-.198.498-.494.502-.63.003-.134.003-.15-.41-.248a3.573 3.573 0 01-.372-.1l-.468-.174c-.628-.242-1.003-.371-1.451-.185-.584.239-.675.267-1.149.201l-.29-.035a3.374 3.374 0 00-1.243.192 6.235 6.235 0 01-.836.192c-.213.04-.424.09-.631.152-.301.094-.61.158-.925.192a3.145 3.145 0 01-.908-.13 4.2 4.2 0 00-.347-.075 6.918 6.918 0 00-.82-.044 4.83 4.83 0 01-1.521-.176 2.234 2.234 0 01-1.442-1.511c-.376-1.228.132-2.856.798-3.747.085-.126.164-.223.24-.315.209-.224.365-.492.457-.783a1.466 1.466 0 00-.113-1.159l-.004-.01a11.038 11.038 0 01-.17-.46c-.227-.685-.006-1.27.19-1.784.16-.425.3-.793.189-1.178a5.49 5.49 0 00-.631-1.237l-.005-.007c-.494-.795-1.049-1.686-.891-2.628.249-1.47 2.088-2.232 2.868-2.49.15-.05.299-.097.445-.143l.186-.058a10.645 10.645 0 001.533-.56l.094-.04.222-.09c.176-.06.343-.145.495-.252a1.44 1.44 0 00.16-.192c.148-.236.362-.423.616-.538.274-.077.565-.062.83.04.078.027.158.045.24.054.361-.06.705-.197 1.01-.403.04-.028.15-.122.233-.195a1.79 1.79 0 01.63-.431c.246-.066.5-.102.755-.107.246.013.49-.058.69-.202l.039-.025.344-.23a24.956 24.956 0 00-3.73-4.092 1.413 1.413 0 01-.113.12c-2.06 1.966-4.065.76-5.676-.21l-.003-.002-.007-.003c-.313-.19-.61-.372-.905-.529a3.456 3.456 0 01-.997.577c-.085 1.234-.41 3.469-1.606 3.828-.11.033-.223.05-.338.05-.863 0-1.55-.933-1.811-1.29l-.012-.016c-1.417-1.93-1.449-2.472-.978-4.675.042-.177.095-.352.157-.523a2.36 2.36 0 00.123-.434c-1.375.708-2.555.714-3.363 0-.236-.203-.496-.404-.751-.601l-.195-.152-.003-.002c-.728-.556-1.48-1.132-1.91-1.861a3.29 3.29 0 01-.365-.945 27.917 27.917 0 00-6.49.944v.054c0 .138-.008.275-.022.412a2.115 2.115 0 000 .46c.057.109.132.207.22.293.18.18.32.394.414.63l.091.258c.2.585.278.784.83.972.354.109.716.193 1.082.252.567.079 1.12.234 1.644.463.923.474 1.909.815 2.928 1.01a.473.473 0 01.37.407c.058.434.503.877.935 1.308l.01.01c.381.34.701.741.947 1.188.325.683.631 2.011.151 2.87a1.44 1.44 0 01-1.145.75.468.468 0 01-.42-.17 3.853 3.853 0 01-.394-.63 3.481 3.481 0 00-.394-.63 2.394 2.394 0 00-.631.07c.098.948.208 1.7.946 2.267.206.134.44.218.685.245.58.05 1.104.362 1.423.847.54.891.34 2.09.224 2.566-.01.047-.022.092-.032.135a6.639 6.639 0 00-.031.136 2.675 2.675 0 01-.767 1.508A4.834 4.834 0 0154.766 27a.477.477 0 01-.524-.139 2.706 2.706 0 00-.947-.63 4.783 4.783 0 01-.867-.497 5.086 5.086 0 01-1.17-1.533l-.096-.16a3.556 3.556 0 01-.394-2.145c.01-.12.025-.242.041-.358l-.218.21c-.653.643-1.199 1.13-1.725 1.09a.74.74 0 01-.543-.29c-.415-.554-.288-1.215-.175-1.808l.001-.008.011-.057c.016-.077.03-.153.043-.227l-.035.041a5.774 5.774 0 01-.6.69 2.46 2.46 0 00-.315.434c-.163.3-.388.561-.66.768-.331.196-.728.25-1.1.151a1.963 1.963 0 01-1.209-.765 2.82 2.82 0 01-.274-.806 4.989 4.989 0 00-.155-.538 2.66 2.66 0 00-.561.759c-.18.497.079 1.039.814 1.697l.315.29.011.01c.364.35.813.783 1.185.842.15.007.3-.007.445-.044a1.6 1.6 0 011.22.123c.203.134.383.3.534.491.092.118.198.223.316.315.664.456 1.36.866 2.095 1.299l.034.02.344.205c.435-.28.975.091 1.41.406l.12.082c.133.072.273.136.42.204l.063.029a2.84 2.84 0 011.426 1.08c.331.547.3 1.24.272 1.85v.454c0 1.023-.505 2.333-1.007 3.173-.855 1.433-2.022 2.132-3.379 2.024a7.909 7.909 0 01-1.546-.336 4.904 4.904 0 00-1.77-.315c-.565.06-.708.221-1.088.65l-.007.008-.117.132a5.643 5.643 0 01-.586.545c-.241.183-.454.4-.631.645-.237.384-.168.734-.02 1.329l.01.04c.048.198.097.402.126.614a3.81 3.81 0 01-.265 1.833c-.04.126-.082.252-.12.384a11.19 11.19 0 00-.315 2.987v.139c-.019.947-.038 1.845-.612 2.736-.054.08-.12.194-.193.324l-.012.022c-.426.74-.757 1.278-1.168 1.448a1.414 1.414 0 01-.552.117c-1.17 0-1.896-1.675-2.35-2.733a6.981 6.981 0 00-.373-.787 30.177 30.177 0 00-1.217-1.71l-.013-.019c-1.07-1.426-2.177-2.902-2.587-4.706a19.041 19.041 0 01-.316-2.084l-.01-.09c-.05-.45-.102-.916-.179-1.355l-.095-.507a8.168 8.168 0 01-.208-1.675c.035-.82.15-1.633.344-2.43l.006-.03c.071-.337.144-.686.2-1.025.245-1.486.463-2.452 1.772-3.538a3.159 3.159 0 011.893-.756c.302-.03.602-.081.896-.154 1.142-.315 1.313-.58 1.332-.63a1.805 1.805 0 00-.212-.55 6.412 6.412 0 00-.842-.098 9.235 9.235 0 01-.764-.082 5.3 5.3 0 00-1.908-.085c-.732.164-1.269.053-1.603-.315-.634-.696-.234-1.977.12-3.107l.04-.131c.047-.145.09-.285.127-.414-.334.166-.635.39-.89.661l-.157.145c-.452.411-.991.713-1.578.882l-.05.019zm-2.171 17.876v-.114c-.022-.752.012-1.441.486-1.624.473-.183.94.217 1.334.63.691.722 1.588 3.45 1.743 3.924.006.017.01.031.015.042a.534.534 0 01.022.17 1.133 1.133 0 000 .167c.044.406.16 1.517-1.05 1.889a.91.91 0 01-.263.04.947.947 0 01-.568-.194c-1.056-.756-1.69-3.958-1.72-4.93z" fill="#4565DB"/>
    <path d="M89.065 11.722c-1.652 1.486-6.413 1.653-8.605 1.648a1.027 1.027 0 01-1.018-1.156c.249-2.201.965-6.963 2.617-8.45a5.228 5.228 0 017.437.439c1.935 2.197 1.742 5.563-.431 7.519z" fill="#FB6B47"/>
  </g>
  <defs>
    <clipPath id="clip0">
      <path fill="#fff" transform="matrix(-1 0 0 1 108.925 0)" d="M0 0h108.849v170H0z"/>
    </clipPath>
  </defs>
</svg>
