<svg width="167" height="170" fill="none" xmlns="http://www.w3.org/2000/svg">
  <path d="M109.011 49.717a.613.613 0 01.393-.458 36.253 36.253 0 014.665-1.334l.254-.06c1.299-.306 1.747-.384 2.408-.343.932.058 1.715.458 2.375 1.273.947 1.173 1.575 2.732 1.894 4.477.184 1.03-.014 2.5-.535 3.333-.582.946-1.53 1.785-2.898 2.7a31.731 31.731 0 01-1.174.747l-.36.223c-.547.338-1.008.645-1.913 1.265l-.198.136c-1.375.941-2.1 1.407-3.002 1.892a24.133 24.133 0 00-4.066 2.62.612.612 0 01-.982-.598l3.139-15.873z" fill="#FFBF80"/>
  <path d="M112.958 85.995c4.027-.699 11.533-3.01 12.977-4.506 1.411-1.443 1.935-3.42 1.914-6.106-.006-.768-.046-1.456-.142-2.662l-.031-.383a38.56 38.56 0 00-1.435-7.477c-.839-2.948-2.146-3.62-5.754-3.424a77.166 77.166 0 00-11.089 1.544.612.612 0 00-.477.691l3.327 21.812c.051.34.372.57.71.511z" fill="#FFBF80"/>
  <path d="M126.25 71.43c-.928.122-2.002.251-3.286.396-.951.108-1.918.214-3.397.373-4.127.443-4.958.535-6.498.724a.613.613 0 10.15 1.216c1.531-.188 2.361-.279 6.48-.722 1.48-.16 2.449-.265 3.403-.373a180.78 180.78 0 003.309-.4.613.613 0 00-.161-1.215zM104.527 78.501c-2.259-2.815-4.518-4.877-6.88-6.099-3.31-1.716-7.117-2.822-10.62-2.95-4.18-.152-7.75 1.066-10.299 3.816-.557.603-1.001 1.36-1.42 2.378l-1.775-5.771a.613.613 0 00-.978-.29c-1.173.979-2.87 3.36-4.977 6.802a173.62 173.62 0 00-4.133 7.178 38.93 38.93 0 00-1.08 2.143c-.91 1.942-1.866 4.29-2.92 7.114-.5 1.34-1.004 2.736-1.599 4.42-.245.695-1.166 3.323-1.376 3.916-2.946 8.324-4.716 17.447-6.68 31.935-.385 2.846-.698 7.073-.948 12.32-.169 3.537-.299 14.982-.395 18.77a557.146 557.146 0 00-.104 4.958l-.001.093a.612.612 0 00.612.621l48.681.053a.614.614 0 00.613-.613c0-13.036.694-37.662 1.923-43.42.986-4.608 2.787-10.262 4.821-15.328.954-2.383 2.091-4.962 3.622-8.273.459-.071.916-.162 1.368-.27 2.181-.538 2.823-.707 3.945-1.07 4.35-1.408 6.961-3.407 7.426-6.646.379-2.634-.828-6.186-2.703-7.985-1.345-1.288-3.213-1.625-5.695-1.331-.74.087-1.461.216-2.505.433l-.753.158-.289.06c-1.905-3.084-3.27-5.113-4.881-7.122z" fill="#FFBF80"/>
  <path d="M105.276 90.954c-3.739.39-5.896 3.448-4.809 6.92.009.027.4 1.379.549 1.828.405 1.224.831 2.062 1.422 2.563 1.626 1.379 3.216 1.644 5.444 1.095a.613.613 0 00-.293-1.189c-1.871.46-3.058.262-4.358-.841-.368-.311-.714-.992-1.052-2.013-.14-.423-.527-1.759-.542-1.809-.851-2.714.779-5.023 3.767-5.335a.612.612 0 00-.128-1.219z" fill="#FFBF80"/>
  <path d="M102.256 92.743h-.002c-3.163.555-12.395 1.02-16.503.928a89.65 89.65 0 00-1.45-.017l-.371-.002c-4.022-.022-5.727-.165-7.6-.865-2.54-.949-4.176-2.839-4.883-5.965-.758-3.348-1.299-6.955-1.787-11.52-.182-1.703-.277-2.69-.607-6.238a700.93 700.93 0 00-.164-1.745c-.43-4.543-.82-9.558-1.376-17.441.052.747-.526-7.492-.68-9.636a824.6 824.6 0 00-.58-7.627c-.444-5.54-.51-11.08.231-13.302a7.51 7.51 0 016.205-5.134c7.317-1.097 16.513-1.927 21.392-1.826.436.01.822.013 1.66.019 2.47.016 3.62.046 5.076.165 4.607.377 7.825 1.56 9.674 4.1 1.009 1.387 1.605 3.39 1.978 6.092.093.676.171 1.383.247 2.203.028.314.056.63.09 1.04l.081.97c.023.265.042.486.062.692l.03.326c.615 6.725.633 6.92.887 9.431.174 1.712.345 3.295.521 4.807 1.601 13.547 2.561 24.975 2.92 36.058.163 5.002-.583 8.404-3.176 10.631-1.231 1.05-3.235 1.894-5.864 2.603-1.083.293-2.226.55-3.466.791-.466.09-.925.176-1.444.268l-1.101.194z" fill="#1A4E66"/>
  <path d="M100.895 90.185a88.576 88.576 0 01-10.938.533c-5.333-.116-9.82.594-11.27-5.804-1.289-5.698-1.763-13.076-2.318-18.915-.9-9.495-1.623-22.666-2.398-32.21-.209-2.574-.812-11.417.184-13.736.995-2.318 3.436-3.038 5.191-3.369 4.218-.815 9.358-1.449 14.182-1.348 4.39.092 11.57-.364 14.498 3.676 1.721 2.37 1.865 8.16 2.144 10.963.417 4.358.806 8.852 1.329 13.275 1.287 10.886 2.298 23.28 2.656 34.306.101 3.063-.092 7.002-2.698 9.239-2.436 2.08-8.458 3.133-10.562 3.39z" fill="#fff"/>
  <path d="M71.795 16.03c-1.5 1.004-1.982 3.56-1.914 7.597.017 1.024.066 2.036.156 3.443l.08 1.234c.027.44.046.766.059 1.052.12 2.617.303 5.653.583 9.84l.128 1.91.27 3.981c.1 1.487.177 2.653.245 3.718.63 10.026 1.583 20.722 2.86 32.572.35 3.275 1.081 6.342 2.187 8.486a.613.613 0 001.089-.562c-1.023-1.983-1.723-4.917-2.058-8.055-1.275-11.834-2.226-22.511-2.855-32.518a966.534 966.534 0 00-.246-3.723l-.27-3.983-.128-1.907c-.278-4.18-.46-7.209-.581-9.815a62.384 62.384 0 00-.06-1.073l-.08-1.235a70.51 70.51 0 01-.154-3.386c-.06-3.587.374-5.89 1.37-6.557a.612.612 0 10-.68-1.018z" fill="#0D323F"/>
  <path d="M63.967 103.029a.613.613 0 01-.517-.917c.795-1.389 1.7-2.86 2.82-4.604.46-.716.938-1.449 1.573-2.416a5644.653 5644.653 0 011.764-2.688 175.352 175.352 0 001.685-2.624c3.84-6.116 7.837-10.994 12.146-14.354 2.469-1.925 5.396-1.429 7.248 1.192.97 1.37 1.016 2.923.371 4.772-.253.727-.565 1.402-1.117 2.486-.713 1.399-.71 1.395-.914 1.857-.739 1.681-1.213 4.575-1.318 7.272-.044 1.153.09 2.466.383 3.961.227 1.16.533 2.366.963 3.86.09.312.183.63.3 1.027l.29.975a.613.613 0 01-.602.786l-25.075-.585z" fill="#FFBF80"/>
  <path d="M69.166 37.184a150.82 150.82 0 01-.262-5.089.613.613 0 00-1.224.042c.058 1.686.146 3.401.264 5.13a.612.612 0 101.222-.083zM69.787 45.62a118.8 118.8 0 01-.36-5.245.613.613 0 00-1.223.059c.09 1.882.21 3.64.363 5.298a.612.612 0 101.22-.113z" fill="#0D323F"/>
  <path d="M87.573 94.275c.2 2.1.696 3.748 1.689 6.129a186.517 186.517 0 00.276.659l.09.215c.145.343.25.596.349.843a.612.612 0 101.137-.456 57.294 57.294 0 00-.356-.862l-.09-.216-.092-.217-.183-.437c-.95-2.278-1.413-3.82-1.6-5.775a.613.613 0 10-1.22.117zM63.99 101.21c.778-1.36 1.667-2.805 2.77-4.52.459-.715.935-1.446 1.57-2.413l.891-1.355c.357-.543.624-.95.882-1.346a171.736 171.736 0 001.703-2.651.613.613 0 10-1.037-.652 173.94 173.94 0 01-1.691 2.633l-.88 1.343-.892 1.355c-.637.97-1.115 1.705-1.577 2.423a103.484 103.484 0 00-2.803 4.575.613.613 0 101.064.608zM89.434 119.112c.627.144 1.242.339 1.838.583a.613.613 0 00.464-1.134 13.085 13.085 0 00-2.028-.643.613.613 0 00-.274 1.194z" fill="#FFBF80"/>
  <path d="M163.973 144.184a2.528 2.528 0 00-1.44-.465c.42-.986.49-2.085.199-3.116a3.609 3.609 0 00-2.266-2.383c-1.814-.664-3.235.077-4.338 1.186a9.668 9.668 0 00-.986-5.551c-.101-.18-2.45-4.41-4.861-5.026-1.973-.508-3.596-.187-4.824.959-2.659 2.475-2.72 8.374-2.273 12.212a3.098 3.098 0 00-1.109-.171c-2.034.039-4.83 1.837-5.645 3.638-.307.68-.662 1.67-.163 2.451.5.781 1.584.919 3.063.897 1.241 0 2.485 0 3.676.028.919.018 1.869.034 2.821.034.953 0 1.838-.016 2.757-.062l1.225-.061c2.922-.141 6.564-.306 9.189-.723l.8-.122c2.619-.389 4.686-.699 4.668-2.656a1.31 1.31 0 00-.493-1.069zM32.347 116.911a2.129 2.129 0 00-.92-.202 2.338 2.338 0 00-.192-1.645c-.54-1.017-1.838-1.602-3.437-1.532-2.144.095-4.187 1.314-5.691 2.883l.11-.307c.558-1.553 1.13-3.161.546-5.265-.555-1.982-1.596-4.23-4.85-4.083-2.961.135-6.061 2.199-8.294 5.513-1.838 2.757-2.692 5.805-2.356 8.317a4.881 4.881 0 00-3.709.352c-1.225.612-1.963 1.596-1.911 2.49.021.407.233 1.158 1.393 1.59.58.182 1.186.264 1.792.242.677 0 1.403-.061 2.083-.117a19.618 19.618 0 011.461-.088h8.43c.86 0 1.737.015 2.665.033 4.107.077 8.766.163 12.62-1.243l.076-.034c1.25-.659 1.976-1.994 1.945-3.572-.03-1.504-.741-2.842-1.761-3.332zM110.455 142.181c7.128-7.416 12.488-26.955-2.757-30.376a34.686 34.686 0 00-3.011-.539 98.293 98.293 0 00-4.536 14.607c-.815 3.817-1.323 11.946-1.611 19.828-3.823 1.926-7.263 6.254-8.212 9.253-.34-2.864-4.454-6.61-9.471-5.789-5.018.821-10.396 7.011-10.749 10.868-1.259-6.641-9.434-11.867-15.6-13.028a14.105 14.105 0 00-5.765.147c.224-5.161.555-10.561 1.027-14.059.612-4.533 1.304-9.364 2.19-14.203h-.056c-3.498.275-7.35 1.102-10.34 2.931-3.774 2.313-7.918 6.065-9.735 10.2-2.024 4.613-3.896 11.401-2.144 17.784-4.334-2.499-9.256-.631-10.662 2.564-2.117 4.8.202 12.013 6.49 14.209C31.802 168.775 40.97 170 51.743 170h34.98c12.778 0 23.233-.76 27.441-1.804 9.254-2.304 15.521-6.846 17.72-15.211 2.769-10.577-9.443-21.16-21.429-10.804z" fill="#91D5DD"/>
  <path d="M80.78 148.557c-4.223.691-9.042 5.197-10.692 9.239-2.272-5.453-8.976-10.175-15.445-11.393-4.387-.826-9.12.529-12.817 3.393a.612.612 0 10.75.968c3.433-2.66 7.818-3.914 11.84-3.157 6.849 1.29 14.023 6.798 15.112 12.54.132.698 1.147.649 1.212-.059.352-3.853 5.776-9.591 10.237-10.322 2.168-.355 4.3.192 6.037 1.411 1.54 1.081 2.577 2.582 2.727 3.849.078.655.993.742 1.192.113.809-2.556 3.439-5.934 6.322-7.942 3.354-2.337 6.473-2.572 8.796-.237a.613.613 0 10.869-.865c-2.814-2.827-6.576-2.544-10.366.097-2.532 1.764-4.867 4.491-6.121 6.972-1.46-2.951-5.569-5.276-9.654-4.607z" fill="#1A4E66"/>
  <path d="M81.525 46.362c.735 4.915 3.863 8.46 8.723 9.075 7.031.886 12.765-1.298 14.769-7.01 1.61-4.588.894-9.98-1.982-13.598-1.517-1.9-4.341-3.363-7.405-3.743-3.556-.441-7.108.558-10.08 3.121-3.156 2.72-4.706 7.596-4.025 12.155z" fill="#FB6B47"/>
  <path fill-rule="evenodd" clip-rule="evenodd" d="M89.651 48.787l-.057.071a.613.613 0 01-.953-.77l.058-.072.163-.2.58-.72c.602-.742 1.203-1.486 1.763-2.182l.015-.017 1.22-1.515a980.326 980.326 0 01-4.185-3.308l-.326-.26-.115-.09a.613.613 0 01.763-.96l.115.092.326.259a1076.661 1076.661 0 004.188 3.31l.301-.378c.611-.774 1.246-1.53 2.18-2.613l.382-.441.38-.44c.306-.352.53-.613.749-.868a.613.613 0 01.931.796c-.22.257-.446.52-.753.875-.09.102-.19.22-.38.439-.155.178-.27.31-.381.44a74.054 74.054 0 00-2.147 2.571c-.082.104-.181.23-.299.377 2.513 1.968 4.229 3.281 4.742 3.616a.612.612 0 11-.67 1.026c-.558-.364-2.273-1.677-4.838-3.687-.351.438-.764.95-1.23 1.528l-.014.018a2115.608 2115.608 0 01-2.345 2.902l-.163.201z" fill="#fff"/>
  <path d="M111.507 8.06l3.158-6.737a.766.766 0 00-1.387-.65L110.12 7.41a.765.765 0 101.387.65zM123.949 4.833l-6.741 4.824a.766.766 0 00.891 1.245l6.742-4.824a.766.766 0 10-.892-1.245zM120.155 18.887l6.141-.12a.766.766 0 00-.03-1.531l-6.141.12a.766.766 0 10.03 1.53z" fill="#CCC9C6"/>
</svg>
