<?xml version="1.0" encoding="UTF-8"?>
<!DOCTYPE svg PUBLIC "-//W3C//DTD SVG 1.1//EN" "http://www.w3.org/Graphics/SVG/1.1/DTD/svg11.dtd">
<svg xmlns="http://www.w3.org/2000/svg" version="1.1" width="4167px" height="3333px" style="shape-rendering:geometricPrecision; text-rendering:geometricPrecision; image-rendering:optimizeQuality; fill-rule:evenodd; clip-rule:evenodd" xmlns:xlink="http://www.w3.org/1999/xlink">
<g><path style="opacity:0.997" fill="#42b4a6" d="M 3753.5,533.5 C 3753.82,535.048 3754.82,535.715 3756.5,535.5C 3759.25,540.125 3761.25,545.125 3762.5,550.5C 3763.55,550.351 3764.55,550.517 3765.5,551C 3765.17,551.333 3764.83,551.667 3764.5,552C 3765.42,552.374 3766.25,552.874 3767,553.5C 3768.56,556.957 3770.4,560.29 3772.5,563.5C 3773.45,565.045 3773.79,566.712 3773.5,568.5C 3774.5,568.5 3775.5,568.5 3776.5,568.5C 3779.3,575.431 3782.63,582.098 3786.5,588.5C 3790.27,595.582 3794.27,602.582 3798.5,609.5C 3797.13,611.62 3797.8,612.62 3800.5,612.5C 3802.31,619.609 3805.31,626.109 3809.5,632C 3808.06,634.078 3808.72,634.911 3811.5,634.5C 3813.51,640.512 3815.51,646.512 3817.5,652.5C 3818.5,652.5 3819.5,652.5 3820.5,652.5C 3823.17,661.177 3825.84,669.843 3828.5,678.5C 3829.5,678.5 3830.5,678.5 3831.5,678.5C 3833.24,685.996 3835.58,693.33 3838.5,700.5C 3839.19,702.555 3840.35,704.221 3842,705.5C 3845.15,715.445 3847.98,725.445 3850.5,735.5C 3851.5,735.5 3852.5,735.5 3853.5,735.5C 3858.61,757.555 3864.78,779.222 3872,800.5C 3872.33,803.167 3872.67,805.833 3873,808.5C 3873.67,809.833 3874.33,809.833 3875,808.5C 3877.56,823.306 3880.72,837.806 3884.5,852C 3882.78,854.53 3883.28,856.363 3886,857.5C 3888.39,875.851 3891.39,894.185 3895,912.5C 3895.79,916.423 3895.63,920.256 3894.5,924C 3895.03,924.692 3895.69,925.192 3896.5,925.5C 3904.33,1004.81 3904.49,1084.14 3897,1163.5C 3896.67,1163.17 3896.33,1162.83 3896,1162.5C 3895.69,1163.77 3895.19,1164.93 3894.5,1166C 3895.63,1169.74 3895.79,1173.58 3895,1177.5C 3889.19,1212.22 3882.69,1246.22 3875.5,1279.5C 3874.5,1279.5 3873.5,1279.5 3872.5,1279.5C 3870.08,1292.48 3867.24,1305.48 3864,1318.5C 3863.59,1318.96 3863.09,1319.29 3862.5,1319.5C 3856.57,1340.92 3849.9,1361.92 3842.5,1382.5C 3841.5,1382.5 3840.5,1382.5 3839.5,1382.5C 3837.86,1390.94 3834.86,1398.78 3830.5,1406C 3831.82,1407.98 3831.32,1409.48 3829,1410.5C 3826.66,1417.18 3824.32,1423.85 3822,1430.5C 3821.67,1430.17 3821.33,1429.83 3821,1429.5C 3820.5,1431.47 3820.34,1433.47 3820.5,1435.5C 3819.5,1435.5 3818.5,1435.5 3817.5,1435.5C 3815.48,1441.53 3813.48,1447.53 3811.5,1453.5C 3810.45,1453.35 3809.45,1453.52 3808.5,1454C 3809.55,1455.39 3809.72,1456.89 3809,1458.5C 3808.33,1457.17 3807.67,1457.17 3807,1458.5C 3803.7,1465.4 3800.87,1472.4 3798.5,1479.5C 3797.5,1479.5 3796.5,1479.5 3795.5,1479.5C 3793.48,1485.53 3791.48,1491.53 3789.5,1497.5C 3787.06,1497.12 3786.39,1497.79 3787.5,1499.5C 3782.91,1504.67 3779.91,1510.67 3778.5,1517.5C 3776.86,1517.48 3775.52,1518.15 3774.5,1519.5C 3772.54,1525.92 3769.21,1531.42 3764.5,1536C 3765.45,1536.72 3765.62,1537.55 3765,1538.5C 3760.89,1542.4 3758.05,1547.06 3756.5,1552.5C 3754.06,1552.35 3753.39,1553.19 3754.5,1555C 3753.58,1555.37 3752.75,1555.87 3752,1556.5C 3748.72,1562.51 3744.88,1568.17 3740.5,1573.5C 3737.8,1577.21 3735.8,1581.21 3734.5,1585.5C 3730.93,1586.32 3728.93,1588.66 3728.5,1592.5C 3723.02,1599.48 3717.36,1606.31 3711.5,1613C 3711.83,1613.33 3712.17,1613.67 3712.5,1614C 3710.04,1616.96 3707.38,1619.79 3704.5,1622.5C 3703.55,1624.05 3703.21,1625.71 3703.5,1627.5C 3698.47,1629.54 3695.13,1633.2 3693.5,1638.5C 3688.71,1641.29 3685.38,1645.29 3683.5,1650.5C 3647.78,1690.37 3610.95,1728.37 3573,1764.5C 3570.02,1767.98 3566.85,1771.32 3563.5,1774.5C 3562.61,1775.32 3562.28,1776.32 3562.5,1777.5C 3561.32,1777.28 3560.32,1777.61 3559.5,1778.5C 3331.38,2006.79 3102.71,2235.29 2873.5,2464C 2658.4,2679.77 2444.06,2894.1 2230.5,3107C 2190.53,3147.63 2149.87,3188.3 2108.5,3229C 2105.54,3232.63 2101.87,3236.3 2097.5,3240C 2093.85,3244.01 2089.85,3248.34 2085.5,3253C 2083.03,3253.71 2080.7,3253.37 2078.5,3252C 2078.83,3251.67 2079.17,3251.33 2079.5,3251C 2078.55,3250.52 2077.55,3250.35 2076.5,3250.5C 2074.75,3246.25 2071.75,3243.08 2067.5,3241C 2067.83,3240.67 2068.17,3240.33 2068.5,3240C 2056.52,3228.69 2045.19,3217.35 2034.5,3206C 2031.68,3203.68 2029.02,3201.18 2026.5,3198.5C 2025.68,3197.61 2024.68,3197.28 2023.5,3197.5C 2021.66,3193.64 2018.99,3190.31 2015.5,3187.5C 2014.68,3186.61 2013.68,3186.28 2012.5,3186.5C 2010.66,3182.64 2007.99,3179.31 2004.5,3176.5C 2003.68,3175.61 2002.68,3175.28 2001.5,3175.5C 1999.66,3171.64 1996.99,3168.31 1993.5,3165.5C 1992.68,3164.61 1991.68,3164.28 1990.5,3164.5C 1988.66,3160.64 1985.99,3157.31 1982.5,3154.5C 1981.68,3153.61 1980.68,3153.28 1979.5,3153.5C 1977.66,3149.64 1974.99,3146.31 1971.5,3143.5C 1970.68,3142.61 1969.68,3142.28 1968.5,3142.5C 1966.66,3138.64 1963.99,3135.31 1960.5,3132.5C 1959.68,3131.61 1958.68,3131.28 1957.5,3131.5C 1955.66,3127.64 1952.99,3124.31 1949.5,3121.5C 1948.68,3120.61 1947.68,3120.28 1946.5,3120.5C 1944.66,3116.64 1941.99,3113.31 1938.5,3110.5C 1937.68,3109.61 1936.68,3109.28 1935.5,3109.5C 1933.75,3105.25 1930.75,3102.08 1926.5,3100C 1926.83,3099.67 1927.17,3099.33 1927.5,3099C 1926.55,3098.52 1925.55,3098.35 1924.5,3098.5C 1922.75,3094.25 1919.75,3091.08 1915.5,3089C 1915.83,3088.67 1916.17,3088.33 1916.5,3088C 1915.55,3087.52 1914.55,3087.35 1913.5,3087.5C 1911.75,3083.25 1908.75,3080.08 1904.5,3078C 1904.83,3077.67 1905.17,3077.33 1905.5,3077C 1904.55,3076.52 1903.55,3076.35 1902.5,3076.5C 1900.75,3072.25 1897.75,3069.08 1893.5,3067C 1893.83,3066.67 1894.17,3066.33 1894.5,3066C 1893.55,3065.52 1892.55,3065.35 1891.5,3065.5C 1889.75,3061.25 1886.75,3058.08 1882.5,3056C 1882.83,3055.67 1883.17,3055.33 1883.5,3055C 1882.55,3054.52 1881.55,3054.35 1880.5,3054.5C 1878.75,3050.25 1875.75,3047.08 1871.5,3045C 1871.83,3044.67 1872.17,3044.33 1872.5,3044C 1871.55,3043.52 1870.55,3043.35 1869.5,3043.5C 1867.75,3039.25 1864.75,3036.08 1860.5,3034C 1860.83,3033.67 1861.17,3033.33 1861.5,3033C 1860.55,3032.52 1859.55,3032.35 1858.5,3032.5C 1856.75,3028.25 1853.75,3025.08 1849.5,3023C 1849.83,3022.67 1850.17,3022.33 1850.5,3022C 1849.55,3021.52 1848.55,3021.35 1847.5,3021.5C 1845.75,3017.25 1842.75,3014.08 1838.5,3012C 1838.83,3011.67 1839.17,3011.33 1839.5,3011C 1838.55,3010.52 1837.55,3010.35 1836.5,3010.5C 1834.75,3006.25 1831.75,3003.08 1827.5,3001C 1827.83,3000.67 1828.17,3000.33 1828.5,3000C 1827.55,2999.52 1826.55,2999.35 1825.5,2999.5C 1823.75,2995.25 1820.75,2992.08 1816.5,2990C 1816.83,2989.67 1817.17,2989.33 1817.5,2989C 1816.55,2988.52 1815.55,2988.35 1814.5,2988.5C 1812.75,2984.25 1809.75,2981.08 1805.5,2979C 1805.83,2978.67 1806.17,2978.33 1806.5,2978C 1796.07,2968.07 1785.73,2957.9 1775.5,2947.5C 1774.68,2946.61 1773.68,2946.28 1772.5,2946.5C 1770.66,2942.64 1767.99,2939.31 1764.5,2936.5C 1763.68,2935.61 1762.68,2935.28 1761.5,2935.5C 1759.66,2931.64 1756.99,2928.31 1753.5,2925.5C 1752.68,2924.61 1751.68,2924.28 1750.5,2924.5C 1748.66,2920.64 1745.99,2917.31 1742.5,2914.5C 1741.68,2913.61 1740.68,2913.28 1739.5,2913.5C 1737.66,2909.64 1734.99,2906.31 1731.5,2903.5C 1730.68,2902.61 1729.68,2902.28 1728.5,2902.5C 1726.66,2898.64 1723.99,2895.31 1720.5,2892.5C 1719.68,2891.61 1718.68,2891.28 1717.5,2891.5C 1715.66,2887.64 1712.99,2884.31 1709.5,2881.5C 1708.68,2880.61 1707.68,2880.28 1706.5,2880.5C 1704.66,2876.64 1701.99,2873.31 1698.5,2870.5C 1697.68,2869.61 1696.68,2869.28 1695.5,2869.5C 1693.66,2865.64 1690.99,2862.31 1687.5,2859.5C 1686.68,2858.61 1685.68,2858.28 1684.5,2858.5C 1682.66,2854.64 1679.99,2851.31 1676.5,2848.5C 1675.68,2847.61 1674.68,2847.28 1673.5,2847.5C 1671.75,2843.25 1668.75,2840.08 1664.5,2838C 1664.83,2837.67 1665.17,2837.33 1665.5,2837C 1664.55,2836.52 1663.55,2836.35 1662.5,2836.5C 1660.75,2832.25 1657.75,2829.08 1653.5,2827C 1653.83,2826.67 1654.17,2826.33 1654.5,2826C 1653.55,2825.52 1652.55,2825.35 1651.5,2825.5C 1649.75,2821.25 1646.75,2818.08 1642.5,2816C 1642.83,2815.67 1643.17,2815.33 1643.5,2815C 1642.55,2814.52 1641.55,2814.35 1640.5,2814.5C 1638.75,2810.25 1635.75,2807.08 1631.5,2805C 1631.83,2804.67 1632.17,2804.33 1632.5,2804C 1631.55,2803.52 1630.55,2803.35 1629.5,2803.5C 1627.75,2799.25 1624.75,2796.08 1620.5,2794C 1620.83,2793.67 1621.17,2793.33 1621.5,2793C 1620.55,2792.52 1619.55,2792.35 1618.5,2792.5C 1616.75,2788.25 1613.75,2785.08 1609.5,2783C 1609.83,2782.67 1610.17,2782.33 1610.5,2782C 1609.55,2781.52 1608.55,2781.35 1607.5,2781.5C 1605.75,2777.25 1602.75,2774.08 1598.5,2772C 1598.83,2771.67 1599.17,2771.33 1599.5,2771C 1598.55,2770.52 1597.55,2770.35 1596.5,2770.5C 1594.75,2766.25 1591.75,2763.08 1587.5,2761C 1587.83,2760.67 1588.17,2760.33 1588.5,2760C 1587.55,2759.52 1586.55,2759.35 1585.5,2759.5C 1583.75,2755.25 1580.75,2752.08 1576.5,2750C 1576.83,2749.67 1577.17,2749.33 1577.5,2749C 1576.55,2748.52 1575.55,2748.35 1574.5,2748.5C 1572.75,2744.25 1569.75,2741.08 1565.5,2739C 1565.83,2738.67 1566.17,2738.33 1566.5,2738C 1565.55,2737.52 1564.55,2737.35 1563.5,2737.5C 1561.75,2733.25 1558.75,2730.08 1554.5,2728C 1554.83,2727.67 1555.17,2727.33 1555.5,2727C 1545.07,2717.07 1534.73,2706.9 1524.5,2696.5C 1523.68,2695.61 1522.68,2695.28 1521.5,2695.5C 1519.66,2691.64 1516.99,2688.31 1513.5,2685.5C 1512.68,2684.61 1511.68,2684.28 1510.5,2684.5C 1508.66,2680.64 1505.99,2677.31 1502.5,2674.5C 1501.68,2673.61 1500.68,2673.28 1499.5,2673.5C 1497.66,2669.64 1494.99,2666.31 1491.5,2663.5C 1490.68,2662.61 1489.68,2662.28 1488.5,2662.5C 1486.66,2658.64 1483.99,2655.31 1480.5,2652.5C 1479.68,2651.61 1478.68,2651.28 1477.5,2651.5C 1475.66,2647.64 1472.99,2644.31 1469.5,2641.5C 1468.68,2640.61 1467.68,2640.28 1466.5,2640.5C 1464.66,2636.64 1461.99,2633.31 1458.5,2630.5C 1457.68,2629.61 1456.68,2629.28 1455.5,2629.5C 1453.66,2625.64 1450.99,2622.31 1447.5,2619.5C 1446.68,2618.61 1445.68,2618.28 1444.5,2618.5C 1442.66,2614.64 1439.99,2611.31 1436.5,2608.5C 1435.68,2607.61 1434.68,2607.28 1433.5,2607.5C 1431.66,2603.64 1428.99,2600.31 1425.5,2597.5C 1424.68,2596.61 1423.68,2596.28 1422.5,2596.5C 1420.75,2592.25 1417.75,2589.08 1413.5,2587C 1413.83,2586.67 1414.17,2586.33 1414.5,2586C 1413.55,2585.52 1412.55,2585.35 1411.5,2585.5C 1409.75,2581.25 1406.75,2578.08 1402.5,2576C 1402.83,2575.67 1403.17,2575.33 1403.5,2575C 1402.55,2574.52 1401.55,2574.35 1400.5,2574.5C 1398.75,2570.25 1395.75,2567.08 1391.5,2565C 1391.83,2564.67 1392.17,2564.33 1392.5,2564C 1391.55,2563.52 1390.55,2563.35 1389.5,2563.5C 1387.75,2559.25 1384.75,2556.08 1380.5,2554C 1380.83,2553.67 1381.17,2553.33 1381.5,2553C 1380.55,2552.52 1379.55,2552.35 1378.5,2552.5C 1376.75,2548.25 1373.75,2545.08 1369.5,2543C 1369.83,2542.67 1370.17,2542.33 1370.5,2542C 1369.55,2541.52 1368.55,2541.35 1367.5,2541.5C 1365.75,2537.25 1362.75,2534.08 1358.5,2532C 1358.83,2531.67 1359.17,2531.33 1359.5,2531C 1358.55,2530.52 1357.55,2530.35 1356.5,2530.5C 1354.75,2526.25 1351.75,2523.08 1347.5,2521C 1347.83,2520.67 1348.17,2520.33 1348.5,2520C 1347.55,2519.52 1346.55,2519.35 1345.5,2519.5C 1343.75,2515.25 1340.75,2512.08 1336.5,2510C 1336.83,2509.67 1337.17,2509.33 1337.5,2509C 1336.55,2508.52 1335.55,2508.35 1334.5,2508.5C 1332.75,2504.25 1329.75,2501.08 1325.5,2499C 1325.83,2498.67 1326.17,2498.33 1326.5,2498C 1325.55,2497.52 1324.55,2497.35 1323.5,2497.5C 1321.75,2493.25 1318.75,2490.08 1314.5,2488C 1314.83,2487.67 1315.17,2487.33 1315.5,2487C 1314.55,2486.52 1313.55,2486.35 1312.5,2486.5C 1310.75,2482.25 1307.75,2479.08 1303.5,2477C 1303.83,2476.67 1304.17,2476.33 1304.5,2476C 1292.52,2464.69 1281.19,2453.35 1270.5,2442C 1267.68,2439.68 1265.02,2437.18 1262.5,2434.5C 1261.68,2433.61 1260.68,2433.28 1259.5,2433.5C 1257.66,2429.64 1254.99,2426.31 1251.5,2423.5C 1250.68,2422.61 1249.68,2422.28 1248.5,2422.5C 1246.66,2418.64 1243.99,2415.31 1240.5,2412.5C 1239.68,2411.61 1238.68,2411.28 1237.5,2411.5C 1235.66,2407.64 1232.99,2404.31 1229.5,2401.5C 1228.68,2400.61 1227.68,2400.28 1226.5,2400.5C 1224.66,2396.64 1221.99,2393.31 1218.5,2390.5C 1217.68,2389.61 1216.68,2389.28 1215.5,2389.5C 1213.66,2385.64 1210.99,2382.31 1207.5,2379.5C 1206.68,2378.61 1205.68,2378.28 1204.5,2378.5C 1202.66,2374.64 1199.99,2371.31 1196.5,2368.5C 1195.68,2367.61 1194.68,2367.28 1193.5,2367.5C 1191.66,2363.64 1188.99,2360.31 1185.5,2357.5C 1184.68,2356.61 1183.68,2356.28 1182.5,2356.5C 1180.66,2352.64 1177.99,2349.31 1174.5,2346.5C 1173.68,2345.61 1172.68,2345.28 1171.5,2345.5C 1169.75,2341.25 1166.75,2338.08 1162.5,2336C 1162.83,2335.67 1163.17,2335.33 1163.5,2335C 1162.55,2334.52 1161.55,2334.35 1160.5,2334.5C 1158.75,2330.25 1155.75,2327.08 1151.5,2325C 1151.83,2324.67 1152.17,2324.33 1152.5,2324C 1151.55,2323.52 1150.55,2323.35 1149.5,2323.5C 1147.75,2319.25 1144.75,2316.08 1140.5,2314C 1140.83,2313.67 1141.17,2313.33 1141.5,2313C 1140.55,2312.52 1139.55,2312.35 1138.5,2312.5C 1136.75,2308.25 1133.75,2305.08 1129.5,2303C 1129.83,2302.67 1130.17,2302.33 1130.5,2302C 1129.55,2301.52 1128.55,2301.35 1127.5,2301.5C 1125.75,2297.25 1122.75,2294.08 1118.5,2292C 1118.83,2291.67 1119.17,2291.33 1119.5,2291C 1118.55,2290.52 1117.55,2290.35 1116.5,2290.5C 1114.75,2286.25 1111.75,2283.08 1107.5,2281C 1107.83,2280.67 1108.17,2280.33 1108.5,2280C 1107.55,2279.52 1106.55,2279.35 1105.5,2279.5C 1103.75,2275.25 1100.75,2272.08 1096.5,2270C 1096.83,2269.67 1097.17,2269.33 1097.5,2269C 1096.55,2268.52 1095.55,2268.35 1094.5,2268.5C 1092.75,2264.25 1089.75,2261.08 1085.5,2259C 1085.83,2258.67 1086.17,2258.33 1086.5,2258C 1085.55,2257.52 1084.55,2257.35 1083.5,2257.5C 1081.75,2253.25 1078.75,2250.08 1074.5,2248C 1074.83,2247.67 1075.17,2247.33 1075.5,2247C 1074.55,2246.52 1073.55,2246.35 1072.5,2246.5C 1070.75,2242.25 1067.75,2239.08 1063.5,2237C 1063.83,2236.67 1064.17,2236.33 1064.5,2236C 1063.55,2235.52 1062.55,2235.35 1061.5,2235.5C 1059.75,2231.25 1056.75,2228.08 1052.5,2226C 1052.83,2225.67 1053.17,2225.33 1053.5,2225C 1052.55,2224.52 1051.55,2224.35 1050.5,2224.5C 1048.75,2220.25 1045.75,2217.08 1041.5,2215C 1041.83,2214.67 1042.17,2214.33 1042.5,2214C 1032.07,2204.07 1021.73,2193.9 1011.5,2183.5C 1010.68,2182.61 1009.68,2182.28 1008.5,2182.5C 1006.66,2178.64 1003.99,2175.31 1000.5,2172.5C 999.675,2171.61 998.675,2171.28 997.5,2171.5C 995.659,2167.64 992.992,2164.31 989.5,2161.5C 988.675,2160.61 987.675,2160.28 986.5,2160.5C 984.659,2156.64 981.992,2153.31 978.5,2150.5C 977.675,2149.61 976.675,2149.28 975.5,2149.5C 973.659,2145.64 970.992,2142.31 967.5,2139.5C 966.675,2138.61 965.675,2138.28 964.5,2138.5C 962.659,2134.64 959.992,2131.31 956.5,2128.5C 955.675,2127.61 954.675,2127.28 953.5,2127.5C 951.659,2123.64 948.992,2120.31 945.5,2117.5C 944.675,2116.61 943.675,2116.28 942.5,2116.5C 940.659,2112.64 937.992,2109.31 934.5,2106.5C 933.675,2105.61 932.675,2105.28 931.5,2105.5C 929.659,2101.64 926.992,2098.31 923.5,2095.5C 922.675,2094.61 921.675,2094.28 920.5,2094.5C 918.659,2090.64 915.992,2087.31 912.5,2084.5C 911.675,2083.61 910.675,2083.28 909.5,2083.5C 907.75,2079.25 904.75,2076.08 900.5,2074C 900.833,2073.67 901.167,2073.33 901.5,2073C 900.552,2072.52 899.552,2072.35 898.5,2072.5C 896.75,2068.25 893.75,2065.08 889.5,2063C 889.833,2062.67 890.167,2062.33 890.5,2062C 889.552,2061.52 888.552,2061.35 887.5,2061.5C 885.75,2057.25 882.75,2054.08 878.5,2052C 878.833,2051.67 879.167,2051.33 879.5,2051C 878.552,2050.52 877.552,2050.35 876.5,2050.5C 874.75,2046.25 871.75,2043.08 867.5,2041C 867.833,2040.67 868.167,2040.33 868.5,2040C 867.552,2039.52 866.552,2039.35 865.5,2039.5C 863.75,2035.25 860.75,2032.08 856.5,2030C 856.833,2029.67 857.167,2029.33 857.5,2029C 856.552,2028.52 855.552,2028.35 854.5,2028.5C 852.75,2024.25 849.75,2021.08 845.5,2019C 845.833,2018.67 846.167,2018.33 846.5,2018C 845.552,2017.52 844.552,2017.35 843.5,2017.5C 841.75,2013.25 838.75,2010.08 834.5,2008C 834.833,2007.67 835.167,2007.33 835.5,2007C 834.552,2006.52 833.552,2006.35 832.5,2006.5C 830.75,2002.25 827.75,1999.08 823.5,1997C 823.833,1996.67 824.167,1996.33 824.5,1996C 823.552,1995.52 822.552,1995.35 821.5,1995.5C 819.75,1991.25 816.75,1988.08 812.5,1986C 812.833,1985.67 813.167,1985.33 813.5,1985C 812.552,1984.52 811.552,1984.35 810.5,1984.5C 808.75,1980.25 805.75,1977.08 801.5,1975C 801.833,1974.67 802.167,1974.33 802.5,1974C 801.552,1973.52 800.552,1973.35 799.5,1973.5C 797.75,1969.25 794.75,1966.08 790.5,1964C 790.833,1963.67 791.167,1963.33 791.5,1963C 781.068,1953.07 770.734,1942.9 760.5,1932.5C 759.675,1931.61 758.675,1931.28 757.5,1931.5C 755.659,1927.64 752.992,1924.31 749.5,1921.5C 748.675,1920.61 747.675,1920.28 746.5,1920.5C 744.659,1916.64 741.992,1913.31 738.5,1910.5C 737.675,1909.61 736.675,1909.28 735.5,1909.5C 733.659,1905.64 730.992,1902.31 727.5,1899.5C 726.675,1898.61 725.675,1898.28 724.5,1898.5C 722.659,1894.64 719.992,1891.31 716.5,1888.5C 715.675,1887.61 714.675,1887.28 713.5,1887.5C 711.659,1883.64 708.992,1880.31 705.5,1877.5C 704.675,1876.61 703.675,1876.28 702.5,1876.5C 700.659,1872.64 697.992,1869.31 694.5,1866.5C 693.675,1865.61 692.675,1865.28 691.5,1865.5C 689.659,1861.64 686.992,1858.31 683.5,1855.5C 682.675,1854.61 681.675,1854.28 680.5,1854.5C 678.659,1850.64 675.992,1847.31 672.5,1844.5C 671.675,1843.61 670.675,1843.28 669.5,1843.5C 667.659,1839.64 664.992,1836.31 661.5,1833.5C 660.675,1832.61 659.675,1832.28 658.5,1832.5C 656.75,1828.25 653.75,1825.08 649.5,1823C 649.833,1822.67 650.167,1822.33 650.5,1822C 649.552,1821.52 648.552,1821.35 647.5,1821.5C 645.75,1817.25 642.75,1814.08 638.5,1812C 638.833,1811.67 639.167,1811.33 639.5,1811C 638.552,1810.52 637.552,1810.35 636.5,1810.5C 634.75,1806.25 631.75,1803.08 627.5,1801C 627.833,1800.67 628.167,1800.33 628.5,1800C 627.552,1799.52 626.552,1799.35 625.5,1799.5C 623.75,1795.25 620.75,1792.08 616.5,1790C 616.833,1789.67 617.167,1789.33 617.5,1789C 616.552,1788.52 615.552,1788.35 614.5,1788.5C 612.75,1784.25 609.75,1781.08 605.5,1779C 605.833,1778.67 606.167,1778.33 606.5,1778C 605.552,1777.52 604.552,1777.35 603.5,1777.5C 601.75,1773.25 598.75,1770.08 594.5,1768C 594.833,1767.67 595.167,1767.33 595.5,1767C 594.552,1766.52 593.552,1766.35 592.5,1766.5C 590.75,1762.25 587.75,1759.08 583.5,1757C 583.833,1756.67 584.167,1756.33 584.5,1756C 583.552,1755.52 582.552,1755.35 581.5,1755.5C 579.75,1751.25 576.75,1748.08 572.5,1746C 572.833,1745.67 573.167,1745.33 573.5,1745C 572.552,1744.52 571.552,1744.35 570.5,1744.5C 568.75,1740.25 565.75,1737.08 561.5,1735C 561.833,1734.67 562.167,1734.33 562.5,1734C 561.552,1733.52 560.552,1733.35 559.5,1733.5C 557.75,1729.25 554.75,1726.08 550.5,1724C 550.833,1723.67 551.167,1723.33 551.5,1723C 550.552,1722.52 549.552,1722.35 548.5,1722.5C 546.75,1718.25 543.75,1715.08 539.5,1713C 539.833,1712.67 540.167,1712.33 540.5,1712C 539.552,1711.52 538.552,1711.35 537.5,1711.5C 537.719,1710.32 537.386,1709.32 536.5,1708.5C 530.56,1702.86 524.227,1696.86 517.5,1690.5C 507.45,1678.17 497.45,1666.51 487.5,1655.5C 483.339,1651.51 479.339,1647.34 475.5,1643C 475.957,1642.59 476.291,1642.09 476.5,1641.5C 472.616,1638.78 469.283,1635.61 466.5,1632C 466.957,1631.59 467.291,1631.09 467.5,1630.5C 462.726,1627.67 459.392,1623.67 457.5,1618.5C 454.271,1616.09 451.938,1613.09 450.5,1609.5C 448.816,1607.65 446.983,1605.98 445,1604.5C 445.583,1601.83 444.416,1599.83 441.5,1598.5C 439.55,1595.6 437.884,1592.6 436.5,1589.5C 433.795,1589.62 433.128,1588.62 434.5,1586.5C 432.599,1585.46 430.933,1584.12 429.5,1582.5C 428.359,1581.57 428.359,1580.74 429.5,1580C 427.3,1577.8 425.467,1575.3 424,1572.5C 422.334,1573.34 422.167,1572.84 423.5,1571C 422.552,1570.52 421.552,1570.35 420.5,1570.5C 419.034,1566.12 417.034,1561.96 414.5,1558C 407.482,1548.15 400.815,1537.98 394.5,1527.5C 393.253,1525.68 392.586,1523.68 392.5,1521.5C 391.5,1521.5 390.5,1521.5 389.5,1521.5C 389.33,1520.18 389.663,1519.01 390.5,1518C 389.552,1517.52 388.552,1517.35 387.5,1517.5C 384.982,1512.45 382.982,1507.11 381.5,1501.5C 380.5,1501.5 379.5,1501.5 378.5,1501.5C 378.33,1500.18 378.663,1499.01 379.5,1498C 378.552,1497.52 377.552,1497.35 376.5,1497.5C 374.292,1491.42 371.292,1485.75 367.5,1480.5C 368.872,1478.38 368.205,1477.38 365.5,1477.5C 359.186,1464.19 353.352,1450.52 348,1436.5C 342.84,1428.85 339.34,1420.51 337.5,1411.5C 336.5,1411.5 335.5,1411.5 334.5,1411.5C 332.788,1404.05 330.455,1396.72 327.5,1389.5C 326.813,1387.45 325.646,1385.78 324,1384.5C 320.854,1374.56 318.021,1364.56 315.5,1354.5C 314.5,1354.5 313.5,1354.5 312.5,1354.5C 309.836,1343.51 307.169,1332.51 304.5,1321.5C 303.5,1321.5 302.5,1321.5 301.5,1321.5C 298.615,1308.18 295.948,1294.85 293.5,1281.5C 292.5,1281.5 291.5,1281.5 290.5,1281.5C 288.649,1269.8 286.483,1258.13 284,1246.5C 281.443,1243.49 280.943,1240.15 282.5,1236.5C 281.758,1235.71 280.925,1235.05 280,1234.5C 278.135,1222.62 276.468,1210.62 275,1198.5C 274.116,1192.78 272.783,1187.11 271,1181.5C 270.24,1177.77 270.407,1174.11 271.5,1170.5C 270.675,1169.61 269.675,1169.28 268.5,1169.5C 267.409,1151.49 266.075,1133.49 264.5,1115.5C 263.167,1067.83 263.167,1020.17 264.5,972.5C 266.075,954.508 267.409,936.508 268.5,918.5C 269.675,918.719 270.675,918.386 271.5,917.5C 270.407,913.892 270.24,910.225 271,906.5C 274.334,889.257 277.501,871.923 280.5,854.5C 281.415,853.672 282.081,852.672 282.5,851.5C 280.898,848.466 281.231,845.799 283.5,843.5C 285.083,833.624 287.25,823.957 290,814.5C 290.497,811.854 290.664,809.187 290.5,806.5C 291.5,806.5 292.5,806.5 293.5,806.5C 295.728,793.39 298.561,780.39 302,767.5C 303.016,768.634 303.683,768.301 304,766.5C 307.153,755.552 309.986,744.552 312.5,733.5C 313.5,733.5 314.5,733.5 315.5,733.5C 315.192,731.076 315.526,728.743 316.5,726.5C 321.717,711.631 327.384,696.964 333.5,682.5C 334.466,680.604 334.799,678.604 334.5,676.5C 335.5,676.5 336.5,676.5 337.5,676.5C 339.098,669.706 341.098,663.039 343.5,656.5C 344.552,656.649 345.552,656.483 346.5,656C 345.446,654.612 345.28,653.112 346,651.5C 346.914,652.654 347.747,652.487 348.5,651C 348.167,650.667 347.833,650.333 347.5,650C 349.972,645.764 351.972,641.264 353.5,636.5C 354.234,634.185 355.568,632.352 357.5,631C 357.043,630.586 356.709,630.086 356.5,629.5C 360.301,622.537 364.301,615.703 368.5,609C 367.549,608.282 367.383,607.449 368,606.5C 372.638,602.164 375.471,596.831 376.5,590.5C 379.205,590.62 379.872,589.62 378.5,587.5C 382.647,582.446 385.647,576.779 387.5,570.5C 390.205,570.62 390.872,569.62 389.5,567.5C 390.325,566.614 391.325,566.281 392.5,566.5C 400.051,551.004 409.051,536.337 419.5,522.5C 420.452,520.955 420.785,519.288 420.5,517.5C 422.143,517.52 423.476,516.853 424.5,515.5C 426.877,510.053 430.21,505.386 434.5,501.5C 434.291,500.914 433.957,500.414 433.5,500C 437.21,496.292 440.543,492.292 443.5,488C 443.167,487.667 442.833,487.333 442.5,487C 443.624,486.751 444.624,486.251 445.5,485.5C 449.603,479.007 454.269,473.007 459.5,467.5C 460.683,462.983 463.35,459.65 467.5,457.5C 469.67,452.156 473.17,447.823 478,444.5C 478.833,442.833 479.667,441.167 480.5,439.5C 484.513,436.246 487.513,432.913 489.5,429.5C 496.658,421.634 504.325,413.301 512.5,404.5C 513.986,402.698 514.986,400.698 515.5,398.5C 516.675,398.719 517.675,398.386 518.5,397.5C 526.251,389.226 534.251,381.226 542.5,373.5C 548.433,367.764 554.1,361.764 559.5,355.5C 563.215,353.094 566.882,350.761 570.5,348.5C 570.5,347.5 570.5,346.5 570.5,345.5C 571.552,345.649 572.552,345.483 573.5,345C 573.167,344.667 572.833,344.333 572.5,344C 585.642,333.689 598.309,322.856 610.5,311.5C 615.79,309.771 619.457,306.438 621.5,301.5C 622.873,301.657 624.207,301.49 625.5,301C 625.167,300.667 624.833,300.333 624.5,300C 628.279,298.061 631.946,295.894 635.5,293.5C 636.386,292.675 636.719,291.675 636.5,290.5C 646.388,283.991 656.388,277.491 666.5,271C 669.677,267.473 674.01,264.473 679.5,262C 690.989,254.007 702.655,246.341 714.5,239C 715.793,238.51 717.127,238.343 718.5,238.5C 718.5,237.5 718.5,236.5 718.5,235.5C 723.254,233.624 727.921,231.458 732.5,229C 740.376,223.898 748.376,219.065 756.5,214.5C 763.28,210.738 770.28,207.738 777.5,205.5C 777.5,204.5 777.5,203.5 777.5,202.5C 784.947,199.971 792.28,197.138 799.5,194C 800.833,193.333 800.833,192.667 799.5,192C 808.334,189.303 816.668,185.803 824.5,181.5C 832.931,177.658 841.598,174.658 850.5,172.5C 850.5,171.5 850.5,170.5 850.5,169.5C 869.783,162.573 889.45,156.073 909.5,150C 911.301,149.683 911.634,149.016 910.5,148C 923.036,145.194 935.369,141.861 947.5,138C 947.167,137.667 946.833,137.333 946.5,137C 961.278,134.387 975.611,130.887 989.5,126.5C 1003.45,123.676 1017.45,121.176 1031.5,119C 1032.33,118.085 1033.33,117.419 1034.5,117C 1059.84,113.009 1085.17,109.843 1110.5,107.5C 1110.71,106.914 1111.04,106.414 1111.5,106C 1120.17,105.667 1128.83,105.333 1137.5,105C 1137.17,104.667 1136.83,104.333 1136.5,104C 1189.2,101.906 1241.87,102.573 1294.5,106C 1295.17,106.667 1295.83,107.333 1296.5,108C 1308.67,108.269 1320.67,109.269 1332.5,111C 1345.38,113.174 1358.38,115.174 1371.5,117C 1372.67,117.419 1373.67,118.085 1374.5,119C 1385.18,120.594 1395.84,122.26 1406.5,124C 1406.17,124.333 1405.83,124.667 1405.5,125C 1411.89,125.647 1418.22,126.647 1424.5,128C 1425.17,128.667 1425.83,129.333 1426.5,130C 1438.19,132.643 1449.19,134.976 1459.5,137C 1458.17,137.667 1458.17,138.333 1459.5,139C 1471.76,141.976 1484.09,144.976 1496.5,148C 1495.37,149.016 1495.7,149.683 1497.5,150C 1509.89,153.572 1521.89,157.905 1533.5,163C 1541.12,165.26 1548.78,167.426 1556.5,169.5C 1556.5,170.5 1556.5,171.5 1556.5,172.5C 1559.89,173.018 1563.22,173.851 1566.5,175C 1600.82,189.66 1633.82,205.993 1665.5,224C 1672.84,228.338 1680.51,232.171 1688.5,235.5C 1688.5,236.5 1688.5,237.5 1688.5,238.5C 1694.56,241.027 1700.56,243.86 1706.5,247C 1705.17,247.667 1705.17,248.333 1706.5,249C 1711.92,252.376 1717.59,255.209 1723.5,257.5C 1723.5,258.5 1723.5,259.5 1723.5,260.5C 1728.83,263.167 1734.17,265.833 1739.5,268.5C 1739.5,269.5 1739.5,270.5 1739.5,271.5C 1743.84,273.604 1748.17,275.937 1752.5,278.5C 1753.85,279.524 1754.52,280.857 1754.5,282.5C 1755.98,282.238 1757.31,282.571 1758.5,283.5C 1767.1,290.731 1775.77,296.898 1784.5,302C 1784.17,302.333 1783.83,302.667 1783.5,303C 1787.25,306.094 1791.25,308.761 1795.5,311C 1795.17,311.333 1794.83,311.667 1794.5,312C 1795.79,312.49 1797.13,312.657 1798.5,312.5C 1798.68,314.606 1799.68,316.272 1801.5,317.5C 1818.89,330.723 1835.23,345.223 1850.5,361C 1853.17,362.667 1855.83,364.333 1858.5,366C 1858.17,366.333 1857.83,366.667 1857.5,367C 1919.29,428.293 1980.96,489.793 2042.5,551.5C 2043.32,552.386 2044.32,552.719 2045.5,552.5C 2045.28,553.675 2045.61,554.675 2046.5,555.5C 2058.87,567.708 2071.04,580.041 2083,592.5C 2085.16,590.52 2086.66,588.187 2087.5,585.5C 2090.92,584.049 2094.25,581.382 2097.5,577.5C 2098.39,576.675 2098.72,575.675 2098.5,574.5C 2101.92,573.049 2105.25,570.382 2108.5,566.5C 2109.39,565.675 2109.72,564.675 2109.5,563.5C 2112.92,562.049 2116.25,559.382 2119.5,555.5C 2120.39,554.675 2120.72,553.675 2120.5,552.5C 2123.92,551.049 2127.25,548.382 2130.5,544.5C 2131.39,543.675 2131.72,542.675 2131.5,541.5C 2134.92,540.049 2138.25,537.382 2141.5,533.5C 2142.39,532.675 2142.72,531.675 2142.5,530.5C 2145.92,529.049 2149.25,526.382 2152.5,522.5C 2153.39,521.675 2153.72,520.675 2153.5,519.5C 2156.92,518.049 2160.25,515.382 2163.5,511.5C 2164.39,510.675 2164.72,509.675 2164.5,508.5C 2168.36,506.659 2171.69,503.992 2174.5,500.5C 2175.39,499.675 2175.72,498.675 2175.5,497.5C 2179.36,495.659 2182.69,492.992 2185.5,489.5C 2186.39,488.675 2186.72,487.675 2186.5,486.5C 2190.36,484.659 2193.69,481.992 2196.5,478.5C 2197.39,477.675 2197.72,476.675 2197.5,475.5C 2201.36,473.659 2204.69,470.992 2207.5,467.5C 2208.39,466.675 2208.72,465.675 2208.5,464.5C 2212.36,462.659 2215.69,459.992 2218.5,456.5C 2219.39,455.675 2219.72,454.675 2219.5,453.5C 2223.36,451.659 2226.69,448.992 2229.5,445.5C 2230.39,444.675 2230.72,443.675 2230.5,442.5C 2234.36,440.659 2237.69,437.992 2240.5,434.5C 2241.39,433.675 2241.72,432.675 2241.5,431.5C 2245.36,429.659 2248.69,426.992 2251.5,423.5C 2252.39,422.675 2252.72,421.675 2252.5,420.5C 2256.36,418.659 2259.69,415.992 2262.5,412.5C 2263.39,411.675 2263.72,410.675 2263.5,409.5C 2267.36,407.659 2270.69,404.992 2273.5,401.5C 2274.39,400.675 2274.72,399.675 2274.5,398.5C 2275.68,398.719 2276.68,398.386 2277.5,397.5C 2303.21,371.139 2330.21,345.472 2358.5,320.5C 2364.9,315.271 2371.57,310.271 2378.5,305.5C 2379.85,304.476 2380.52,303.143 2380.5,301.5C 2385.75,299.233 2390.75,296.567 2395.5,293.5C 2395.5,292.5 2395.5,291.5 2395.5,290.5C 2400.26,287.949 2404.92,285.115 2409.5,282C 2424.69,270.529 2441.35,259.195 2459.5,248C 2459.17,247.667 2458.83,247.333 2458.5,247C 2464.66,244.336 2470.66,241.336 2476.5,238C 2488.85,229.201 2501.85,221.367 2515.5,214.5C 2522.31,210.912 2529.31,207.912 2536.5,205.5C 2536.5,204.5 2536.5,203.5 2536.5,202.5C 2543.99,200.205 2551.32,197.371 2558.5,194C 2559.83,193.333 2559.83,192.667 2558.5,192C 2566.55,188.993 2574.55,185.993 2582.5,183C 2583.78,181.354 2585.45,180.187 2587.5,179.5C 2603.44,172.491 2619.78,166.324 2636.5,161C 2638.3,160.683 2638.63,160.016 2637.5,159C 2639.83,158.667 2642.17,158.333 2644.5,158C 2644.17,157.667 2643.83,157.333 2643.5,157C 2655.18,154.08 2666.51,150.746 2677.5,147C 2677.17,146.667 2676.83,146.333 2676.5,146C 2689.14,143.277 2701.48,139.777 2713.5,135.5C 2722.19,133.338 2730.86,131.505 2739.5,130C 2740.17,129.333 2740.83,128.667 2741.5,128C 2761.81,123.695 2782.81,119.695 2804.5,116C 2804.17,115.667 2803.83,115.333 2803.5,115C 2834.62,110.889 2865.62,107.389 2896.5,104.5C 2940.5,101.833 2984.5,101.833 3028.5,104.5C 3063.15,107.702 3097.15,111.868 3130.5,117C 3131.17,117.667 3131.83,118.333 3132.5,119C 3146.94,120.611 3161.28,122.945 3175.5,126C 3175.17,126.333 3174.83,126.667 3174.5,127C 3216.42,136.383 3257.42,148.883 3297.5,164.5C 3303.44,166.546 3309.44,168.213 3315.5,169.5C 3315.5,170.5 3315.5,171.5 3315.5,172.5C 3324.25,175.129 3332.91,178.129 3341.5,181.5C 3351.18,186.274 3360.85,191.108 3370.5,196C 3376.51,198.339 3382.51,200.672 3388.5,203C 3387.17,203.667 3387.17,204.333 3388.5,205C 3394.06,207.613 3399.72,209.946 3405.5,212C 3405.17,212.333 3404.83,212.667 3404.5,213C 3405.79,213.49 3407.13,213.657 3408.5,213.5C 3408.5,214.5 3408.5,215.5 3408.5,216.5C 3415.17,219.167 3421.83,221.833 3428.5,224.5C 3428.5,225.5 3428.5,226.5 3428.5,227.5C 3434.97,229.901 3441.3,232.568 3447.5,235.5C 3447.5,236.5 3447.5,237.5 3447.5,238.5C 3453.5,241.167 3459.5,243.833 3465.5,246.5C 3465.5,247.5 3465.5,248.5 3465.5,249.5C 3474.79,253.814 3483.46,259.147 3491.5,265.5C 3493.76,266.799 3496.09,267.799 3498.5,268.5C 3498.5,269.5 3498.5,270.5 3498.5,271.5C 3502.76,273.721 3507.09,275.887 3511.5,278C 3511.17,278.333 3510.83,278.667 3510.5,279C 3536.27,297.004 3561.27,317.004 3585.5,339C 3588.74,341.427 3592.07,343.593 3595.5,345.5C 3597.25,349.753 3600.25,352.92 3604.5,355C 3611.36,363.004 3619.36,370.504 3628.5,377.5C 3641.39,392.863 3655.06,407.363 3669.5,421C 3669.17,421.333 3668.83,421.667 3668.5,422C 3678.74,433.024 3688.4,444.524 3697.5,456.5C 3698.52,457.853 3699.86,458.52 3701.5,458.5C 3703.25,463.457 3706.25,467.623 3710.5,471C 3710.04,471.414 3709.71,471.914 3709.5,472.5C 3710.73,474.321 3712.39,475.321 3714.5,475.5C 3715.6,480.685 3718.43,484.685 3723,487.5C 3723.62,488.449 3723.45,489.282 3722.5,490C 3726.49,492.487 3729.15,495.987 3730.5,500.5C 3731.52,501.853 3732.86,502.52 3734.5,502.5C 3734.67,503.822 3734.34,504.989 3733.5,506C 3737.01,507.23 3739.01,509.73 3739.5,513.5C 3742.06,515.223 3744.06,517.39 3745.5,520C 3745.17,520.333 3744.83,520.667 3744.5,521C 3747.75,525.07 3750.75,529.237 3753.5,533.5 Z"/></g>
<g><path style="opacity:0.004" fill="#42b4a6" d="M 489.5,429.5 C 488.833,428.167 488.833,428.167 489.5,429.5 Z"/></g>
<g><path style="opacity:0.004" fill="#42b4a6" d="M 3753.5,532.5 C 3754.83,533.167 3754.83,533.167 3753.5,532.5 Z"/></g>
<g><path style="opacity:0.004" fill="#42b4a6" d="M 3786.5,587.5 C 3787.83,588.167 3787.83,588.167 3786.5,587.5 Z"/></g>
<g><path style="opacity:0.004" fill="#42b4a6" d="M 487.5,1655.5 C 486.833,1656.17 486.833,1656.17 487.5,1655.5 Z"/></g>
</svg>
