<svg width="124" height="124" fill="none" xmlns="http://www.w3.org/2000/svg">
  <path fill-rule="evenodd" clip-rule="evenodd" d="M97.414 74.61h.483c12.729-.187 23.231-10.02 24.254-22.71 1.023-12.69-7.768-24.077-20.303-26.301C99.788 11.57 87.8 1.145 73.622 1.05a28.41 28.41 0 0 0-24 13.261A22.86 22.86 0 0 0 20.827 33.25h-.42C9.1 33.41.02 42.622.02 53.929c0 11.308 9.08 20.52 20.387 20.681h77.007Z" fill="#DAEFE4"/>
  <path fill-rule="evenodd" clip-rule="evenodd" d="M37.83 64.564a2.102 2.102 0 0 1-2.101-2.102v-6.767H16.814a2.102 2.102 0 0 1 0-4.203h18.915a4.203 4.203 0 0 1 4.203 4.203v6.767c0 1.161-.94 2.102-2.102 2.102ZM56.746 76.712c-1.161 0-2.102-.941-2.102-2.102V51.492h-4.203a4.203 4.203 0 0 1-4.204-4.204V30.475a2.102 2.102 0 1 1 4.204 0v16.813h4.203a4.203 4.203 0 0 1 4.203 4.204V74.61c0 1.16-.94 2.102-2.101 2.102ZM65.153 78.814c-1.161 0-2.102-.941-2.102-2.102v-25.22a4.203 4.203 0 0 1 4.203-4.204h4.204V19.966a2.102 2.102 0 1 1 4.203 0v27.322a4.203 4.203 0 0 1-4.203 4.204h-4.204v25.22c0 1.16-.94 2.102-2.101 2.102ZM84.068 74.61c-1.16 0-2.102-.94-2.102-2.102V51.492a4.203 4.203 0 0 1 4.204-4.204h18.915a2.102 2.102 0 0 1 0 4.204H86.17v21.016c0 1.161-.942 2.102-2.102 2.102Z" fill="#BEE9D2"/>
  <path d="M16.814 59.898a6.305 6.305 0 1 0 0-12.61 6.305 6.305 0 0 0 0 12.61ZM48.339 38.881a6.305 6.305 0 1 0 0-12.61 6.305 6.305 0 0 0 0 12.61ZM73.56 24.17a6.305 6.305 0 1 0 0-12.61 6.305 6.305 0 0 0 0 12.61ZM105.085 55.695a6.305 6.305 0 1 0 0-12.61 6.305 6.305 0 0 0 0 12.61Z" fill="#52B7AB"/>
  <path fill-rule="evenodd" clip-rule="evenodd" d="M60.95 71.142A23.934 23.934 0 0 1 79.864 62c11.197 0 18.915 9.386 18.915 20.317 0 12.505-10.28 27.516-36.893 40.42a2.169 2.169 0 0 1-1.875 0c-26.614-12.904-36.893-27.915-36.893-40.42C23.119 71.387 30.836 62 42.034 62a23.934 23.934 0 0 1 18.915 9.142Z" fill="#FB6B47"/>
  <path fill-rule="evenodd" clip-rule="evenodd" d="M31.526 84.419c-1.161 0-2.102-.941-2.102-2.102 0-6.793 4.413-14.012 12.61-14.012a2.102 2.102 0 1 1 0 4.203c-5.465 0-8.407 5.044-8.407 9.81 0 1.16-.94 2.1-2.102 2.1Z" fill="#fff"/>
</svg>
