<svg width="25" height="25" viewBox="0 0 25 25" fill="none" xmlns="http://www.w3.org/2000/svg">
<path d="M12.5 25C19.4036 25 25 19.4036 25 12.5C25 5.59644 19.4036 0 12.5 0C5.59644 0 0 5.59644 0 12.5C0 19.4036 5.59644 25 12.5 25Z" fill="#00968B"/>
<path fill-rule="evenodd" clip-rule="evenodd" d="M9.83516 6.07297C10.5248 6.0428 10.7446 6.03418 12.5007 6.03418C14.2567 6.03418 14.4765 6.04194 15.1662 6.07297C15.855 6.10487 16.3248 6.21349 16.7352 6.37383C17.161 6.53849 17.5214 6.76004 17.8817 7.11952C18.2403 7.47901 18.4619 7.83935 18.6265 8.26435C18.7869 8.67556 18.8964 9.14625 18.9274 9.83332C18.9584 10.523 18.9662 10.7437 18.9662 12.4997C18.9662 14.2557 18.9584 14.4756 18.9274 15.1652C18.8964 15.854 18.7869 16.3238 18.6265 16.7342C18.4644 17.1661 18.2099 17.5574 17.8808 17.8807C17.5579 18.2092 17.1672 18.4634 16.736 18.6256C16.3248 18.7859 15.8541 18.8954 15.1671 18.9264C14.4774 18.9575 14.2567 18.9652 12.5007 18.9652C10.7446 18.9652 10.5248 18.9575 9.83516 18.9264C9.14723 18.8954 8.67654 18.7859 8.26619 18.6256C7.8343 18.4634 7.44301 18.2089 7.11964 17.8799C6.7911 17.5569 6.53692 17.1663 6.37481 16.735C6.21447 16.3238 6.10585 15.8531 6.07395 15.1661C6.04378 14.4756 6.03516 14.2549 6.03516 12.4997C6.03516 10.7445 6.04291 10.5238 6.07395 9.83418C6.10585 9.14625 6.21447 8.67556 6.37481 8.26521C6.53947 7.83935 6.76102 7.47901 7.1205 7.11866C7.44344 6.79013 7.83412 6.53595 8.26533 6.37383C8.67654 6.21349 9.14722 6.10487 9.83429 6.07297H9.83516ZM16.3136 7.45918C16.086 7.37125 15.7438 7.26521 15.1136 7.23677C14.4317 7.20573 14.2274 7.19883 12.5007 7.19883C10.7739 7.19883 10.5696 7.20573 9.8886 7.23677C9.25757 7.26521 8.91533 7.37125 8.68774 7.45918C8.38602 7.57642 8.1705 7.71694 7.94378 7.9428C7.72928 8.15159 7.56431 8.40581 7.46102 8.68677C7.37223 8.91435 7.26619 9.25659 7.23774 9.88677C7.20671 10.5687 7.19981 10.773 7.19981 12.4997C7.19981 14.2264 7.20671 14.4307 7.23774 15.1118C7.26619 15.7428 7.37223 16.085 7.46016 16.3126C7.5774 16.6144 7.71791 16.8299 7.94378 17.0566C8.1705 17.2825 8.38602 17.423 8.68774 17.5394C8.91533 17.6281 9.25757 17.7342 9.88774 17.7626C10.5696 17.7937 10.7739 17.8006 12.5007 17.8006C14.2274 17.8006 14.4317 17.7937 15.1127 17.7626C15.7438 17.7342 16.086 17.6281 16.3136 17.5402C16.6153 17.423 16.8308 17.2825 17.0576 17.0566C17.2834 16.8299 17.424 16.6144 17.5403 16.3126C17.6291 16.085 17.7352 15.7428 17.7636 15.1126C17.7946 14.4307 17.8015 14.2264 17.8015 12.4997C17.8015 10.773 17.7946 10.5687 17.7636 9.88763C17.7352 9.25659 17.6291 8.91435 17.5412 8.68677C17.4239 8.38504 17.2834 8.16952 17.0576 7.9428C16.8488 7.7283 16.5946 7.56334 16.3136 7.46004V7.45918ZM12.5007 9.18073C11.6202 9.18073 10.7758 9.5305 10.1532 10.1531C9.53061 10.7757 9.18085 11.6201 9.18085 12.5006C9.18085 13.381 9.53061 14.2254 10.1532 14.848C10.7758 15.4706 11.6202 15.8204 12.5007 15.8204C13.3811 15.8204 14.2256 15.4706 14.8481 14.848C15.4707 14.2254 15.8205 13.381 15.8205 12.5006C15.8205 11.6201 15.4707 10.7757 14.8481 10.1531C14.2256 9.5305 13.3811 9.18073 12.5007 9.18073ZM10.3455 12.4997C10.3455 13.0713 10.5726 13.6195 10.9767 14.0236C11.3809 14.4278 11.9291 14.6549 12.5007 14.6549C13.0723 14.6549 13.6204 14.4278 14.0246 14.0236C14.4288 13.6195 14.6558 13.0713 14.6558 12.4997C14.6558 11.9281 14.4288 11.3799 14.0246 10.9758C13.6204 10.5716 13.0723 10.3445 12.5007 10.3445C11.9291 10.3445 11.3809 10.5716 10.9767 10.9758C10.5726 11.3799 10.3455 11.9281 10.3455 12.4997ZM15.9515 9.82383C16.1573 9.82383 16.3547 9.74209 16.5002 9.59659C16.6457 9.45109 16.7274 9.25374 16.7274 9.04797C16.7274 8.8422 16.6457 8.64486 16.5002 8.49936C16.3547 8.35385 16.1573 8.27211 15.9515 8.27211C15.7458 8.27211 15.5484 8.35385 15.4029 8.49936C15.2574 8.64486 15.1757 8.8422 15.1757 9.04797C15.1757 9.25374 15.2574 9.45109 15.4029 9.59659C15.5484 9.74209 15.7458 9.82383 15.9515 9.82383Z" fill="white"/>
</svg>
