<svg width="29" height="29" viewBox="0 0 29 29" fill="none" xmlns="http://www.w3.org/2000/svg">
<circle cx="14.5" cy="14.5" r="14.5" fill="#52B7AB"/>
<path fill-rule="evenodd" clip-rule="evenodd" d="M11.4078 7.04513C12.2077 7.00863 12.4631 7 14.5 7C16.5369 7 16.7923 7.00863 17.5922 7.04513C18.3905 7.08154 18.9357 7.20834 19.4128 7.39376C19.906 7.58539 20.3242 7.84184 20.7412 8.25879C21.1582 8.67577 21.4146 9.09402 21.6063 9.58721C21.7917 10.0643 21.9185 10.6095 21.9549 11.4078C21.9914 12.2077 22 12.4631 22 14.5C22 16.5369 21.9914 16.7923 21.9549 17.5922C21.9185 18.3905 21.7917 18.9357 21.6063 19.4128C21.4146 19.906 21.1582 20.3242 20.7412 20.7412C20.3242 21.1582 19.906 21.4146 19.4128 21.6063C18.9357 21.7917 18.3905 21.9185 17.5922 21.9549C16.7923 21.9914 16.5369 22 14.5 22C12.4631 22 12.2077 21.9914 11.4078 21.9549C10.6095 21.9185 10.0643 21.7917 9.58721 21.6063C9.09402 21.4146 8.67577 21.1582 8.25879 20.7412C7.84184 20.3242 7.58539 19.906 7.39376 19.4128C7.20834 18.9357 7.08154 18.3905 7.04513 17.5922C7.00863 16.7923 7 16.5369 7 14.5C7 12.4631 7.00863 12.2077 7.04513 11.4078C7.08154 10.6095 7.20834 10.0643 7.39376 9.58721C7.58539 9.09402 7.84184 8.67577 8.25879 8.25879C8.67577 7.84184 9.09402 7.58539 9.58721 7.39376C10.0643 7.20834 10.6095 7.08154 11.4078 7.04513ZM18.9233 8.65332C18.659 8.55061 18.2619 8.42843 17.5306 8.39508C16.7398 8.359 16.5026 8.35135 14.5 8.35135C12.4974 8.35135 12.2602 8.359 11.4694 8.39508C10.7381 8.42843 10.341 8.55061 10.0767 8.65332C9.72663 8.78937 9.47679 8.9519 9.21436 9.21436C8.9519 9.47679 8.78937 9.72663 8.65332 10.0767C8.55061 10.341 8.42843 10.7381 8.39508 11.4694C8.359 12.2602 8.35135 12.4974 8.35135 14.5C8.35135 16.5026 8.359 16.7398 8.39508 17.5306C8.42843 18.2619 8.55061 18.659 8.65332 18.9233C8.78937 19.2734 8.95193 19.5232 9.21436 19.7856C9.47679 20.0481 9.72663 20.2106 10.0767 20.3467C10.341 20.4494 10.7381 20.5716 11.4694 20.6049C12.2601 20.641 12.4973 20.6487 14.5 20.6487C16.5027 20.6487 16.7399 20.641 17.5306 20.6049C18.2619 20.5716 18.659 20.4494 18.9233 20.3467C19.2734 20.2106 19.5232 20.0481 19.7856 19.7856C20.0481 19.5232 20.2106 19.2734 20.3467 18.9233C20.4494 18.659 20.5716 18.2619 20.6049 17.5306C20.641 16.7398 20.6487 16.5026 20.6487 14.5C20.6487 12.4974 20.641 12.2602 20.6049 11.4694C20.5716 10.7381 20.4494 10.341 20.3467 10.0767C20.2106 9.72663 20.0481 9.47679 19.7856 9.21436C19.5232 8.9519 19.2734 8.78937 18.9233 8.65332ZM14.5 10.6487C12.3729 10.6487 10.6487 12.3729 10.6487 14.5C10.6487 16.6271 12.3729 18.3513 14.5 18.3513C16.6271 18.3513 18.3513 16.6271 18.3513 14.5C18.3513 12.3729 16.6271 10.6487 14.5 10.6487ZM12 14.5C12 15.8807 13.1193 17 14.5 17C15.8807 17 17 15.8807 17 14.5C17 13.1193 15.8807 12 14.5 12C13.1193 12 12 13.1193 12 14.5ZM18.5035 11.3965C19.0006 11.3965 19.4035 10.9936 19.4035 10.4965C19.4035 9.99943 19.0006 9.59647 18.5035 9.59647C18.0065 9.59647 17.6035 9.99943 17.6035 10.4965C17.6035 10.9936 18.0065 11.3965 18.5035 11.3965Z" fill="white"/>
</svg>
