<svg width="29" height="29" fill="none" xmlns="http://www.w3.org/2000/svg"><circle cx="14.5" cy="14.5" r="14.5" fill="#52B7AB"/><path fill-rule="evenodd" clip-rule="evenodd" d="M11.408 7.045C12.208 7.01 12.463 7 14.5 7s2.292.009 3.092.045c.799.037 1.344.163 1.82.349.494.191.912.448 1.33.865.416.417.673.835.864 1.328.186.477.313 1.023.349 1.82.036.8.045 1.056.045 3.093s-.009 2.292-.045 3.092c-.036.799-.163 1.344-.349 1.82a3.677 3.677 0 0 1-.865 1.33 3.677 3.677 0 0 1-1.328.864c-.477.186-1.023.313-1.82.349-.8.036-1.056.045-3.093.045s-2.292-.009-3.092-.045c-.798-.036-1.344-.163-1.82-.349a3.677 3.677 0 0 1-1.33-.865 3.676 3.676 0 0 1-.864-1.328c-.186-.477-.312-1.023-.349-1.82C7.01 16.792 7 16.536 7 14.5s.009-2.292.045-3.092c.037-.798.163-1.344.349-1.82.191-.494.448-.912.865-1.33a3.676 3.676 0 0 1 1.328-.864c.477-.186 1.023-.312 1.82-.349Zm7.515 1.608c-.264-.102-.661-.225-1.392-.258-.791-.036-1.028-.044-3.031-.044s-2.24.008-3.03.044c-.732.033-1.129.156-1.393.258-.35.136-.6.299-.863.561a2.323 2.323 0 0 0-.56.863c-.103.264-.226.661-.259 1.392-.036.791-.044 1.028-.044 3.031s.008 2.24.044 3.03c.033.732.156 1.129.258 1.393.136.35.299.6.561.863.263.262.513.425.863.56.264.103.661.226 1.392.259.791.036 1.028.044 3.031.044s2.24-.008 3.03-.044c.732-.033 1.129-.156 1.393-.258.35-.136.6-.299.863-.561.262-.263.425-.513.56-.863.103-.264.226-.661.259-1.392.036-.791.044-1.028.044-3.031s-.008-2.24-.044-3.03c-.033-.732-.156-1.129-.258-1.393-.136-.35-.299-.6-.561-.863a2.323 2.323 0 0 0-.863-.56ZM14.5 10.65a3.851 3.851 0 1 0 0 7.702 3.851 3.851 0 0 0 0-7.702ZM12 14.5a2.5 2.5 0 1 0 5 0 2.5 2.5 0 0 0-5 0Zm6.503-3.104a.9.9 0 1 0 0-1.8.9.9 0 0 0 0 1.8Z" fill="#fff"/></svg>