<svg width="791" height="610" viewBox="0 0 791 610" fill="none" xmlns="http://www.w3.org/2000/svg">
<g clip-path="url(#clip0)">
<path opacity="0.2" d="M1031.49 368.516C1035.15 355.327 1034.82 341.335 1030.54 328.31C1026.27 315.284 1018.24 303.811 1007.46 295.339C996.69 286.868 983.661 281.78 970.024 280.718C956.439 279.66 942.858 282.645 930.986 289.296L420.486 576.823L420.412 576.692C358.473 608.903 286.48 615.794 219.213 596.242C149.138 575.874 89.8967 528.513 54.0844 464.928C18.2721 401.344 8.4775 326.133 27.3819 255.649C46.3083 185.083 92.498 125.031 156.169 89.1698L256.753 267.755C241.292 276.463 229.669 291.251 224.819 309.332C219.948 327.495 222.362 347.477 232.057 364.69C241.751 381.903 257.588 394.324 275.645 399.573C293.622 404.798 312.292 402.524 327.753 393.816L830.263 110.789C830.355 110.737 830.447 110.685 830.539 110.634L832.88 109.315L832.888 109.329C879.367 83.8218 932.31 72.417 985.267 76.5401C1039.22 80.7409 1090.77 100.873 1133.4 134.389C1176.02 167.906 1207.8 213.302 1224.72 264.837C1241.64 316.373 1242.94 371.733 1228.46 423.916L1031.49 368.516Z" fill="url(#paint0_linear)"/>
<path fill-rule="evenodd" clip-rule="evenodd" d="M412.542 138.771C415.054 151.696 419.662 173.297 394.605 175.027C375.747 176.329 371.889 158.29 370.103 148.159C367.478 133.265 372.437 123.335 386.438 120.123C405.502 115.748 411.038 131.037 412.542 138.771Z" fill="#E5D8FD"/>
<path fill-rule="evenodd" clip-rule="evenodd" d="M402.772 182.724V169.582H381.188L380.604 181.847L361.936 191.381L372.787 201.113C384.781 211.87 403.211 210.861 413.962 198.86L420.662 191.381L402.772 182.724Z" fill="#E5D8FD"/>
<path fill-rule="evenodd" clip-rule="evenodd" d="M390.469 177.98C390.469 177.98 428.078 142.584 429.971 122.368C432.825 91.9109 407.16 69.3563 393.939 71.094C382.374 72.6145 385.443 88.1203 385.443 88.1203C385.443 88.1203 369.44 75.6548 358.369 83.8749C347.557 91.9023 355.406 104.843 355.406 104.843C355.406 104.843 333.294 102.888 330.204 117.81C325.94 138.405 344.229 140.792 344.229 140.792C344.229 140.792 337.034 163.021 356.844 161.83C350.505 181.021 376.703 191.343 390.469 177.98Z" fill="#E5D8FD"/>
<path d="M411.525 137.974L413.815 137.524L414.308 140.05L414.445 140.768C415.201 144.777 415.637 147.808 415.816 150.839L415.829 151.055C416.185 157.509 415.201 162.747 412.407 166.81C409.086 171.639 403.366 174.484 394.941 175.11L394.685 175.128L394.526 172.797C402.425 172.256 407.568 169.727 410.485 165.485C412.937 161.92 413.829 157.169 413.499 151.184L413.474 150.768C413.294 147.921 412.873 145.023 412.151 141.196L411.906 139.918L411.525 137.974Z" fill="black"/>
<path d="M391.514 145.019C393.368 142.619 396.586 142.361 398.928 144.24C399.187 144.448 399.465 144.838 399.761 145.41C399.939 145.753 399.891 146.169 399.641 146.463C399.405 146.74 399.012 146.824 398.683 146.668L397.49 146.101C395.902 145.441 394.498 145.486 393.28 146.237C393.129 146.33 392.89 146.444 392.564 146.579C392.177 146.738 391.735 146.672 391.412 146.408C391.116 146.165 391.046 145.74 391.25 145.415C391.373 145.219 391.461 145.087 391.514 145.019Z" fill="black"/>
<path d="M411.533 144.204C409.555 141.904 406.328 141.815 404.088 143.814C403.84 144.036 403.583 144.44 403.317 145.026C403.157 145.378 403.227 145.791 403.492 146.072C403.743 146.336 404.139 146.399 404.46 146.226L405.621 145.597C407.173 144.855 408.577 144.826 409.833 145.513C409.988 145.598 410.233 145.699 410.566 145.817C410.96 145.955 411.398 145.867 411.707 145.585C411.99 145.328 412.037 144.899 411.817 144.586C411.684 144.397 411.589 144.269 411.533 144.204Z" fill="black"/>
<path fill-rule="evenodd" clip-rule="evenodd" d="M382.775 459.874L371.414 531.676L371.854 534.053L372.729 536.974L373.571 538.52C374.167 539.613 374.479 540.839 374.479 542.084C374.479 543.133 373.63 543.983 372.583 543.983H343.998C342.951 543.983 342.102 543.133 342.102 542.084C342.102 540.889 342.664 539.764 343.618 539.047L346.769 536.682L351.144 532.301L354.224 524.709L354.97 459.874H382.775Z" fill="#E5D8FD"/>
<path fill-rule="evenodd" clip-rule="evenodd" d="M342.102 543.982H374.77C375.415 543.982 375.937 544.505 375.937 545.151C375.937 545.796 375.415 546.319 374.77 546.319H342.102C341.457 546.319 340.935 545.796 340.935 545.151C340.935 544.505 341.457 543.982 342.102 543.982Z" fill="#193256"/>
<path fill-rule="evenodd" clip-rule="evenodd" d="M432.617 520.854L432.647 459.957H408.423L414.148 527.336L413.596 537.835C413.427 541.056 415.898 543.805 419.115 543.974C419.217 543.98 419.32 543.983 419.422 543.983H459.359H469.51C471.856 543.983 473.987 542.613 474.965 540.478C475.679 538.917 474.994 537.073 473.436 536.357C473.235 536.265 473.024 536.194 472.808 536.147L464.61 534.345L432.617 520.854Z" fill="#E5D8FD"/>
<path d="M475.402 543.982H412.398C411.754 543.982 411.231 544.505 411.231 545.151C411.231 545.796 411.754 546.319 412.398 546.319H475.402C476.047 546.319 476.569 545.796 476.569 545.151C476.569 544.505 476.047 543.982 475.402 543.982Z" fill="#193256"/>
<path fill-rule="evenodd" clip-rule="evenodd" d="M446.817 543.983H449.15C453.817 536.195 458.97 532.982 464.61 534.345C456.637 530.646 450.706 533.859 446.817 543.983Z" fill="#193256"/>
<path fill-rule="evenodd" clip-rule="evenodd" d="M436.316 543.982H446.817C452.456 534.832 458.387 531.619 464.61 534.345C456.443 526.168 447.011 529.38 436.316 543.982Z" fill="#BEE9D2"/>
<mask id="mask0" style="mask-type:alpha" maskUnits="userSpaceOnUse" x="340" y="332" width="101" height="128">
<path fill-rule="evenodd" clip-rule="evenodd" d="M344.07 332.542L340.771 459.959H392.961L396.295 433.435L399.385 459.959L440.4 459.874L436.239 332.542H344.07Z" fill="white"/>
</mask>
<g mask="url(#mask0)">
<path fill-rule="evenodd" clip-rule="evenodd" d="M344.07 332.542L340.771 459.959H392.961L396.295 433.435L399.385 459.959L440.4 459.874L436.239 332.542H344.07Z" fill="#0B7C68"/>
<path d="M356.131 420.373C354.945 419.402 354.745 417.671 355.658 416.457L355.728 416.367L356.519 415.398C357.408 414.308 357.257 412.705 356.18 411.801C352.788 408.951 352.309 403.915 355.074 400.48L355.247 400.273L356.934 398.312C357.755 397.358 357.675 395.932 356.77 395.076L356.665 394.982C353.28 392.138 352.801 387.113 355.561 383.685L355.665 383.559L357.436 381.445C358.262 380.459 358.133 378.99 357.149 378.163C353.804 375.353 353.299 370.4 355.98 366.976L356.084 366.847L357.774 364.776C358.663 363.686 358.512 362.083 357.435 361.178C354.043 358.329 353.564 353.293 356.329 349.858L356.502 349.651L358.189 347.69C359.01 346.736 358.929 345.31 358.025 344.454L357.92 344.36C354.535 341.516 354.056 336.491 356.816 333.063L356.92 332.937L362.013 326.858C363.023 325.654 364.816 325.498 366.019 326.508C367.193 327.494 367.371 329.227 366.442 330.429L366.37 330.519L361.276 336.597C360.444 337.59 360.547 339.058 361.491 339.926L361.654 340.068C364.973 342.931 365.382 347.918 362.604 351.281L362.498 351.407L360.79 353.392C359.951 354.392 360.055 355.87 361.006 356.745L361.09 356.818C364.508 359.69 365.023 364.752 362.281 368.25L362.178 368.379L360.488 370.45C359.683 371.437 359.792 372.875 360.72 373.729L360.803 373.803C364.152 376.616 364.625 381.587 361.897 384.978L361.793 385.105L360.021 387.219C359.189 388.212 359.292 389.68 360.236 390.549L360.399 390.69C363.718 393.553 364.128 398.54 361.349 401.903L361.243 402.029L359.535 404.014C358.697 405.014 358.8 406.492 359.751 407.367L359.835 407.44C363.253 410.312 363.768 415.374 361.026 418.872L360.923 419.001L360.132 419.97C359.139 421.187 357.348 421.367 356.131 420.373Z" fill="#E3DFCF"/>
</g>
<path d="M400.723 388.857L403.038 389.149L393.972 461.264L391.657 460.972L400.723 388.857Z" fill="black"/>
<path fill-rule="evenodd" clip-rule="evenodd" d="M351.144 532.301C358.854 534.286 363.288 537.395 364.448 541.629C365.103 537.567 367.572 535.042 371.854 534.053C373.409 536.195 373.993 537.655 373.604 538.434C368.742 538.434 366.02 540.283 365.436 543.983L364.756 543.982C364.756 543.982 364.756 543.982 364.756 543.983H363.589C359.181 538.726 353.283 536.487 345.894 537.266C346.866 534.929 348.616 533.274 351.144 532.301Z" fill="#193256"/>
<path fill-rule="evenodd" clip-rule="evenodd" d="M363.978 543.983C360.283 538.142 354.352 535.708 346.185 536.681C346.185 533.956 347.838 532.495 351.144 532.301C358.854 534.286 363.288 537.395 364.448 541.628C365.104 537.567 367.572 535.042 371.854 534.053C373.798 534.832 374.382 536.292 373.604 538.434C372.729 537.85 368.353 537.266 366.02 541.062C365.247 542.319 364.956 543.293 365.145 543.983H363.978Z" fill="#BEE9D2"/>
<path fill-rule="evenodd" clip-rule="evenodd" d="M491.299 221.273C492.635 216.634 491.189 211.639 487.581 208.436L482.362 203.802C479.899 201.616 476.185 201.649 473.762 203.878L467.235 209.883L464.373 202.924C463.634 201.127 461.884 199.954 459.943 199.954C458.475 199.954 457.285 201.145 457.285 202.615C457.285 202.782 457.301 202.949 457.332 203.114C460.034 217.289 461.974 225.873 463.151 228.866L449 250.589L447.672 244.339C447.672 244.339 433.9 243.91 430.096 250.033L435.6 286.295C435.6 286.295 442.757 291.071 447.692 291.071C461.11 291.071 471.61 260.115 479.194 231.202L481.428 230.676C486.174 229.558 489.948 225.963 491.299 221.273Z" fill="#E5D8FD"/>
<path d="M468.282 209.368L473.689 220.383C474.857 222.761 477.729 223.741 480.104 222.572C480.274 222.488 480.44 222.394 480.599 222.291L480.718 222.211L483.288 220.429C484.893 219.317 485.863 217.501 485.902 215.552L485.903 215.432H488.236C488.236 218.147 486.928 220.693 484.729 222.271L484.616 222.35L482.046 224.132C481.755 224.333 481.45 224.513 481.133 224.669C477.637 226.39 473.416 224.978 471.648 221.519L471.595 221.413L466.188 210.399L468.282 209.368Z" fill="black"/>
<path fill-rule="evenodd" clip-rule="evenodd" d="M442.302 330.45C442.58 332.28 441.89 334.126 440.472 335.315C436.561 338.597 426.747 343.819 405.54 340.836C375.665 336.633 347.352 336.279 347.352 336.279L333.544 311.822C324.618 296.013 321.647 277.524 325.17 259.709L332.589 222.191C334.834 210.835 342.132 201.126 352.408 195.821L368.979 187.266C374.522 192.08 409.88 193.423 413.888 187.487L422.805 191.854C432.47 196.587 439.424 205.508 441.662 216.045L447.672 244.339C447.672 244.339 433.9 243.909 430.096 250.033L442.302 330.45Z" fill="#BEE9D2"/>
<path fill-rule="evenodd" clip-rule="evenodd" d="M357.561 249.601C349.005 245.318 338.991 243.468 327.518 244.052C327.518 244.052 328.198 240.743 329.56 234.123C340.838 231.787 350.853 233.441 359.603 239.088C359.603 239.088 358.923 242.592 357.561 249.601Z" fill="#52B7AB"/>
<path fill-rule="evenodd" clip-rule="evenodd" d="M447.692 244.344C440.108 244.15 434.372 245.805 430.483 249.309C429.51 244.247 428.927 240.84 428.733 239.087C435.927 234.999 441.664 233.831 445.942 235.583C445.942 235.583 446.525 238.503 447.692 244.344Z" fill="#52B7AB"/>
<path d="M429.889 234.547L439.062 301.326L436.75 301.644L427.577 234.866L429.889 234.547Z" fill="black"/>
<path d="M385.407 328.561C392.003 329.181 398.463 329.917 404.717 330.781L405.703 330.918C416.161 332.389 423.964 331.944 429.477 330.045L429.643 329.987L430.418 332.191C424.568 334.254 416.451 334.756 405.705 333.277L405.378 333.232C399.182 332.36 392.773 331.614 386.224 330.985L385.189 330.887L385.407 328.561Z" fill="black"/>
<path d="M399.858 195.062L402.187 194.916L403.716 219.41L393.256 220.392L393.038 218.066L401.246 217.295L399.858 195.062Z" fill="black"/>
<path fill-rule="evenodd" clip-rule="evenodd" d="M402.773 177.466L394.897 187.396L380.896 174.838L368.937 187.396L377.115 200.496C378.822 203.231 382.421 204.063 385.153 202.353C385.353 202.229 385.544 202.092 385.727 201.944L395.772 193.821L407.747 203.146C409.019 204.136 410.851 203.907 411.84 202.634C412.126 202.267 412.319 201.836 412.405 201.379L415.023 187.396L402.773 177.466Z" fill="#52B7AB"/>
<path fill-rule="evenodd" clip-rule="evenodd" d="M352.35 279.772L357.437 249.474C347.935 244.009 335.3 243.645 328.274 244.012L325.17 259.709C321.647 277.524 324.618 296.013 333.544 311.823L360.214 359.06L374.525 347.408L352.35 279.772Z" fill="#E5D8FD"/>
<path d="M376.496 344.298L377.968 346.111L357.427 362.835L355.955 361.022L376.496 344.298Z" fill="black"/>
<path d="M351.898 274.645L365.64 316.562L363.423 317.291L349.681 275.374L351.898 274.645Z" fill="black"/>
<path fill-rule="evenodd" clip-rule="evenodd" d="M325.036 138.771C327.548 151.696 332.156 173.297 307.1 175.027C288.242 176.329 284.384 158.29 282.598 148.159C279.973 133.265 284.931 123.335 298.932 120.123C317.996 115.748 323.533 131.037 325.036 138.771Z" fill="#BEE9D2"/>
<path fill-rule="evenodd" clip-rule="evenodd" d="M315.267 182.724V169.582H293.682L293.099 181.847L274.431 191.381L285.282 201.113C297.275 211.87 315.705 210.861 326.457 198.86L333.157 191.381L315.267 182.724Z" fill="#BEE9D2"/>
<path fill-rule="evenodd" clip-rule="evenodd" d="M339.103 125.875C330.318 91.3614 257.96 94.8441 267.753 133.791C268.326 136.073 268.873 138.236 269.397 140.294C260.016 132.871 246.4 132.998 237.132 141.213C226.717 150.446 225.743 166.391 234.958 176.828C244.173 187.264 253.375 180.638 263.79 171.405C268.338 167.373 272.366 163.51 274.693 159.569C279.673 175.366 283.52 178.02 293.282 177.402C293.282 177.402 347.889 160.389 339.103 125.875Z" fill="#BEE9D2"/>
<path d="M324.02 137.974L326.309 137.524L326.803 140.05L326.94 140.768C327.695 144.777 328.131 147.808 328.311 150.839L328.323 151.055C328.68 157.509 327.696 162.747 324.902 166.81C321.581 171.639 315.86 174.484 307.436 175.11L307.179 175.128L307.02 172.797C314.92 172.256 320.062 169.727 322.98 165.485C325.431 161.92 326.324 157.169 325.993 151.184L325.969 150.768C325.788 147.921 325.367 145.023 324.646 141.196L324.401 139.918L324.02 137.974Z" fill="black"/>
<path fill-rule="evenodd" clip-rule="evenodd" d="M310.541 141.581C309.919 141.731 309.485 142.386 309.686 142.973C310.362 144.947 310.002 145.853 309.855 146.176C309.763 146.378 309.655 146.454 309.356 146.526C309.333 146.531 309.308 146.536 309.283 146.538C308.752 146.59 308.197 145.426 307.633 143.089C307.484 142.471 306.859 142.091 306.237 142.241C305.615 142.391 305.233 143.014 305.382 143.633C305.798 145.356 306.538 148.423 308.738 148.807C308.97 148.847 309.219 148.858 309.484 148.834C309.618 148.822 309.757 148.8 309.893 148.767C313.269 147.951 312.266 143.795 311.937 142.429C311.787 141.811 311.162 141.431 310.541 141.581ZM319.98 140.407C319.394 140.543 319.035 141.116 319.179 141.687C319.76 144.009 319.488 145.172 318.96 145.295C318.936 145.3 318.912 145.304 318.888 145.307C318.313 145.354 317.464 143.912 317.177 141.91C317.094 141.328 316.542 140.919 315.945 140.998C315.348 141.076 314.932 141.61 315.015 142.192C315.519 145.71 317.066 147.153 318.457 147.395C318.673 147.433 318.886 147.442 319.09 147.425C319.222 147.413 319.351 147.393 319.477 147.364C320.667 147.087 322.483 145.918 321.299 141.194C321.156 140.623 320.565 140.27 319.98 140.407Z" fill="black"/>
<path fill-rule="evenodd" clip-rule="evenodd" d="M329.063 522.635V541.087C329.063 546.076 329.063 546.316 347.192 546.316C368.443 546.316 386.332 546.316 386.332 543.64C386.332 534.384 359.778 525.261 347.192 522.635H329.063Z" fill="#BEE9D2"/>
<path fill-rule="evenodd" clip-rule="evenodd" d="M276.426 522.543C262.679 522.543 249.943 546.316 262.129 546.316H286.741C294.473 546.316 291.958 532.761 287.971 522.543H276.426Z" fill="#BEE9D2"/>
<path fill-rule="evenodd" clip-rule="evenodd" d="M324.819 542.939C324.86 544.817 326.393 546.319 328.269 546.319H386.658C388.269 546.319 389.575 545.011 389.575 543.398C389.575 543.215 389.557 543.032 389.523 542.853C387.561 532.524 379.358 526.816 364.913 525.729C362.517 525.729 360.121 529.65 357.725 537.493C357.35 538.72 356.218 539.559 354.936 539.559H328.123C326.298 539.559 324.819 541.04 324.819 542.867C324.819 542.891 324.819 542.915 324.819 542.939Z" fill="#0B7C68"/>
<path d="M263.395 525.211C269.453 523.483 275.142 523.811 280.387 526.211C285.852 528.711 289.008 533.999 289.88 541.833C289.982 542.751 289.319 543.578 288.4 543.68C287.481 543.782 286.653 543.12 286.551 542.203C285.799 535.445 283.27 531.208 278.991 529.251C274.493 527.192 269.625 526.912 264.315 528.426C263.426 528.68 262.499 528.166 262.245 527.278C261.991 526.39 262.506 525.465 263.395 525.211Z" fill="#F1E8E0"/>
<path fill-rule="evenodd" clip-rule="evenodd" d="M259.921 546.328H290.976C292.229 546.328 293.245 545.311 293.245 544.056C293.245 542.801 292.229 541.784 290.976 541.784H287.496C286.69 531.081 280.74 525.729 269.646 525.729C260.495 525.729 255.324 530.402 254.134 539.748C253.726 542.948 255.987 545.873 259.183 546.281C259.428 546.312 259.674 546.328 259.921 546.328Z" fill="#0B7C68"/>
<path d="M363.136 524.448C363.762 523.82 364.778 523.82 365.404 524.448C366.031 525.075 366.031 526.092 365.404 526.719C361.923 530.205 359.435 534.818 357.948 540.587C357.771 541.274 357.166 541.76 356.463 541.79L356.395 541.792H326.059C325.173 541.792 324.455 541.073 324.455 540.185C324.455 539.32 325.139 538.614 325.995 538.58L326.059 538.579H355.17L355.23 538.372C356.863 532.806 359.438 528.216 362.959 524.626L363.136 524.448Z" fill="#F1E8E0"/>
<path fill-rule="evenodd" clip-rule="evenodd" d="M355.704 462.815L356.613 452.158C357.334 443.699 357.174 435.188 356.134 426.763L354.576 414.135C353.693 406.982 353.444 399.765 353.831 392.568L354.835 373.892C355.188 367.312 355.011 360.714 354.302 354.162L352.029 333.126H259.859L259.136 338.158C256.242 358.279 256.195 378.707 258.997 398.841C260.833 412.033 261.448 425.367 260.835 438.672L260.568 444.447C260.096 454.681 260.351 464.936 261.33 475.135L263.513 497.862L261.638 511.91C260.696 518.96 266.173 525.226 273.276 525.226H286.938C300.675 525.226 300.675 505.959 300.675 505.959C300.675 505.959 298.79 494.397 300.675 487.257C302.561 480.116 303.734 465.601 304.599 449.513C304.921 443.508 307.208 439.445 309.666 434.997C310.503 439.625 311.662 444.703 313.257 449.513C318.117 464.162 318.79 478.171 318.428 484.145C317.753 495.25 318.611 506.396 320.977 517.266L321.025 517.487C322.009 522.004 326.003 525.226 330.621 525.226H347.877C353.301 525.226 357.698 520.823 357.698 515.393V507.671C357.698 501.907 357.291 496.15 356.48 490.444C355.179 481.293 354.919 472.024 355.704 462.815Z" fill="#3E1B72"/>
<path d="M303.433 449.449L305.763 449.575L305.671 451.263C304.682 469.079 303.498 480.983 301.854 487.357L301.803 487.555L299.547 486.958C301.162 480.841 302.351 468.959 303.342 451.122L303.433 449.449ZM318.442 391.779L320.384 393.075C319.919 393.773 319.528 394.445 319.196 395.112C318.301 396.914 317.808 398.752 317.555 401.167L317.518 401.538C317.329 403.552 317.296 405.401 317.307 410.609L317.312 413.001L317.312 413.468C317.312 417.922 316.672 421.83 315.442 425.53C314.527 428.283 313.443 430.599 311.632 433.911L309.787 437.254C307.202 442.012 306.028 445.259 305.775 449.372L305.763 449.575L303.433 449.45C303.678 444.899 304.918 441.366 307.606 436.38L309.455 433.027L309.7 432.579C311.38 429.494 312.385 427.329 313.228 424.792C314.35 421.415 314.948 417.853 314.977 413.782L314.975 411.273L314.972 408.718C314.974 404.721 315.025 403.072 315.209 401.169C315.481 398.374 316.048 396.203 317.107 394.071C317.446 393.389 317.837 392.708 318.289 392.012L318.442 391.779Z" fill="black"/>
<path fill-rule="evenodd" clip-rule="evenodd" d="M319.059 184.476C316.511 192.13 308.248 196.266 300.604 193.715C298.911 193.15 297.336 192.279 295.957 191.145L287.848 184.476H287.874L279.682 186.397C253.357 192.569 232.693 212.967 226.157 239.235L224.487 245.947C218.927 268.291 225.613 291.911 242.056 308.011C242.054 324.56 242.054 332.835 242.054 332.835C280.848 352.986 326.934 328.162 356.395 332.835C356.395 332.835 356.395 324.56 356.395 308.011C373.545 291.924 380.833 267.906 375.52 244.986L374.187 239.235C368.086 212.914 347.951 192.128 321.861 185.218L319.059 184.476Z" fill="#9E80F5"/>
<path fill-rule="evenodd" clip-rule="evenodd" d="M332.615 257.564C311.159 281.2 284.916 284.298 269.292 278.208C249.194 270.374 262.247 233.836 293.667 242.932C314.736 249.032 330.53 228.855 332.615 257.564Z" fill="#FFD4D4"/>
<path fill-rule="evenodd" clip-rule="evenodd" d="M316.537 226.77C312.853 236.683 306.372 253.194 325.982 257.863C340.741 261.377 346.161 247.59 348.904 239.796C352.936 228.338 350.312 219.816 339.65 215.428C325.131 209.452 318.742 220.839 316.537 226.77Z" fill="#BEE9D2"/>
<path d="M315.42 226.19L317.609 226.997L317.062 228.487C316.85 229.067 316.67 229.564 316.498 230.048L316.3 230.608C315.14 233.931 314.395 236.591 313.982 239.171C313.307 243.383 313.653 246.877 315.216 249.686C317.024 252.936 320.492 255.301 325.977 256.657L326.179 256.706L325.633 258.978C319.436 257.487 315.351 254.73 313.177 250.823C311.323 247.491 310.927 243.487 311.678 238.801C312.129 235.986 312.938 233.129 314.196 229.557L314.417 228.935C314.517 228.657 314.62 228.37 314.732 228.062L315.42 226.19Z" fill="black"/>
<path fill-rule="evenodd" clip-rule="evenodd" d="M330.066 240.32C329.831 240.32 329.585 240.287 329.328 240.217C329.199 240.182 329.067 240.136 328.938 240.079C325.765 238.683 327.478 234.726 328.041 233.425C328.296 232.836 328.976 232.567 329.56 232.824C330.144 233.081 330.411 233.767 330.156 234.356C329.318 236.293 329.341 237.164 329.429 237.511C329.485 237.728 329.577 237.821 329.858 237.945C329.88 237.955 329.904 237.963 329.928 237.97C330.44 238.113 331.19 237.052 332.152 234.828C332.407 234.239 333.087 233.969 333.672 234.226C334.256 234.483 334.523 235.169 334.268 235.758C333.558 237.4 332.294 240.319 330.066 240.32Z" fill="black"/>
<path d="M329.173 204.461L331.461 204.919L331.462 204.916L331.459 204.944C331.439 205.125 331.443 205.361 331.49 205.626C331.559 206.008 331.707 206.382 331.956 206.736C332.557 207.589 333.684 208.264 335.524 208.644L335.664 208.672C339.211 209.362 341.073 211.533 341.539 214.63C341.718 215.817 341.688 216.967 341.52 218.376L341.466 218.802L341.419 219.155L339.106 218.846L339.171 218.355L339.18 218.287C339.345 216.979 339.38 215.964 339.231 214.978C338.911 212.848 337.78 211.501 335.341 210.99L335.218 210.965C332.735 210.482 331.035 209.482 330.049 208.082C329.241 206.934 329.025 205.729 329.139 204.688C329.148 204.611 329.157 204.547 329.166 204.496L329.173 204.461ZM322.753 204.516L325.061 204.865L325.051 204.954L325.048 204.986C324.978 205.827 325.087 206.832 325.508 207.76C326.093 209.047 327.191 209.961 329.031 210.383L329.157 210.411C334.76 211.605 337.653 214.891 337.249 218.461L337.236 218.569L334.922 218.264C335.221 215.997 333.269 213.716 328.817 212.727L328.671 212.696C326.025 212.132 324.286 210.712 323.384 208.727C322.794 207.428 322.633 206.095 322.713 204.92L322.723 204.791C322.728 204.73 322.733 204.676 322.739 204.63L322.753 204.516Z" fill="black"/>
<path fill-rule="evenodd" clip-rule="evenodd" d="M321.271 237.983C321.051 237.983 320.841 237.955 320.643 237.903C320.516 237.868 320.392 237.826 320.274 237.775C319.154 237.294 317.575 235.816 319.565 231.326C319.805 230.783 320.448 230.535 320.998 230.772C321.55 231.009 321.802 231.641 321.561 232.184C320.583 234.391 320.647 235.595 321.144 235.808C321.166 235.818 321.19 235.826 321.213 235.832C321.769 235.979 322.856 234.693 323.488 232.753C323.671 232.188 324.285 231.877 324.858 232.059C325.431 232.24 325.746 232.844 325.562 233.408C324.451 236.817 322.679 237.983 321.271 237.983Z" fill="black"/>
<path fill-rule="evenodd" clip-rule="evenodd" d="M344.6 273.321C348.49 268.835 351.792 263.841 354.24 259.721C357.172 254.786 357.758 247.808 353.214 243.785C350.071 241.003 345.663 239.932 344.302 243.276C341.979 248.988 336.897 254.068 332.615 257.628L344.6 273.321Z" fill="#BEE9D2"/>
<path d="M331.76 256.764L332.707 255.722L348.342 276.494L347.873 277.185C343.842 283.13 339.631 288.565 334.607 293.898C327.846 301.074 320.457 307.08 312.358 311.564C302.65 316.938 292.264 319.921 281.191 320.092C268.726 320.284 255.631 316.902 241.915 309.554L241.499 309.331L240.473 308.775L241.582 306.72L242.608 307.275C256.134 314.593 268.976 317.944 281.155 317.756C291.829 317.592 301.844 314.715 311.229 309.519C319.1 305.162 326.304 299.306 332.909 292.295C337.579 287.338 341.538 282.284 345.314 276.792L345.471 276.563L332.531 259.369L332.253 259.665C322.433 270.028 311.167 276.829 299.453 280.008L299.083 280.107C288.318 282.956 277.637 282.569 269.153 279.342L268.896 279.243L267.809 278.82L268.654 276.642L269.742 277.065C277.794 280.199 288.077 280.603 298.486 277.849C310.27 274.73 321.624 267.799 331.462 257.089L331.76 256.764Z" fill="black"/>
<path d="M352.254 242.567L354.58 242.753L354.487 243.917C354.205 247.46 352.987 250.759 351.136 253.749C350.394 254.947 349.599 256.015 348.802 256.939L348.645 257.12C348.286 257.529 347.992 257.835 347.786 258.034L347.703 258.113L346.849 258.909L345.258 257.2L346.143 256.374C346.18 256.338 346.237 256.282 346.31 256.207L346.349 256.167C346.554 255.956 346.785 255.704 347.036 255.413C347.756 254.577 348.479 253.607 349.153 252.518C350.782 249.887 351.86 247.007 352.143 243.95L352.161 243.731L352.254 242.567ZM346.719 240.809L349.044 241.007L348.945 242.171C348.672 245.371 347.687 248.349 346.217 251.048C345.606 252.171 344.95 253.171 344.292 254.037L344.154 254.217C343.863 254.592 343.623 254.875 343.452 255.062L343.379 255.141L342.576 255.989L340.883 254.382L341.713 253.504C341.742 253.472 341.785 253.424 341.84 253.36L341.875 253.32C342.042 253.124 342.231 252.891 342.435 252.623C343.024 251.847 343.616 250.945 344.168 249.93C345.454 247.567 346.326 244.978 346.597 242.217L346.62 241.973L346.719 240.809Z" fill="black"/>
<path fill-rule="evenodd" clip-rule="evenodd" d="M237.531 138.771C240.043 151.696 244.651 173.297 219.594 175.027C200.736 176.329 196.878 158.29 195.092 148.159C192.467 133.265 197.426 123.335 211.427 120.123C230.491 115.748 236.027 131.037 237.531 138.771Z" fill="#FFBF80"/>
<path fill-rule="evenodd" clip-rule="evenodd" d="M227.761 182.724V169.582H206.176L205.593 181.847L186.925 191.381L197.776 201.113C209.769 211.87 228.199 210.861 238.951 198.86L245.651 191.381L227.761 182.724Z" fill="#FFBF80"/>
<path fill-rule="evenodd" clip-rule="evenodd" d="M251.598 125.875C242.812 91.3614 170.454 94.8441 180.247 133.791C180.82 136.073 181.367 138.236 181.892 140.294C172.511 132.871 158.894 132.998 149.626 141.213C139.211 150.446 138.237 166.391 147.452 176.828C156.667 187.264 165.869 180.638 176.284 171.405C180.833 167.373 184.86 163.51 187.187 159.569C192.167 175.366 196.014 178.02 205.776 177.402C205.776 177.402 260.383 160.389 251.598 125.875Z" fill="#FFBF80"/>
<path fill-rule="evenodd" clip-rule="evenodd" d="M213.194 143.721C218.036 143.721 221.962 147.614 221.962 152.416C221.962 157.219 218.036 161.112 213.194 161.112C208.352 161.112 204.426 157.219 204.426 152.416C204.426 147.614 208.352 143.721 213.194 143.721ZM238.737 143.589C239.62 148.768 240.222 154.538 239.138 159.65L239.115 159.756C235.468 158.817 232.776 155.53 232.776 151.619C232.776 147.845 235.284 144.652 238.737 143.589Z" fill="#F8E2DC"/>
<path d="M236.514 137.974L238.804 137.524L239.297 140.05L239.434 140.768C240.19 144.777 240.625 147.808 240.805 150.839L240.817 151.055C241.174 157.509 240.19 162.747 237.396 166.81C234.075 171.639 228.354 174.484 219.93 175.11L219.674 175.128L219.514 172.797C227.414 172.256 232.557 169.727 235.474 165.485C237.925 161.92 238.818 157.169 238.487 151.184L238.463 150.768C238.282 147.921 237.862 145.023 237.14 141.196L236.895 139.918L236.514 137.974Z" fill="black"/>
<path fill-rule="evenodd" clip-rule="evenodd" d="M220.743 146.507C218.451 147.273 216.435 147.42 216.039 146.232C215.643 145.045 217.435 144.226 219.727 143.46C222.019 142.693 223.942 142.267 224.339 143.457C224.736 144.647 223.035 145.74 220.743 146.507Z" fill="black"/>
<path fill-rule="evenodd" clip-rule="evenodd" d="M231.896 146.303C229.649 145.415 228.01 144.23 228.469 143.065C228.928 141.9 230.826 142.427 233.074 143.315C235.322 144.203 237.068 145.114 236.609 146.281C236.149 147.448 234.144 147.191 231.896 146.303Z" fill="black"/>
<path fill-rule="evenodd" clip-rule="evenodd" d="M259.606 546.065C241.477 546.065 241.477 545.825 241.477 540.836V522.384H259.606C272.193 525.009 298.747 534.133 298.747 543.389C298.747 546.065 280.857 546.065 259.606 546.065Z" fill="#9E80F5"/>
<path fill-rule="evenodd" clip-rule="evenodd" d="M177.46 546.066C165.274 546.066 179.922 522.385 189.406 522.385C197.093 522.385 202.073 521.483 203.574 525.33C207.561 535.547 209.805 546.066 202.073 546.066H177.46Z" fill="#9E80F5"/>
<path fill-rule="evenodd" clip-rule="evenodd" d="M174.269 524.642H210.767L222.233 433.435L232.858 524.642H265.515L262.177 332.542H170.007L174.269 524.642Z" fill="#52B7AB"/>
<path d="M226.515 390.016L228.831 390.308L215.909 493.092L213.594 492.8L226.515 390.016Z" fill="black"/>
<path fill-rule="evenodd" clip-rule="evenodd" d="M255.085 250.034L267.291 330.451C267.569 332.282 266.878 334.127 265.461 335.317C261.55 338.598 251.735 343.821 230.529 340.837C200.654 336.635 172.341 336.28 172.341 336.28L158.533 311.824C149.607 296.014 146.636 277.525 150.159 259.71L157.578 222.193C159.823 210.837 167.12 201.127 177.397 195.822L193.967 187.268C199.51 192.082 208.935 198.015 221.719 198.015C229.316 198.015 234.868 193.424 238.877 187.488L247.794 191.855C257.459 196.589 264.413 205.51 266.651 216.046L272.661 244.34C272.661 244.34 258.889 243.911 255.085 250.034Z" fill="#FFD4D4"/>
<path fill-rule="evenodd" clip-rule="evenodd" d="M177.339 279.773L182.426 249.475C172.924 244.01 160.288 243.646 153.262 244.013L150.158 259.71C146.636 277.525 149.607 296.014 158.533 311.824L185.203 359.061L199.514 347.409L177.339 279.773Z" fill="#FFBF80"/>
<path d="M201.485 344.299L202.957 346.111L182.416 362.836L180.944 361.023L201.485 344.299Z" fill="black"/>
<path fill-rule="evenodd" clip-rule="evenodd" d="M295.09 222.05L277.851 219.026C274.677 218.47 272.555 215.443 273.111 212.265L281.163 166.239C281.719 163.062 284.743 160.937 287.916 161.493L305.155 164.517C308.329 165.073 310.451 168.1 309.895 171.278L301.842 217.304C301.286 220.482 298.263 222.606 295.09 222.05Z" fill="#1B3968"/>
<path fill-rule="evenodd" clip-rule="evenodd" d="M284.394 181.63C282.807 181.352 281.746 179.839 282.024 178.25L284.037 166.743C284.315 165.154 285.826 164.092 287.413 164.37H287.413C289 164.649 290.061 166.162 289.783 167.751L287.77 179.257C287.492 180.846 285.98 181.909 284.394 181.63Z" fill="#0B7C68"/>
<path fill-rule="evenodd" clip-rule="evenodd" d="M286.608 168.973C285.656 168.806 285.019 167.898 285.186 166.945C285.353 165.992 286.26 165.354 287.212 165.521C288.164 165.688 288.8 166.596 288.634 167.549C288.467 168.503 287.56 169.14 286.608 168.973Z" fill="#B9CCEA"/>
<path fill-rule="evenodd" clip-rule="evenodd" d="M285.601 174.726C284.649 174.559 284.012 173.651 284.179 172.698C284.346 171.745 285.253 171.107 286.205 171.274C287.157 171.441 287.794 172.349 287.627 173.302C287.46 174.256 286.553 174.893 285.601 174.726Z" fill="#B9CCEA"/>
<path fill-rule="evenodd" clip-rule="evenodd" d="M284.595 180.48C283.643 180.312 283.006 179.405 283.173 178.451C283.34 177.498 284.247 176.861 285.199 177.028C286.151 177.195 286.788 178.103 286.621 179.056C286.454 180.009 285.547 180.647 284.595 180.48Z" fill="#B9CCEA"/>
<path fill-rule="evenodd" clip-rule="evenodd" d="M312.1 206.729L302.779 181.448C302.338 180.251 301.013 179.637 299.816 180.075C298.673 180.494 298.05 181.729 298.391 182.898L302.297 196.282L296.215 180.208C295.789 179.083 294.519 178.531 293.408 178.99C292.386 179.411 291.854 180.544 292.184 181.601L297.59 198.945L291.039 184.99C290.488 183.817 289.063 183.352 287.927 183.975C286.933 184.521 286.501 185.722 286.919 186.777L292.73 201.422L287.069 190.682C286.475 189.555 285.041 189.185 283.977 189.884C283.153 190.425 282.8 191.457 283.12 192.39L286.469 202.171C287.456 205.054 287.463 208.183 286.487 211.07L285.593 213.712C283.937 218.612 284.067 223.942 285.961 228.756L273.988 250.59L272.661 244.34C272.66 244.34 258.889 243.911 255.085 250.034L260.589 286.296C260.589 286.296 262.44 288.53 267.301 289.723C293.626 296.184 306.957 225.762 306.957 225.762L311.069 218.671C313.172 215.043 313.55 210.664 312.1 206.729Z" fill="#FFBF80"/>
<path d="M254.577 238.912L264.048 301.31L261.741 301.661L252.27 239.263L254.577 238.912Z" fill="black"/>
<path d="M176.886 274.646L190.629 316.563L188.412 317.292L174.669 275.375L176.886 274.646Z" fill="black"/>
<path d="M210.396 328.562C216.991 329.182 223.452 329.918 229.706 330.782L230.691 330.919C241.15 332.39 248.952 331.945 254.465 330.046L254.632 329.988L255.407 332.192C249.557 334.255 241.44 334.757 230.693 333.278L230.367 333.233C224.17 332.361 217.762 331.615 211.213 330.986L210.178 330.888L210.396 328.562Z" fill="black"/>
</g>
<defs>
<linearGradient id="paint0_linear" x1="228.446" y1="491.004" x2="487.118" y2="135.803" gradientUnits="userSpaceOnUse">
<stop stop-color="#E0D7BC"/>
<stop offset="1" stop-color="white"/>
</linearGradient>
<clipPath id="clip0">
<rect width="791" height="610" fill="white"/>
</clipPath>
</defs>
</svg>
