<svg width="25" height="25" viewBox="0 0 25 25" fill="none" xmlns="http://www.w3.org/2000/svg">
<path d="M12.5 24.1667C19.4036 24.1667 25 18.7568 25 12.0833C25 5.40989 19.4036 0 12.5 0C5.59644 0 0 5.40989 0 12.0833C0 18.7568 5.59644 24.1667 12.5 24.1667Z" fill="#00968B"/>
<path fill-rule="evenodd" clip-rule="evenodd" d="M5.76909 18.1251H8.6484V9.15012H5.76909V18.1251ZM5.56651 6.32845C5.56651 7.23012 6.29668 7.93595 7.22944 7.93595C7.66977 7.93398 8.09146 7.76396 8.40275 7.4629C8.71403 7.16183 8.88969 6.7541 8.89151 6.32845C8.89393 6.11681 8.8526 5.90683 8.76993 5.71085C8.68726 5.51486 8.56492 5.33681 8.4101 5.18715C8.25528 5.03748 8.07109 4.91923 7.86834 4.83931C7.6656 4.7594 7.44838 4.71944 7.22944 4.72179C7.01043 4.71933 6.79312 4.75921 6.59027 4.83907C6.38742 4.91893 6.20313 5.03717 6.04821 5.18684C5.8933 5.33652 5.77089 5.51461 5.68816 5.71065C5.60544 5.90669 5.56408 6.11674 5.56651 6.32845ZM16.595 18.126H19.4337V13.1868C19.4337 10.7568 18.9062 8.91429 15.9872 8.91429C14.6079 8.91429 13.6355 9.65929 13.2708 10.3643H13.2303V9.15012H10.4725V18.1251H13.3519V13.6968C13.3519 12.521 13.595 11.3843 15.095 11.3843C16.595 11.3843 16.595 12.7168 16.595 13.7751V18.126Z" fill="white"/>
</svg>
