<svg width="29" height="30" fill="none" xmlns="http://www.w3.org/2000/svg"><circle cx="14.5" cy="15.45" r="14.5" fill="#42B4A7"/><path fill-rule="evenodd" clip-rule="evenodd" d="M6.692 22.7h3.34V11.93h-3.34V22.7ZM6.457 8.544c0 1.082.847 1.929 1.929 1.929a1.937 1.937 0 0 0 1.928-1.929 1.907 1.907 0 0 0-1.928-1.928 1.907 1.907 0 0 0-1.929 1.928ZM19.25 22.701h3.293v-5.927c0-2.916-.612-5.127-3.998-5.127-1.6 0-2.728.894-3.151 1.74h-.047V11.93h-3.199V22.7h3.34v-5.314c0-1.411.282-2.775 2.022-2.775 1.74 0 1.74 1.599 1.74 2.869v5.22Z" fill="#fff"/></svg>