<svg width="1371" height="296" viewBox="0 0 1371 296" fill="none" xmlns="http://www.w3.org/2000/svg">
<g clip-path="url(#clip0_177_295)">
<path d="M880.126 246.714C870.331 246.714 861.66 244.548 854.112 240.216C846.726 235.724 840.945 229.707 836.77 222.166V295.57H804.494V118.198H832.675V139.858C837.493 132.478 843.595 126.702 850.981 122.53C858.368 118.198 866.798 116.032 876.272 116.032C884.783 116.032 892.571 117.717 899.636 121.086C906.862 124.455 913.124 129.189 918.423 135.286C923.722 141.222 927.817 148.121 930.708 155.983C933.759 163.684 935.284 172.027 935.284 181.012C935.284 193.206 932.875 204.277 928.058 214.224C923.401 224.172 916.898 232.114 908.548 238.05C900.359 243.826 890.885 246.714 880.126 246.714ZM869.287 219.278C874.265 219.278 878.761 218.235 882.775 216.15C886.79 214.064 890.242 211.256 893.133 207.726C896.184 204.036 898.432 199.945 899.877 195.452C901.483 190.799 902.285 185.986 902.285 181.012C902.285 175.718 901.402 170.824 899.636 166.332C898.03 161.839 895.622 157.908 892.41 154.539C889.198 151.009 885.425 148.282 881.089 146.356C876.914 144.431 872.338 143.468 867.36 143.468C864.309 143.468 861.178 144.03 857.966 145.153C854.915 146.116 851.945 147.56 849.054 149.485C846.164 151.41 843.595 153.656 841.347 156.224C839.259 158.791 837.734 161.598 836.77 164.647V194.249C838.697 198.902 841.266 203.154 844.478 207.004C847.85 210.855 851.704 213.903 856.039 216.15C860.375 218.235 864.791 219.278 869.287 219.278Z" fill="white"/>
<path d="M941.857 68.6208H974.133V203.876C974.133 209.652 975.096 213.582 977.023 215.668C978.95 217.594 981.6 218.556 984.972 218.556C987.541 218.556 990.191 218.235 992.92 217.594C995.65 216.952 998.059 216.15 1000.15 215.187L1004.48 239.735C1000.15 241.821 995.088 243.425 989.307 244.548C983.527 245.671 978.308 246.233 973.651 246.233C963.535 246.233 955.667 243.586 950.046 238.291C944.587 232.836 941.857 225.134 941.857 215.187V68.6208Z" fill="white"/>
<path d="M994.819 207.004C994.819 198.822 997.067 191.682 1001.56 185.585C1006.22 179.328 1012.64 174.514 1020.83 171.145C1029.02 167.776 1038.42 166.091 1049.01 166.091C1054.31 166.091 1059.69 166.492 1065.15 167.294C1070.61 168.096 1075.35 169.38 1079.36 171.145V164.406C1079.36 156.384 1076.95 150.207 1072.14 145.875C1067.48 141.543 1060.5 139.377 1051.18 139.377C1044.28 139.377 1037.69 140.58 1031.43 142.987C1025.17 145.394 1018.58 148.923 1011.68 153.576L1001.32 132.398C1009.67 126.942 1018.18 122.851 1026.85 120.123C1035.69 117.396 1044.92 116.032 1054.55 116.032C1072.54 116.032 1086.51 120.525 1096.46 129.51C1106.58 138.494 1111.64 151.33 1111.64 168.016V208.208C1111.64 211.577 1112.2 213.984 1113.32 215.428C1114.61 216.872 1116.62 217.754 1119.35 218.075V244.308C1116.46 244.789 1113.81 245.19 1111.4 245.511C1109.15 245.832 1107.22 245.992 1105.62 245.992C1099.19 245.992 1094.3 244.548 1090.92 241.66C1087.71 238.772 1085.71 235.242 1084.9 231.071L1084.18 224.573C1078.72 231.632 1071.9 237.088 1063.71 240.938C1055.52 244.789 1047.17 246.714 1038.66 246.714C1030.31 246.714 1022.76 245.03 1016.02 241.66C1009.43 238.13 1004.21 233.397 1000.36 227.461C996.666 221.364 994.819 214.545 994.819 207.004ZM1073.34 213.502C1075.11 211.577 1076.55 209.652 1077.68 207.726C1078.8 205.801 1079.36 204.036 1079.36 202.432V189.676C1075.51 188.072 1071.33 186.868 1066.84 186.066C1062.34 185.104 1058.09 184.622 1054.07 184.622C1045.72 184.622 1038.82 186.467 1033.36 190.158C1028.06 193.687 1025.41 198.42 1025.41 204.357C1025.41 207.566 1026.29 210.614 1028.06 213.502C1029.82 216.39 1032.39 218.717 1035.77 220.482C1039.14 222.246 1043.15 223.129 1047.81 223.129C1052.63 223.129 1057.36 222.246 1062.02 220.482C1066.68 218.556 1070.45 216.23 1073.34 213.502Z" fill="white"/>
<path d="M1185.52 246.714C1175.24 246.714 1166.01 245.03 1157.82 241.66C1149.63 238.13 1142.64 233.317 1136.86 227.22C1131.08 220.963 1126.59 213.903 1123.37 206.042C1120.32 198.18 1118.8 189.917 1118.8 181.253C1118.8 169.38 1121.45 158.55 1126.75 148.763C1132.21 138.815 1139.91 130.873 1149.87 124.937C1159.82 119 1171.63 116.032 1185.28 116.032C1198.92 116.032 1210.65 119 1220.44 124.937C1230.24 130.873 1237.54 138.655 1242.36 148.282L1210.81 157.908C1208.08 153.255 1204.46 149.726 1199.97 147.319C1195.47 144.752 1190.49 143.468 1185.04 143.468C1178.93 143.468 1173.31 145.073 1168.17 148.282C1163.2 151.33 1159.26 155.742 1156.37 161.518C1153.48 167.134 1152.04 173.712 1152.04 181.253C1152.04 188.633 1153.48 195.212 1156.37 200.988C1159.42 206.603 1163.44 211.096 1168.42 214.465C1173.39 217.674 1178.93 219.278 1185.04 219.278C1188.89 219.278 1192.5 218.636 1195.87 217.353C1199.41 216.069 1202.54 214.304 1205.27 212.058C1208 209.812 1210 207.245 1211.29 204.357L1242.84 213.984C1239.95 220.241 1235.7 225.856 1230.08 230.83C1224.62 235.804 1218.11 239.735 1210.57 242.623C1203.18 245.35 1194.83 246.714 1185.52 246.714Z" fill="white"/>
<path d="M1305 246.714C1294.89 246.714 1285.73 245.03 1277.54 241.66C1269.35 238.13 1262.37 233.397 1256.59 227.461C1250.81 221.364 1246.31 214.465 1243.1 206.764C1240.05 198.902 1238.52 190.639 1238.52 181.975C1238.52 169.942 1241.17 158.951 1246.47 149.004C1251.93 139.056 1259.64 131.114 1269.6 125.177C1279.71 119.081 1291.59 116.032 1305.24 116.032C1319.05 116.032 1330.86 119.081 1340.65 125.177C1350.45 131.114 1357.91 139.056 1363.05 149.004C1368.35 158.791 1371 169.38 1371 180.772C1371 182.697 1370.92 184.702 1370.76 186.788C1370.6 188.714 1370.44 190.318 1370.28 191.602H1272.73C1273.37 198.019 1275.22 203.635 1278.27 208.448C1281.48 213.262 1285.49 216.952 1290.31 219.519C1295.29 221.926 1300.59 223.129 1306.21 223.129C1312.63 223.129 1318.65 221.605 1324.27 218.556C1330.05 215.347 1333.99 211.176 1336.07 206.042L1363.77 213.743C1360.72 220.161 1356.31 225.856 1350.53 230.83C1344.91 235.804 1338.24 239.735 1330.53 242.623C1322.83 245.35 1314.32 246.714 1305 246.714ZM1272 171.145H1338C1337.36 164.727 1335.51 159.192 1332.46 154.539C1329.57 149.726 1325.72 146.035 1320.9 143.468C1316.08 140.741 1310.7 139.377 1304.76 139.377C1298.98 139.377 1293.68 140.741 1288.86 143.468C1284.21 146.035 1280.35 149.726 1277.3 154.539C1274.41 159.192 1272.65 164.727 1272 171.145Z" fill="white"/>
<path d="M319.167 245.856C308.086 245.856 297.567 243.605 287.611 239.104C277.815 234.603 269.143 228.414 261.595 220.537C254.208 212.499 248.427 203.175 244.251 192.565C240.076 181.955 237.988 170.461 237.988 158.082C237.988 146.347 240.076 135.335 244.251 125.047C248.427 114.597 254.288 105.434 261.836 97.5571C269.384 89.68 278.216 83.4908 288.333 78.9896C298.45 74.4884 309.451 72.2378 321.335 72.2378C337.394 72.2378 351.124 75.6941 362.526 82.6067C374.088 89.3585 382.76 98.3609 388.541 109.614L363.73 127.94C359.394 119.42 353.292 112.909 345.423 108.408C337.715 103.907 329.284 101.656 320.13 101.656C312.904 101.656 306.319 103.184 300.378 106.238C294.436 109.292 289.297 113.472 284.961 118.777C280.625 124.082 277.253 130.191 274.844 137.103C272.595 144.016 271.471 151.33 271.471 159.047C271.471 167.245 272.676 174.801 275.085 181.714C277.654 188.626 281.187 194.655 285.684 199.799C290.341 204.943 295.72 209.042 301.823 212.097C307.925 214.99 314.67 216.437 322.057 216.437C330.729 216.437 338.999 214.187 346.868 209.685C354.898 205.184 362.365 198.593 369.271 189.912V222.707C354.978 238.139 338.277 245.856 319.167 245.856ZM366.862 180.99H332.415V156.635H394.323V244.65H366.862V180.99Z" fill="white"/>
<path d="M462.76 247.061C452.483 247.061 443.249 245.374 435.059 241.998C426.869 238.461 419.883 233.638 414.102 227.529C408.481 221.421 404.145 214.428 401.094 206.551C398.043 198.674 396.517 190.394 396.517 181.714C396.517 172.872 398.043 164.513 401.094 156.635C404.145 148.758 408.481 141.765 414.102 135.657C419.883 129.548 426.869 124.805 435.059 121.43C443.249 117.893 452.483 116.125 462.76 116.125C473.038 116.125 482.192 117.893 490.221 121.43C498.411 124.805 505.397 129.548 511.178 135.657C516.96 141.765 521.296 148.758 524.186 156.635C527.237 164.513 528.763 172.872 528.763 181.714C528.763 190.394 527.237 198.674 524.186 206.551C521.296 214.428 516.96 221.421 511.178 227.529C505.558 233.638 498.652 238.461 490.462 241.998C482.272 245.374 473.038 247.061 462.76 247.061ZM429.759 181.714C429.759 189.108 431.204 195.699 434.095 201.487C436.986 207.113 440.92 211.534 445.898 214.749C450.877 217.964 456.497 219.572 462.76 219.572C468.863 219.572 474.403 217.964 479.382 214.749C484.36 211.373 488.294 206.872 491.185 201.246C494.236 195.458 495.762 188.867 495.762 181.472C495.762 174.238 494.236 167.728 491.185 161.94C488.294 156.153 484.36 151.652 479.382 148.437C474.403 145.222 468.863 143.614 462.76 143.614C456.497 143.614 450.877 145.302 445.898 148.678C440.92 151.893 436.986 156.394 434.095 162.182C431.204 167.808 429.759 174.319 429.759 181.714Z" fill="white"/>
<path d="M593.789 247.061C583.511 247.061 574.277 245.374 566.087 241.998C557.897 238.461 550.911 233.638 545.13 227.529C539.509 221.421 535.173 214.428 532.122 206.551C529.071 198.674 527.545 190.394 527.545 181.714C527.545 172.872 529.071 164.513 532.122 156.635C535.173 148.758 539.509 141.765 545.13 135.657C550.911 129.548 557.897 124.805 566.087 121.43C574.277 117.893 583.511 116.125 593.789 116.125C604.067 116.125 613.22 117.893 621.25 121.43C629.44 124.805 636.425 129.548 642.207 135.657C647.988 141.765 652.324 148.758 655.214 156.635C658.266 164.513 659.791 172.872 659.791 181.714C659.791 190.394 658.266 198.674 655.214 206.551C652.324 214.428 647.988 221.421 642.207 227.529C636.586 233.638 629.681 238.461 621.491 241.998C613.3 245.374 604.067 247.061 593.789 247.061ZM560.787 181.714C560.787 189.108 562.233 195.699 565.123 201.487C568.014 207.113 571.949 211.534 576.927 214.749C581.905 217.964 587.526 219.572 593.789 219.572C599.891 219.572 605.432 217.964 610.41 214.749C615.388 211.373 619.323 206.872 622.213 201.246C625.264 195.458 626.79 188.867 626.79 181.472C626.79 174.238 625.264 167.728 622.213 161.94C619.323 156.153 615.388 151.652 610.41 148.437C605.432 145.222 599.891 143.614 593.789 143.614C587.526 143.614 581.905 145.302 576.927 148.678C571.949 151.893 568.014 156.394 565.123 162.182C562.233 167.808 560.787 174.319 560.787 181.714Z" fill="white"/>
<path d="M658.815 181.472C658.815 169.255 661.223 158.243 666.041 148.437C670.859 138.47 677.523 130.593 686.035 124.805C694.546 119.018 704.262 116.125 715.182 116.125C724.496 116.125 732.847 118.456 740.234 123.118C747.781 127.619 753.643 133.406 757.818 140.479V68.6208H790.097V208.48C790.097 211.856 790.659 214.267 791.783 215.714C792.907 217.161 794.834 218.045 797.564 218.366V244.65C791.944 245.775 787.367 246.338 783.834 246.338C778.053 246.338 773.235 244.891 769.381 241.998C765.687 239.104 763.6 235.326 763.118 230.664L762.636 222.707C757.979 230.584 751.636 236.612 743.606 240.792C735.737 244.972 727.467 247.061 718.795 247.061C710.123 247.061 702.094 245.374 694.706 241.998C687.48 238.622 681.137 233.96 675.677 228.012C670.377 222.064 666.202 215.151 663.15 207.274C660.26 199.236 658.815 190.636 658.815 181.472ZM757.818 198.352V168.21C756.212 163.548 753.643 159.368 750.11 155.671C746.577 151.973 742.643 149.08 738.307 146.99C733.971 144.739 729.635 143.614 725.299 143.614C720.321 143.614 715.824 144.659 711.809 146.749C707.795 148.839 704.262 151.652 701.21 155.189C698.32 158.725 696.071 162.825 694.466 167.487C693.02 172.149 692.298 177.052 692.298 182.196C692.298 187.34 693.101 192.243 694.706 196.905C696.473 201.406 698.962 205.345 702.174 208.721C705.386 212.097 709.079 214.749 713.255 216.678C717.591 218.607 722.248 219.572 727.226 219.572C730.277 219.572 733.328 219.09 736.38 218.125C739.591 217 742.562 215.553 745.292 213.785C748.183 211.856 750.672 209.605 752.76 207.033C755.008 204.3 756.694 201.406 757.818 198.352Z" fill="white"/>
<path d="M115.135 66.3077C161.978 66.3077 199.951 104.633 199.951 151.909C199.951 183.487 183.009 211.072 157.799 225.909C150.992 224.441 142.286 220.641 132.331 212.185C116.439 198.685 109.856 165.796 104.634 132.836L103.82 127.634C100.108 103.679 91.5609 85.5265 74.7891 76.6048C86.7853 70.0338 100.529 66.3077 115.135 66.3077ZM145.254 173.32C141.527 176.262 142.071 174.618 139.722 175.576C137.373 176.534 136.365 178.94 134.37 179.754C132.376 180.567 132.017 182.066 132.326 184.302C132.635 186.538 134.335 188.178 135.593 188.603C136.93 189.055 141.204 189.073 141.204 189.073C141.204 189.073 145.515 191.139 143.198 194.054C140.881 196.969 152.974 199.749 154.076 197.63C155.178 195.512 161.781 190.812 158.182 187.944C154.582 185.077 153.841 184.298 154 181.097C154.159 177.895 156.268 177.396 152.45 176.096C148.632 174.797 148.98 170.379 145.254 173.32ZM135.632 75.8495C130.756 77.6251 113.647 83.6658 113.486 89.8973C113.326 96.1288 107.917 98.1955 110.01 100.163C113.356 103.308 116.506 102.045 119.224 105.509C121.035 107.819 120.932 111.206 118.915 115.671C114.121 120.703 112.124 125.116 112.922 128.907C114.12 134.595 115.149 132.561 118.915 137.808C122.68 143.055 122.664 145.997 125.358 147.153C128.053 148.308 130.71 145.334 131.578 143.236C132.447 141.138 127.874 139.858 130.927 137.808C132.474 136.77 135.664 135.863 138.15 140.524C143.188 149.969 140.511 146.543 141.266 151.323C142.02 156.103 136.934 156.045 141.266 160.266C145.598 164.486 157.38 161.231 160.047 163.126C162.714 165.02 160.795 161.339 163.683 171.733C166.571 182.128 181.923 180.802 186.216 168.92C188.035 163.887 188.28 163.458 188.374 163.279L188.41 163.205L188.493 162.933C188.612 162.375 188.616 160.955 186.414 158.131C181.057 151.259 185.259 151.334 184.636 149.686C184.013 148.037 184.357 146.704 182.264 147.153C180.171 147.601 176.846 147.823 176.36 145.519C175.875 143.214 176.821 135.234 175.995 134.563C175.17 133.893 173.201 130.349 166.937 134.349C162.761 137.015 159.822 137.1 158.118 134.604C151.554 130.469 151.67 123.625 158.467 114.074C165.003 104.89 167.419 108.183 170.092 111.647L170.74 112.475C172.056 114.112 173.511 115.562 175.59 115.463C182.346 115.142 184.321 118.354 185.325 114.074C186.328 109.793 182.705 105.437 181.634 105.249C180.564 105.061 168.987 100.929 173.508 99.0354C174.826 98.483 172.015 93.6511 161.574 85.9475C159.117 84.1341 154.114 81.2028 146.567 77.1538C142.528 75.1005 138.883 74.6657 135.632 75.8495Z" fill="white"/>
<path d="M115.135 66.3077C161.978 66.3077 199.951 104.633 199.951 151.909C199.951 183.487 183.009 211.072 157.799 225.909C150.992 224.441 142.286 220.641 132.331 212.185C116.439 198.685 109.856 165.796 104.634 132.836L103.82 127.634C100.108 103.679 91.5609 85.5265 74.7891 76.6048C86.7853 70.0338 100.529 66.3077 115.135 66.3077ZM145.254 173.32C141.527 176.262 142.071 174.618 139.722 175.576C137.373 176.534 136.365 178.94 134.37 179.754C132.376 180.567 132.017 182.066 132.326 184.302C132.635 186.538 134.335 188.178 135.593 188.603C136.93 189.055 141.204 189.073 141.204 189.073C141.204 189.073 145.515 191.139 143.198 194.054C140.881 196.969 152.974 199.749 154.076 197.63C155.178 195.512 161.781 190.812 158.182 187.944C154.582 185.077 153.841 184.298 154 181.097C154.159 177.895 156.268 177.396 152.45 176.096C148.632 174.797 148.98 170.379 145.254 173.32ZM135.632 75.8495C130.756 77.6251 113.647 83.6658 113.486 89.8973C113.326 96.1288 107.917 98.1955 110.01 100.163C113.356 103.308 116.506 102.045 119.224 105.509C121.035 107.819 120.932 111.206 118.915 115.671C114.121 120.703 112.124 125.116 112.922 128.907C114.12 134.595 115.149 132.561 118.915 137.808C122.68 143.055 122.664 145.997 125.358 147.153C128.053 148.308 130.71 145.334 131.578 143.236C132.447 141.138 127.874 139.858 130.927 137.808C132.474 136.77 135.664 135.863 138.15 140.524C143.188 149.969 140.511 146.543 141.266 151.323C142.02 156.103 136.934 156.045 141.266 160.266C145.598 164.486 157.38 161.231 160.047 163.126C162.714 165.02 160.795 161.339 163.683 171.733C166.571 182.128 181.923 180.802 186.216 168.92C188.035 163.887 188.28 163.458 188.374 163.279L188.41 163.205L188.493 162.933C188.612 162.375 188.616 160.955 186.414 158.131C181.057 151.259 185.259 151.334 184.636 149.686C184.013 148.037 184.357 146.704 182.264 147.153C180.171 147.601 176.846 147.823 176.36 145.519C175.875 143.214 176.821 135.234 175.995 134.563C175.17 133.893 173.201 130.349 166.937 134.349C162.761 137.015 159.822 137.1 158.118 134.604C151.554 130.469 151.67 123.625 158.467 114.074C165.003 104.89 167.419 108.183 170.092 111.647L170.74 112.475C172.056 114.112 173.511 115.562 175.59 115.463C182.346 115.142 184.321 118.354 185.325 114.074C186.328 109.793 182.705 105.437 181.634 105.249C180.564 105.061 168.987 100.929 173.508 99.0354C174.826 98.483 172.015 93.6511 161.574 85.9475C159.117 84.1341 154.114 81.2028 146.567 77.1538C142.528 75.1005 138.883 74.6657 135.632 75.8495Z" fill="white"/>
<path d="M142.983 226.707C145.032 227.517 148.07 228.55 152.091 229.804C137.039 240.921 119.472 246.483 99.368 246.483C68.7108 246.483 44.6345 230.262 32.559 218.073C18.9077 204.294 10.9005 191.339 6.30145 178.492C1.70123 165.642 0.5 152.871 0.5 139.436C0.5 124.484 4.43327 109.168 12.2735 97.605C20.1042 86.0564 31.8225 78.2587 47.4504 78.2587C63.1429 78.2587 74.3218 83.5664 82.1788 92.9224C90.0558 102.302 94.6373 115.802 97.0009 132.26C99.3723 148.773 102.857 166.347 107.622 181.449C112.379 196.526 118.44 209.232 126.015 215.913C134.104 223.046 139.119 225.18 142.983 226.707ZM50.9993 65.9514C33.1292 65.9514 18.6333 51.3048 18.6333 33.2257C18.6333 15.1467 33.1292 0.5 50.9993 0.5C68.8694 0.5 83.3653 15.1467 83.3653 33.2257C83.3653 51.3048 68.8694 65.9514 50.9993 65.9514Z" fill="white" stroke="white"/>
</g>
<defs>
<clipPath id="clip0_177_295">
<rect width="1371" height="296" fill="white"/>
</clipPath>
</defs>
</svg>
