<svg width="196" height="48" fill="none" xmlns="http://www.w3.org/2000/svg"><path d="M45.728 23.244c0 5.949-4.822 10.771-10.77 10.771-5.949 0-10.771-4.822-10.771-10.77 0-5.95 4.822-10.771 10.77-10.771 5.949 0 10.771 4.822 10.771 10.77Zm-17.253 0a6.482 6.482 0 1 0 12.965 0 6.482 6.482 0 0 0-12.965 0ZM68.907 23.244c0 5.949-4.822 10.771-10.77 10.771-5.95 0-10.771-4.822-10.771-10.77 0-5.95 4.822-10.771 10.77-10.771 5.949 0 10.771 4.822 10.771 10.77Zm-17.253 0a6.482 6.482 0 1 0 12.965 0 6.482 6.482 0 0 0-12.965 0ZM171.298 18.931c1.026-.592 1.391-1.922.608-2.81a10.773 10.773 0 0 0-11.173-3.193 10.773 10.773 0 0 0-4.943 17.487 10.773 10.773 0 0 0 16.901-1.05c.672-.975.153-2.253-.936-2.72-1.088-.466-2.328.074-3.123.951a6.49 6.49 0 0 1-5.921 2.034 6.483 6.483 0 1 1 5.374-11.274c.893.777 2.188 1.167 3.213.575Z" fill="#52B7AB"/><path fill-rule="evenodd" clip-rule="evenodd" d="M88.433.758a.63.63 0 0 0-.63.63v13.258a10.723 10.723 0 0 0-6.488-2.172c-5.948 0-10.77 4.822-10.77 10.77 0 5.949 4.822 10.771 10.77 10.771 5.949 0 10.771-4.822 10.771-10.77 0-.12-.002-.238-.006-.356a.634.634 0 0 0 .006-.085V1.387a.63.63 0 0 0-.63-.63h-3.023Zm-7.118 28.969a6.483 6.483 0 1 1 0-12.965 6.483 6.483 0 0 1 0 12.965ZM104.62 34.015c5.949 0 10.771-4.822 10.771-10.77 0-5.95-4.822-10.771-10.771-10.771-5.948 0-10.77 4.822-10.77 10.77 0 .153.003.306.01.457a.641.641 0 0 0-.01.11v21.416c0 .347.282.63.63.63h3.023a.63.63 0 0 0 .63-.63V31.843a10.722 10.722 0 0 0 6.487 2.172Zm0-4.288a6.482 6.482 0 1 1 0-12.965 6.482 6.482 0 0 1 0 12.965Z" fill="#52B7AB"/><path d="M118.037.758a.63.63 0 0 0-.63.63v22.045h.001a10.767 10.767 0 0 0 10.14 10.563.602.602 0 0 0 .629-.61v-3.03c0-.347-.282-.626-.628-.66a6.48 6.48 0 0 1-5.361-3.97 6.497 6.497 0 0 1-.493-2.482h-.005V1.388a.63.63 0 0 0-.63-.63h-3.023Z" fill="#52B7AB"/><path fill-rule="evenodd" clip-rule="evenodd" d="M193.954 17.46c.359-.388.296-.668.118-.893a10.771 10.771 0 1 0 1.905 9.636.602.602 0 0 0-.459-.748l-2.956-.66c-.339-.076-.673.14-.782.47a6.483 6.483 0 0 1-9.117 3.748l11.291-11.552Zm-14.245 8.445 8.436-8.632a6.484 6.484 0 0 0-8.436 8.631ZM151.032 23.701c.006-.151.009-.304.009-.457 0-5.948-4.822-10.77-10.77-10.77-5.949 0-10.771 4.822-10.771 10.77 0 5.949 4.822 10.771 10.771 10.771a10.72 10.72 0 0 0 6.487-2.172v1.542c0 .348.282.63.63.63h3.023a.63.63 0 0 0 .63-.63v-9.574a.662.662 0 0 0-.009-.11Zm-10.761 6.026a6.482 6.482 0 1 1-.001-12.965 6.482 6.482 0 0 1 .001 12.965Z" fill="#52B7AB"/><path d="M4.707 33.18a1.449 1.449 0 0 0 1.021 2.473h12.286v.003a5.703 5.703 0 0 1 3.877 1.707 5.827 5.827 0 0 1 1.666 4.084 5.828 5.828 0 0 1-1.666 4.085 5.7 5.7 0 0 1-4.066 1.71v-4.283c.372 0 .737-.15 1.011-.43.276-.28.438-.669.438-1.082 0-.413-.162-.801-.438-1.082-.274-.28-.639-.43-1.01-.43H5.668a5.732 5.732 0 0 1-3.99-9.784l3.028 3.028Z" fill="#52B7AB"/><path d="M19.154 8.322c-.837.955-.911 3.688-.899 4.946a.585.585 0 0 0 .661.579c1.248-.153 3.948-.585 4.785-1.539a3.023 3.023 0 1 0-4.547-3.986Z" fill="#0B7C68"/><path d="M22.549 23.244c0 5.949-4.822 10.771-10.77 10.771-5.95 0-10.771-4.822-10.771-10.77 0-5.95 4.822-10.771 10.77-10.771 5.949 0 10.77 4.822 10.77 10.77Zm-17.253 0a6.482 6.482 0 1 0 12.965 0 6.482 6.482 0 0 0-12.965 0Z" fill="#52B7AB"/></svg>