<svg width="259" height="48" fill="none" xmlns="http://www.w3.org/2000/svg">
  <path d="M98.63 23.933c0 6.331-5.132 11.464-11.464 11.464-6.33 0-11.463-5.133-11.463-11.464s5.132-11.464 11.463-11.464c6.332 0 11.464 5.133 11.464 11.464Zm-18.363 0a6.9 6.9 0 1 0 13.799 0 6.9 6.9 0 0 0-13.8 0ZM123.3 23.933c0 6.331-5.132 11.464-11.463 11.464-6.332 0-11.464-5.133-11.464-11.464s5.132-11.464 11.464-11.464c6.331 0 11.463 5.133 11.463 11.464Zm-18.363 0a6.9 6.9 0 1 0 13.8 0 6.9 6.9 0 0 0-13.8 0ZM233.39 18.701c.478-.276.645-.89.329-1.343a11.464 11.464 0 1 0 .71 11.995c.261-.486.023-1.077-.485-1.295l-2.356-1.01c-.508-.218-1.09.022-1.379.493a6.896 6.896 0 0 1-11.029.985 6.898 6.898 0 0 1 7.694-11.006 6.9 6.9 0 0 1 2.868 2.136c.343.434.949.603 1.427.327l2.221-1.282Z" fill="#52B7AB"/>
  <path fill-rule="evenodd" clip-rule="evenodd" d="M144.082 0c-.37 0-.67.3-.67.67v14.111a11.414 11.414 0 0 0-6.905-2.312c-6.331 0-11.464 5.133-11.464 11.464s5.133 11.464 11.464 11.464 11.464-5.133 11.464-11.464c0-.127-.003-.253-.007-.378a.681.681 0 0 0 .007-.091V.67c0-.37-.301-.67-.671-.67h-3.218Zm-7.575 30.832a6.9 6.9 0 1 1 0-13.799 6.9 6.9 0 0 1 0 13.8ZM161.311 35.397c6.332 0 11.464-5.133 11.464-11.464s-5.132-11.464-11.464-11.464c-6.331 0-11.463 5.133-11.463 11.464 0 .163.003.325.01.487a.642.642 0 0 0-.01.116V47.33c0 .37.3.67.67.67h3.218c.37 0 .67-.3.67-.67V33.085a11.416 11.416 0 0 0 6.905 2.312Zm0-4.564a6.9 6.9 0 1 1 0-13.8 6.9 6.9 0 0 1 0 13.8Z" fill="#52B7AB"/>
  <path d="M175.591 0a.67.67 0 0 0-.671.67v23.464h.002a11.448 11.448 0 0 0 3.356 7.905 11.456 11.456 0 0 0 7.436 3.338.64.64 0 0 0 .67-.65v-3.224c0-.37-.301-.667-.669-.703a6.897 6.897 0 0 1-5.705-4.227 6.896 6.896 0 0 1-.526-2.64h-.005V.67c0-.37-.3-.67-.67-.67h-3.218Z" fill="#52B7AB"/>
  <path fill-rule="evenodd" clip-rule="evenodd" d="M256.393 17.777c.382-.414.315-.711.126-.95a11.467 11.467 0 0 0-13.488-3.44 11.463 11.463 0 1 0 15.515 13.696.64.64 0 0 0-.489-.797l-3.146-.703c-.361-.08-.716.149-.832.5a6.898 6.898 0 0 1-9.703 3.99l12.017-12.296Zm-15.161 8.987 8.978-9.186a6.897 6.897 0 0 0-8.786 3.13 6.9 6.9 0 0 0-.192 6.056ZM210.709 24.42c.007-.162.01-.324.01-.487 0-6.331-5.132-11.464-11.464-11.464-6.331 0-11.463 5.133-11.463 11.464s5.132 11.464 11.463 11.464c2.593 0 4.985-.861 6.905-2.312v1.641c0 .37.301.67.671.67h3.218c.37 0 .67-.3.67-.67v-10.19a.642.642 0 0 0-.01-.116Zm-11.454 6.413a6.9 6.9 0 1 1 0-13.8 6.9 6.9 0 0 1 0 13.8ZM61.423 11.708c6.331 0 11.464 5.132 11.464 11.463 0 0-.044 11.42-.044 12.391.001 2.64-1.055 4.542-2.456 6.296a11.464 11.464 0 0 1-18.8-1.284c-.302-.505-.073-1.143.458-1.396l2.198-1.048c.53-.253 1.16-.022 1.491.463a6.9 6.9 0 0 0 11.088.416c.754-.944 1.132-1.894 1.427-3.247.286-1.31.074-3.435.074-3.435a11.414 11.414 0 0 1-6.9 2.308c-6.33 0-11.463-5.132-11.463-11.464 0-6.33 5.132-11.463 11.463-11.463Zm0 18.363a6.9 6.9 0 1 1 0-13.8 6.9 6.9 0 0 1 0 13.8Z" fill="#52B7AB"/>
  <path d="M9.132 10.958a4.415 4.415 0 1 1 0-8.83 4.415 4.415 0 0 1 0 8.83Z" fill="#52B7AB"/>
  <path fill-rule="evenodd" clip-rule="evenodd" d="M8.435 24.203c0 6.288 5.098 11.385 11.386 11.385 6.288 0 11.385-5.098 11.385-11.386 0-6.288-5.097-11.385-11.385-11.385-6.288 0-11.386 5.098-11.386 11.386Z" fill="#52B7AB"/>
  <path fill-rule="evenodd" clip-rule="evenodd" d="M23.658 18.722a1.595 1.595 0 0 1-.279.756c-.126.171-.401.15-.828-.065-1.197.749.368 1.715.564 2.137l.335.536a.32.32 0 0 1-.014.293c-.051.09-.435.59-.538.6-.103.01.053.641-.006.735l-2.638.48a.32.32 0 0 1-.101.102l-1.327.83a1.28 1.28 0 0 0-.59.91l-.214 1.566a.32.32 0 0 0 .271.357l1.515.206c.404.054.333.616.616.322l.536.054c.053-.055.86-.168.935-.175l1.49.837c.12-.012 1.096-.175 1.16-.072 1.026-.674 1.638-1.168 1.838-1.482.515-.81-1.556-3.359-1.56-3.366l.14-1.486a.32.32 0 0 1 .102-.44l1.237.597c.444-.277.338-.379.76-.07l.555.401c.054.04-.122.386.098 1.24.035.134.196.392.484.773.2-.064.34-.11.418-.139.337-.12.378-.737.376-.797-.223-.301-.349-.503-.378-.605-.043-.154.904-.01.968-.195.046-.133.303-.395.275-.581-.028-.185-.256-.862-.484-1.228-.154-.248-.513-.302-.948-.786-.034-.038.59-.668.956-.597.212.04.162.656.3.876.375.6.43-.503.356-.626-.021-.036.224-.477.037-.55-.12-.047-.264-.395-.653-.436-.164-.018-.966.784-1.282.597-.127-.075-.271-.213-.431-.412.086-.169.18-.264.28-.284.099-.021.275.018.529.116.26-.117.414-.226.463-.328.049-.103.027-.27-.066-.501l-.13-.816-.15-.242-1.822-1.506-1.096-.359-2.304-.467-1.303.813c-.604-.022-1.049.087-1.333.329-.284.242-.584.765-.9 1.57l1.782-.159.799.478.746-.467" fill="#fff"/>
  <path fill-rule="evenodd" clip-rule="evenodd" d="M26.05 34.401c-.943.15-2.827 0-5.215-2.01-2.387-2.009-3.303-7.056-4.07-11.956-.765-4.9-2.975-8.083-8.092-8.083C3.556 12.352 1 17.047 1 21.511c0 3.999 1.395 8.785 5.824 12.89 1.963 1.82 6.629 3.823 10.597 3.47 4.988-.445 9.154-3.553 8.629-3.47Z" fill="#52B7AB" stroke="#fff" stroke-width="2"/>
</svg>
