<svg width="270" height="44" fill="none" xmlns="http://www.w3.org/2000/svg"><path d="M59.26 34.728c-2.01 0-3.89-.402-5.64-1.205a15.147 15.147 0 0 1-4.65-3.315c-1.32-1.435-2.353-3.1-3.1-4.994-.745-1.894-1.118-3.946-1.118-6.156 0-2.095.373-4.06 1.119-5.898a15.13 15.13 0 0 1 3.142-4.907 14.853 14.853 0 0 1 4.736-3.315c1.808-.804 3.774-1.205 5.898-1.205 2.84 0 5.295.617 7.361 1.85 2.067 1.206 3.616 2.813 4.65 4.822l-4.435 3.272c-.775-1.492-1.865-2.64-3.271-3.444a8.579 8.579 0 0 0-4.52-1.248c-1.723 0-3.244.473-4.564 1.42-1.291.947-2.31 2.196-3.056 3.745-.718 1.55-1.077 3.244-1.077 5.08 0 1.923.388 3.66 1.163 5.21.775 1.55 1.836 2.783 3.185 3.702 1.378.89 2.942 1.334 4.693 1.334 2.956 0 5.625-1.392 8.007-4.176v-2.152h-6.156V18.8H72.69v15.713h-4.908v-3.444c-2.468 2.44-5.31 3.66-8.524 3.66ZM87.612 34.943c-2.468 0-4.592-.53-6.371-1.592-1.751-1.091-3.1-2.526-4.047-4.305-.947-1.78-1.42-3.703-1.42-5.769 0-2.095.473-4.032 1.42-5.812.976-1.78 2.339-3.2 4.09-4.262 1.78-1.09 3.888-1.635 6.328-1.635 2.44 0 4.535.545 6.285 1.635 1.78 1.062 3.143 2.483 4.09 4.262.947 1.78 1.42 3.717 1.42 5.812 0 2.066-.473 3.99-1.42 5.769s-2.31 3.214-4.09 4.305c-1.75 1.061-3.846 1.592-6.285 1.592Zm-5.898-11.666c0 1.32.258 2.497.775 3.53.517 1.005 1.22 1.794 2.11 2.368.89.574 1.894.86 3.013.86 1.09 0 2.08-.286 2.97-.86.89-.603 1.593-1.407 2.11-2.411.545-1.033.818-2.21.818-3.53 0-1.292-.273-2.44-.818-3.444-.517-1.033-1.22-1.837-2.11-2.41a5.179 5.179 0 0 0-2.97-.905c-1.12 0-2.124.301-3.013.904-.89.574-1.593 1.378-2.11 2.411-.517 1.005-.775 2.167-.775 3.487ZM113.719 34.943c-2.468 0-4.592-.53-6.371-1.592-1.751-1.091-3.1-2.526-4.047-4.305-.947-1.78-1.42-3.703-1.42-5.769 0-2.095.473-4.032 1.42-5.812.976-1.78 2.339-3.2 4.09-4.262 1.779-1.09 3.889-1.635 6.328-1.635 2.44 0 4.535.545 6.285 1.635 1.78 1.062 3.143 2.483 4.09 4.262.947 1.78 1.421 3.717 1.421 5.812 0 2.066-.474 3.99-1.421 5.769-.947 1.779-2.31 3.214-4.09 4.305-1.75 1.061-3.845 1.592-6.285 1.592Zm-5.898-11.666c0 1.32.259 2.497.775 3.53.517 1.005 1.22 1.794 2.11 2.368.889.574 1.894.86 3.013.86a5.366 5.366 0 0 0 2.971-.86c.889-.603 1.592-1.407 2.109-2.411.545-1.033.818-2.21.818-3.53 0-1.292-.273-2.44-.818-3.444-.517-1.033-1.22-1.837-2.109-2.41a5.18 5.18 0 0 0-2.971-.905c-1.119 0-2.124.301-3.013.904-.89.574-1.593 1.378-2.11 2.411-.516 1.005-.775 2.167-.775 3.487ZM128.031 23.234c0-2.153.43-4.119 1.291-5.898.861-1.78 2.052-3.185 3.573-4.219 1.521-1.033 3.258-1.55 5.209-1.55 1.665 0 3.157.417 4.477 1.249 1.349.804 2.397 1.837 3.143 3.1V3.085h5.769v24.97c0 .63.1 1.076.301 1.334.201.23.545.373 1.033.43v4.693c-1.033.2-1.851.301-2.454.301-1.033 0-1.894-.258-2.583-.775a2.843 2.843 0 0 1-1.119-2.023l-.086-1.42a8.368 8.368 0 0 1-3.401 3.228 9.33 9.33 0 0 1-4.434 1.12c-2.095 0-3.946-.517-5.553-1.55-1.608-1.062-2.87-2.469-3.789-4.22-.918-1.779-1.377-3.759-1.377-5.94Zm17.693 3.013v-5.38c-.459-1.264-1.248-2.311-2.368-3.143-1.119-.833-2.267-1.249-3.444-1.249-1.176 0-2.21.33-3.099.99-.89.632-1.579 1.478-2.067 2.54a7.776 7.776 0 0 0-.731 3.358c0 1.234.272 2.368.818 3.401a6.588 6.588 0 0 0 2.195 2.41c.947.575 2.023.862 3.229.862 1.09 0 2.167-.359 3.228-1.077 1.091-.717 1.837-1.621 2.239-2.712Z" fill="#37E3C1"/><path d="M170.672 34.943c-1.779 0-3.329-.401-4.649-1.205a8.677 8.677 0 0 1-3.099-3.186v13.13h-5.769V11.955h5.037v3.874a9.017 9.017 0 0 1 3.228-3.1c1.349-.774 2.87-1.161 4.564-1.161 2.037 0 3.845.53 5.424 1.592 1.578 1.034 2.827 2.44 3.745 4.22.919 1.75 1.378 3.687 1.378 5.81 0 2.21-.431 4.205-1.292 5.985-.832 1.75-1.994 3.157-3.487 4.219-1.463 1.033-3.157 1.55-5.08 1.55Zm-1.937-4.907c1.177 0 2.196-.316 3.057-.947a6.64 6.64 0 0 0 2.066-2.54 7.574 7.574 0 0 0 .775-3.358c0-1.263-.273-2.396-.818-3.401-.545-1.033-1.291-1.837-2.239-2.41-.918-.604-1.98-.905-3.185-.905-1.091 0-2.181.359-3.272 1.076-1.091.718-1.822 1.622-2.195 2.713v5.295a7.872 7.872 0 0 0 2.367 3.185c1.062.861 2.21 1.292 3.444 1.292ZM184.396 3.087h5.769V27.28c0 1.062.172 1.765.516 2.109.345.344.818.517 1.421.517a6.2 6.2 0 0 0 1.421-.173 6.797 6.797 0 0 0 1.291-.43l.775 4.391c-.775.373-1.679.66-2.712.86-1.033.202-1.966.302-2.798.302-1.808 0-3.215-.473-4.219-1.42-.976-.976-1.464-2.354-1.464-4.133V3.087ZM196.553 27.84c0-1.463.401-2.74 1.205-3.831.832-1.12 1.98-1.98 3.444-2.583 1.464-.603 3.143-.904 5.037-.904.947 0 1.908.086 2.884.258.976.144 1.822.359 2.54.646V20.22c0-1.436-.431-2.54-1.292-3.315-.832-.775-2.08-1.163-3.745-1.163a9.747 9.747 0 0 0-3.53.646c-1.119.43-2.296 1.062-3.53 1.894l-1.851-3.788c1.492-.976 3.013-1.708 4.563-2.196a16.673 16.673 0 0 1 4.951-.731c3.214 0 5.711.803 7.49 2.41 1.809 1.607 2.713 3.903 2.713 6.888v7.19c0 .63.1 1.076.301 1.334.201.23.56.373 1.076.43v4.693c-.516.115-.99.186-1.421.215a7.458 7.458 0 0 1-1.033.086c-1.148 0-2.023-.258-2.626-.775-.602-.516-.961-1.148-1.076-1.894l-.129-1.162a10.064 10.064 0 0 1-3.702 2.97c-1.435.66-2.913.99-4.434.99-1.522 0-2.87-.301-4.047-.904-1.177-.631-2.11-1.478-2.798-2.54-.66-1.09-.99-2.31-.99-3.659Zm14.034 1.163c.717-.69 1.076-1.35 1.076-1.98V24.74c-1.492-.603-2.999-.904-4.52-.904-1.521 0-2.755.33-3.703.99-.947.631-1.42 1.478-1.42 2.54 0 .86.344 1.636 1.033 2.324.689.69 1.679 1.034 2.97 1.034.861 0 1.694-.158 2.497-.474.833-.316 1.521-.732 2.067-1.248ZM233.326 34.943c-2.439 0-4.549-.545-6.328-1.636-1.779-1.09-3.157-2.525-4.133-4.304-.976-1.78-1.463-3.703-1.463-5.77 0-2.094.473-4.031 1.42-5.81.976-1.78 2.354-3.2 4.133-4.263 1.779-1.062 3.889-1.592 6.328-1.592 2.468 0 4.563.53 6.285 1.592 1.751 1.062 3.057 2.454 3.918 4.176l-5.64 1.722c-1.004-1.722-2.54-2.583-4.606-2.583-1.119 0-2.124.287-3.013.861-.89.546-1.593 1.335-2.11 2.368-.516 1.004-.775 2.181-.775 3.53 0 1.32.259 2.497.775 3.53.546 1.005 1.263 1.808 2.153 2.41.889.575 1.88.862 2.97.862 1.033 0 1.98-.244 2.841-.732.89-.517 1.507-1.162 1.851-1.937l5.64 1.722c-.775 1.693-2.066 3.1-3.874 4.218-1.78 1.091-3.904 1.636-6.372 1.636ZM257.372 34.943c-2.439 0-4.549-.53-6.328-1.592-1.751-1.062-3.114-2.469-4.09-4.22a11.814 11.814 0 0 1-1.463-5.768c0-2.124.473-4.075 1.42-5.855a11.037 11.037 0 0 1 4.133-4.305c1.779-1.09 3.903-1.635 6.371-1.635 2.469 0 4.578.545 6.329 1.635 1.75 1.062 3.085 2.483 4.003 4.262.947 1.751 1.421 3.645 1.421 5.683 0 .746-.043 1.392-.129 1.937h-17.435c.143 1.75.789 3.128 1.937 4.133 1.177 1.004 2.526 1.506 4.047 1.506a6.66 6.66 0 0 0 3.228-.817c1.033-.574 1.737-1.32 2.11-2.239l4.95 1.378c-.832 1.722-2.166 3.142-4.003 4.261-1.837 1.091-4.004 1.636-6.501 1.636Zm-5.897-13.517h11.795c-.172-1.693-.818-3.057-1.937-4.09-1.091-1.062-2.425-1.593-4.004-1.593-1.549 0-2.884.531-4.003 1.593-1.091 1.033-1.708 2.397-1.851 4.09Z" fill="#42B4A7"/><path d="M7.607 10.274a4.981 4.981 0 0 1-4.984-4.978A4.981 4.981 0 0 1 7.607.318a4.981 4.981 0 0 1 4.983 4.978 4.981 4.981 0 0 1-4.983 4.978Z" fill="#37E3C1"/><path d="M12.528 12.064c.259.196.504.41.736.64 1.67 1.666 2.525 4.096 2.96 6.873.45 2.878.96 5.734 1.698 8.154.744 2.445 1.68 4.309 2.895 5.33 1.467 1.234 2.743 1.833 3.752 2.107a12.985 12.985 0 0 0 6.613-11.319c0-5.137-2.982-9.578-7.31-11.685a12.81 12.81 0 0 0-6.558-1.342 12.768 12.768 0 0 0-4.786 1.242Z" fill="#42B4A7"/><path d="M2.14 14.314c1.155-1.377 2.791-2.277 4.948-2.277 2.324 0 3.935.654 5.064 1.781 1.322 1.32 2.102 3.355 2.517 6.003.451 2.882.975 5.833 1.747 8.368.764 2.51 1.809 4.748 3.389 6.077.979.823 1.904 1.41 2.76 1.821-.226.103-.461.205-.705.304l-.001.001-.136.055h-.001c-1.433.576-3.121 1.067-4.898 1.225-1.98.176-4.176-.233-6.15-.938-1.98-.707-3.653-1.681-4.604-2.562C1.448 29.893 0 24.931 0 20.791c0-2.381.725-4.789 2.14-6.477Z" fill="#37E3C1"/><path fill-rule="evenodd" clip-rule="evenodd" d="M19.847 29.213c.054.39.354.675.575.75.236.078.989.081.989.081s.76.36.351.869c-.408.508 1.722.993 1.916.623.194-.369 1.357-1.188.723-1.688s-.764-.636-.736-1.194c.028-.558.4-.645-.273-.872-.673-.227-.611-.997-1.268-.484-.656.513-.56.226-.974.393-.414.167-.592.587-.943.729-.351.141-.415.403-.36.793Z" fill="#fff"/><path d="M19.595 11.882c-.233.108-.447.214-.642.317a.674.674 0 0 0-.18.307c-.115.479-.41.742-.627.936-.195.175-.327.293-.209.46.188.268.4.39.602.507.226.13.441.254.597.568.197.396.076.89-.363 1.481a6.245 6.245 0 0 0-.24.172c-.019.239-.098.512-.238.82-.389.403-.656.78-.802 1.131.033.234.104.33.212.476.098.132.224.303.378.649.165.372.245.664.308.896.088.322.145.53.356.678.363.254.85-.098 1.044-.379.082-.119.015-.248-.051-.372-.089-.167-.173-.327.124-.445.261-.103.762-.136.986.627l.014.049c.118.082.236.215.346.417.512.951.498 1.032.468 1.2-.015.082-.034.184.004.42.048.303-.062.477-.155.624-.128.2-.224.352.155.717a.975.975 0 0 0 .315.197c.148.032.296.059.438.085h.001l.29.055c.268.016.547.008.806 0 .447-.012.833-.022.996.092a.687.687 0 0 0 .192.101c.018.007.03.011.041.019.027.02.037.063.073.217.037.162.102.446.245.954.214.762.879 1.104 1.579 1.047.16-.143.305-.314.43-.514.419-.668.475-.734.495-.758l.008-.01a.117.117 0 0 0 .005-.008c.026-.042.14-.23-.142-.8-.408-.83-.22-1.004-.088-1.126.055-.05.1-.093.088-.17-.01-.061-.012-.119-.014-.17-.006-.168-.01-.276-.258-.276-.325 0-.824-.073-.824-.426 0-.158.078-.475.155-.787.095-.385.188-.763.132-.832-.012-.015-.026-.037-.042-.062-.116-.189-.368-.597-1.294-.255-.702.26-1.14.18-1.315-.24-.387-.373-.548-.784-.483-1.235-.06-.548.2-1.223.777-2.026.982-1.365 1.35-.892 1.751-.378l.02.024.024.032c.094.064.17.162.237.275.157.155.335.266.563.255.41-.019.755.066 1.032.135.253.062.448.11.584.052a12.05 12.05 0 0 0-8.904-5.723Z" fill="#fff"/></svg>