<svg width="185" height="35" fill="none" xmlns="http://www.w3.org/2000/svg"><path d="M70.744 17.097a8.19 8.19 0 1 1-16.379 0 8.19 8.19 0 0 1 16.379 0Zm-13.118 0a4.929 4.929 0 1 0 9.857 0 4.929 4.929 0 0 0-9.857 0ZM88.368 17.097a8.19 8.19 0 1 1-16.38 0 8.19 8.19 0 0 1 16.38 0Zm-13.119 0a4.929 4.929 0 1 0 9.858 0 4.929 4.929 0 0 0-9.858 0ZM166.764 13.502c.479-.276.647-.892.315-1.333a8.19 8.19 0 0 0-14.716 5.412 8.194 8.194 0 0 0 6.765 7.583 8.192 8.192 0 0 0 8.487-3.946c.278-.477.038-1.069-.47-1.287l-1.158-.496c-.508-.218-1.088.025-1.403.478a4.938 4.938 0 0 1-4.894 2.04 4.93 4.93 0 1 1 4.533-8.13c.367.413.972.586 1.45.31l1.091-.63Z" fill="#52B7AB"/><path fill-rule="evenodd" clip-rule="evenodd" d="M103.213 0a.478.478 0 0 0-.478.479v10.08a8.19 8.19 0 1 0 3.252 6.267.466.466 0 0 0 .004-.064V.479a.479.479 0 0 0-.479-.479h-2.299Zm-5.411 22.026a4.929 4.929 0 1 1 0-9.858 4.929 4.929 0 0 1 0 9.858ZM115.521 25.286a8.19 8.19 0 1 0-8.182-7.841.57.57 0 0 0-.007.083v16.283c0 .264.214.479.479.479h2.299a.48.48 0 0 0 .479-.48V23.636a8.152 8.152 0 0 0 4.932 1.651Zm0-3.26a4.93 4.93 0 1 1 0-9.858 4.93 4.93 0 0 1 0 9.858Z" fill="#52B7AB"/><path d="M125.722 0a.48.48 0 0 0-.479.479V17.24h.001a8.174 8.174 0 0 0 .623 2.99 8.171 8.171 0 0 0 4.432 4.432c.845.35 1.743.556 2.655.61.264.015.478-.201.478-.466v-2.302a.517.517 0 0 0-.478-.502 4.928 4.928 0 0 1-4.45-4.906h-.004V.479a.48.48 0 0 0-.479-.479h-2.299Z" fill="#52B7AB"/><path fill-rule="evenodd" clip-rule="evenodd" d="M183.444 12.7c.273-.296.225-.508.09-.68a8.187 8.187 0 0 0-13.665 1.249 8.188 8.188 0 0 0 7.139 12.017 8.19 8.19 0 0 0 7.975-5.94.458.458 0 0 0-.35-.568l-2.247-.502a.517.517 0 0 0-.594.357 4.928 4.928 0 0 1-6.932 2.85l8.584-8.783Zm-10.83 6.42 6.414-6.563a4.93 4.93 0 0 0-6.414 6.563ZM150.809 17.445a8.19 8.19 0 1 0-3.249 6.19v1.172c0 .265.214.48.479.48h2.299a.48.48 0 0 0 .479-.48v-7.279a.46.46 0 0 0-.008-.083Zm-8.182 4.581a4.93 4.93 0 1 1 0-9.858 4.93 4.93 0 0 1 0 9.858ZM44.165 8.364a8.19 8.19 0 0 1 8.189 8.189s-.032 8.158-.031 8.851c0 1.886-.754 3.245-1.755 4.498a8.19 8.19 0 0 1-13.43-.917c-.216-.36-.052-.817.327-.997l1.57-.75c.38-.18.829-.015 1.065.332a4.928 4.928 0 0 0 7.921.297c.539-.675.809-1.353 1.02-2.32.204-.936.053-2.454.053-2.454a8.19 8.19 0 1 1-4.929-14.73Zm0 13.118a4.929 4.929 0 1 1 0-9.858 4.929 4.929 0 0 1 0 9.858Z" fill="#52B7AB"/><path d="M6.81 7.828a3.154 3.154 0 1 1 0-6.307 3.154 3.154 0 0 1 0 6.307Z" fill="#52B7AB"/><path fill-rule="evenodd" clip-rule="evenodd" d="M6.311 17.29a8.133 8.133 0 1 0 16.267 0 8.133 8.133 0 0 0-16.267 0Z" fill="#52B7AB"/><path fill-rule="evenodd" clip-rule="evenodd" d="M17.186 13.374a1.139 1.139 0 0 1-.2.54c-.089.123-.286.107-.59-.046-.856.535.262 1.225.402 1.526l.24.383a.228.228 0 0 1-.01.21c-.037.064-.311.42-.385.428-.073.007.038.458-.004.526l-1.884.342a.229.229 0 0 1-.073.073l-.948.593a.915.915 0 0 0-.421.65l-.153 1.119a.228.228 0 0 0 .194.255l1.081.147c.29.039.239.44.44.23l.383.039c.038-.04.615-.12.669-.125l1.063.598c.087-.009.784-.125.83-.052.732-.481 1.17-.834 1.313-1.059.368-.578-1.112-2.399-1.115-2.404l.1-1.061a.228.228 0 0 1 .073-.315l.884.427c.317-.198.242-.271.543-.051l.397.287c.038.028-.088.276.07.886.024.096.14.28.345.552.143-.046.242-.079.299-.1.24-.085.27-.526.268-.569-.16-.215-.25-.359-.27-.432-.03-.11.646-.006.692-.139.032-.095.216-.282.196-.415a3.416 3.416 0 0 0-.345-.878c-.111-.177-.367-.216-.678-.56-.024-.028.422-.478.683-.427.152.029.116.468.214.626.268.428.307-.36.255-.448-.015-.026.16-.34.026-.393-.085-.034-.189-.282-.466-.311-.118-.013-.69.56-.916.426a1.251 1.251 0 0 1-.308-.294c.062-.12.128-.188.2-.203.07-.015.197.013.378.083.185-.083.295-.162.33-.235.035-.073.02-.192-.047-.358l-.092-.582-.108-.173-1.301-1.076-.783-.256-1.646-.334-.93.581c-.432-.016-.75.062-.953.235-.203.172-.417.546-.643 1.121l1.273-.113.57.341.534-.333" fill="#fff"/><path fill-rule="evenodd" clip-rule="evenodd" d="M18.895 24.575c-.674.108-2.02 0-3.725-1.435-1.706-1.436-2.36-5.042-2.907-8.542-.548-3.5-2.126-5.774-5.782-5.774C2.826 8.824 1 12.178 1 15.367c0 2.856.996 6.275 4.16 9.208 1.402 1.3 4.736 2.731 7.57 2.479 3.564-.318 6.54-2.539 6.165-2.479Z" fill="#52B7AB" stroke="#fff" stroke-width="2"/></svg>