<svg width="24" height="25" fill="none" xmlns="http://www.w3.org/2000/svg">
  <path d="M6.682 6.122c-1.704 0-3.084-1.326-3.084-2.961C3.598 1.526 4.978.2 6.682.2c1.703 0 3.084 1.326 3.084 2.961 0 1.635-1.38 2.961-3.084 2.961Z" fill="#52B7AB"/>
  <path fill-rule="evenodd" clip-rule="evenodd" d="M6.195 15.005c0 4.218 3.561 7.636 7.954 7.636 4.394 0 7.955-3.418 7.955-7.636 0-4.217-3.561-7.636-7.954-7.636-4.394 0-7.955 3.419-7.955 7.636Z" fill="#52B7AB"/>
  <path fill-rule="evenodd" clip-rule="evenodd" d="M16.83 11.33a1.045 1.045 0 0 1-.195.506c-.087.115-.28.1-.578-.043-.836.502.257 1.15.394 1.433l.234.36a.206.206 0 0 1-.01.196c-.035.06-.303.395-.376.402-.072.007.037.43-.003.494l-1.844.321a.22.22 0 0 1-.07.07l-.928.555a.857.857 0 0 0-.412.611l-.15 1.05a.216.216 0 0 0 .19.24l1.058.138c.282.036.233.413.43.216l.375.036c.037-.037.6-.113.654-.117l1.04.56c.084-.007.767-.116.812-.047.716-.452 1.144-.784 1.283-.994.36-.544-1.087-2.253-1.09-2.258l.098-.996a.21.21 0 0 1 .071-.296l.865.4c.31-.185.236-.253.53-.047l.389.27c.037.026-.086.258.068.831.024.09.137.263.338.519.14-.043.237-.074.292-.093.235-.081.264-.495.263-.535-.156-.202-.244-.337-.264-.405-.03-.104.631-.007.676-.131.032-.09.212-.265.192-.39a3.129 3.129 0 0 0-.338-.824c-.108-.166-.358-.203-.662-.527-.025-.026.412-.448.668-.4.148.027.113.44.209.587.262.403.3-.337.249-.42-.015-.024.156-.32.026-.369-.084-.031-.185-.264-.456-.292-.115-.012-.675.526-.896.4a1.208 1.208 0 0 1-.302-.276c.061-.113.126-.177.196-.19.07-.015.193.011.37.077.181-.078.289-.151.323-.22.034-.069.019-.18-.046-.336l-.09-.547-.106-.162-1.272-1.01-.766-.24-1.61-.315-.91.546c-.422-.015-.733.058-.931.22-.199.163-.408.514-.629 1.054l1.245-.107.558.32.521-.313" fill="#fff"/>
  <path fill-rule="evenodd" clip-rule="evenodd" d="M18.501 21.846c-.659.1-1.975 0-3.643-1.348-1.668-1.348-2.308-4.734-2.843-8.02-.535-3.286-2.08-5.42-5.654-5.42C2.786 7.057 1 10.205 1 13.2c0 2.682.975 5.892 4.07 8.646 1.37 1.22 4.63 2.564 7.403 2.327 3.485-.298 6.395-2.383 6.028-2.327Z" fill="#52B7AB" stroke="#fff"/>
</svg>
