<svg width="25" height="40" fill="none" xmlns="http://www.w3.org/2000/svg"><path d="M4.707 25.912a1.449 1.449 0 0 0 1.021 2.473h12.286v.004a5.703 5.703 0 0 1 3.877 1.707 5.827 5.827 0 0 1 1.666 4.084 5.828 5.828 0 0 1-1.666 4.084 5.7 5.7 0 0 1-4.066 1.71v-4.282c.372 0 .737-.15 1.011-.43.276-.28.438-.669.438-1.082 0-.413-.162-.801-.438-1.082-.274-.28-.639-.43-1.01-.43H5.668a5.731 5.731 0 0 1-3.99-9.784l3.028 3.028Z" fill="#52B7AB"/><path d="M19.154 1.055c-.836.954-.91 3.688-.898 4.945a.585.585 0 0 0 .66.58c1.249-.153 3.949-.585 4.785-1.539a3.023 3.023 0 0 0-4.547-3.986Z" fill="#0B7C68"/><path d="M22.55 15.977c0 5.949-4.823 10.77-10.772 10.77-5.948 0-10.77-4.821-10.77-10.77 0-5.948 4.822-10.77 10.77-10.77 5.949 0 10.771 4.822 10.771 10.77Zm-17.254 0a6.483 6.483 0 1 0 12.965 0 6.483 6.483 0 0 0-12.965 0Z" fill="#52B7AB"/></svg>