<svg width="181" height="30" fill="none" xmlns="http://www.w3.org/2000/svg"><path d="M39.705 23.577a8.948 8.948 0 0 1-3.779-.808 10.149 10.149 0 0 1-3.115-2.221 10.66 10.66 0 0 1-2.077-3.346c-.5-1.27-.75-2.644-.75-4.125 0-1.403.25-2.72.75-3.951a10.14 10.14 0 0 1 2.106-3.288 9.952 9.952 0 0 1 3.173-2.221c1.211-.539 2.528-.808 3.951-.808 1.904 0 3.548.413 4.933 1.24 1.384.808 2.423 1.885 3.115 3.23L45.04 9.473c-.52-1-1.25-1.77-2.192-2.308a5.748 5.748 0 0 0-3.029-.836c-1.154 0-2.173.317-3.057.952-.866.634-1.548 1.47-2.048 2.51-.48 1.038-.721 2.172-.721 3.403 0 1.288.26 2.452.779 3.49.519 1.038 1.23 1.865 2.134 2.48.923.596 1.97.895 3.144.895 1.98 0 3.769-.933 5.365-2.798v-1.443H41.29v-2.913h7.413v10.528h-3.288v-2.307c-1.654 1.634-3.557 2.452-5.711 2.452ZM58.702 23.72c-1.654 0-3.077-.355-4.27-1.066a7.507 7.507 0 0 1-2.71-2.885 8.1 8.1 0 0 1-.952-3.865c0-1.404.317-2.702.951-3.894a7.513 7.513 0 0 1 2.74-2.855c1.193-.731 2.606-1.097 4.24-1.097 1.635 0 3.039.366 4.212 1.097 1.192.711 2.106 1.663 2.74 2.855.635 1.192.952 2.49.952 3.894a8.1 8.1 0 0 1-.952 3.865c-.634 1.192-1.548 2.154-2.74 2.885-1.173.711-2.577 1.067-4.211 1.067Zm-3.952-7.816c0 .885.173 1.673.52 2.365a4.045 4.045 0 0 0 1.413 1.587c.596.384 1.269.577 2.019.577.73 0 1.394-.193 1.99-.577a4.27 4.27 0 0 0 1.413-1.616c.366-.692.548-1.48.548-2.365 0-.865-.182-1.634-.548-2.307-.346-.693-.817-1.231-1.413-1.616a3.47 3.47 0 0 0-1.99-.605c-.75 0-1.423.202-2.02.605-.596.385-1.067.923-1.413 1.616-.346.673-.519 1.452-.519 2.336ZM76.194 23.72c-1.654 0-3.077-.355-4.269-1.066a7.508 7.508 0 0 1-2.711-2.885 8.1 8.1 0 0 1-.952-3.865c0-1.404.317-2.702.952-3.894a7.513 7.513 0 0 1 2.74-2.855c1.192-.731 2.606-1.097 4.24-1.097 1.635 0 3.038.366 4.211 1.097a7.24 7.24 0 0 1 2.74 2.855c.635 1.192.952 2.49.952 3.894a8.101 8.101 0 0 1-.951 3.865c-.635 1.192-1.549 2.154-2.74 2.885-1.174.711-2.578 1.067-4.212 1.067Zm-3.952-7.816c0 .885.173 1.673.52 2.365a4.045 4.045 0 0 0 1.413 1.587c.596.384 1.27.577 2.02.577.73 0 1.393-.193 1.99-.577a4.27 4.27 0 0 0 1.413-1.616c.365-.692.548-1.48.548-2.365 0-.865-.183-1.634-.548-2.307-.347-.693-.818-1.231-1.414-1.616a3.47 3.47 0 0 0-1.99-.605c-.75 0-1.423.202-2.019.605-.596.385-1.067.923-1.413 1.616-.347.673-.52 1.452-.52 2.336ZM85.783 15.875c0-1.442.288-2.76.865-3.951.577-1.193 1.375-2.135 2.395-2.827 1.019-.692 2.182-1.039 3.49-1.039 1.115 0 2.115.28 3 .837.903.538 1.605 1.23 2.105 2.077V2.376h3.865v16.73c0 .423.067.72.202.894.135.154.365.25.692.288v3.144c-.692.135-1.24.202-1.644.202-.692 0-1.269-.173-1.73-.519a1.905 1.905 0 0 1-.75-1.356l-.058-.951a5.607 5.607 0 0 1-2.279 2.163c-.942.5-1.932.75-2.97.75-1.404 0-2.645-.346-3.722-1.039a7.504 7.504 0 0 1-2.538-2.826c-.615-1.193-.923-2.52-.923-3.98Zm11.855 2.02v-3.606a4.496 4.496 0 0 0-1.586-2.106c-.75-.557-1.52-.836-2.308-.836-.788 0-1.48.22-2.077.663a4.177 4.177 0 0 0-1.384 1.702 5.202 5.202 0 0 0-.49 2.25c0 .827.182 1.586.547 2.278a4.413 4.413 0 0 0 1.471 1.616c.635.384 1.356.577 2.164.577.73 0 1.452-.24 2.163-.721.73-.481 1.23-1.087 1.5-1.818Z" fill="#37E3C1"/><path d="M114.354 23.72c-1.192 0-2.231-.268-3.115-.807a5.813 5.813 0 0 1-2.077-2.134v8.797h-3.865V8.318h3.375v2.596a6.034 6.034 0 0 1 2.163-2.077c.904-.519 1.923-.779 3.057-.779 1.366 0 2.577.356 3.635 1.068 1.057.692 1.894 1.634 2.509 2.826.616 1.173.923 2.471.923 3.894 0 1.481-.288 2.817-.865 4.01-.558 1.173-1.337 2.115-2.337 2.826-.98.693-2.115 1.039-3.403 1.039Zm-1.298-3.287c.788 0 1.471-.212 2.048-.635a4.445 4.445 0 0 0 1.384-1.702c.346-.711.52-1.461.52-2.25 0-.846-.183-1.605-.548-2.278a4.067 4.067 0 0 0-1.5-1.616c-.616-.403-1.327-.605-2.135-.605-.731 0-1.461.24-2.192.72-.731.482-1.221 1.087-1.471 1.818v3.548a5.282 5.282 0 0 0 1.586 2.134c.712.577 1.481.866 2.308.866ZM123.549 2.376h3.865v16.21c0 .712.116 1.183.346 1.414.231.23.548.346.952.346.308 0 .625-.038.952-.115a4.56 4.56 0 0 0 .865-.289l.519 2.942a7.46 7.46 0 0 1-1.817.577 9.91 9.91 0 0 1-1.875.202c-1.211 0-2.153-.317-2.826-.952-.654-.653-.981-1.577-.981-2.769V2.376ZM131.694 18.962c0-.981.269-1.837.808-2.568.557-.75 1.327-1.326 2.307-1.73.981-.404 2.106-.606 3.375-.606.635 0 1.279.058 1.933.173a7.56 7.56 0 0 1 1.701.433v-.808c0-.961-.288-1.702-.865-2.22-.558-.52-1.394-.78-2.509-.78-.827 0-1.616.145-2.366.433-.75.289-1.538.712-2.365 1.27l-1.24-2.54c1-.653 2.019-1.143 3.057-1.47a11.173 11.173 0 0 1 3.317-.49c2.154 0 3.827.538 5.019 1.615 1.212 1.077 1.817 2.615 1.817 4.615v4.817c0 .423.068.72.202.894.135.154.375.25.721.288v3.144a6.371 6.371 0 0 1-.951.145c-.27.038-.5.057-.693.057-.769 0-1.355-.173-1.759-.519a2.038 2.038 0 0 1-.721-1.27l-.087-.778a6.741 6.741 0 0 1-2.48 1.99 7.04 7.04 0 0 1-2.971.664c-1.019 0-1.923-.202-2.712-.606a5.01 5.01 0 0 1-1.874-1.702c-.443-.73-.664-1.548-.664-2.451Zm9.403.778c.481-.461.721-.903.721-1.326v-1.53a8.024 8.024 0 0 0-3.028-.605c-1.019 0-1.846.221-2.481.663-.634.424-.952.99-.952 1.702 0 .577.231 1.096.693 1.558.461.461 1.124.692 1.99.692.577 0 1.134-.106 1.673-.317.557-.212 1.019-.49 1.384-.837ZM156.333 23.72c-1.634 0-3.048-.365-4.24-1.095a7.662 7.662 0 0 1-2.769-2.885 7.909 7.909 0 0 1-.981-3.865c0-1.403.318-2.701.952-3.894a7.45 7.45 0 0 1 2.769-2.855c1.192-.712 2.606-1.068 4.24-1.068 1.654 0 3.058.356 4.212 1.068 1.173.711 2.047 1.644 2.624 2.798l-3.778 1.153c-.673-1.153-1.702-1.73-3.086-1.73-.75 0-1.423.192-2.02.577-.596.365-1.067.894-1.413 1.586-.346.673-.519 1.461-.519 2.365 0 .885.173 1.673.519 2.365a4.509 4.509 0 0 0 1.442 1.616c.596.384 1.26.577 1.991.577.692 0 1.326-.164 1.903-.49.596-.347 1.01-.78 1.241-1.299l3.778 1.154c-.519 1.135-1.384 2.077-2.596 2.827-1.192.73-2.615 1.096-4.269 1.096ZM172.445 23.72c-1.635 0-3.048-.355-4.24-1.066a7.578 7.578 0 0 1-2.741-2.827 7.918 7.918 0 0 1-.98-3.865c0-1.423.317-2.73.952-3.923a7.38 7.38 0 0 1 2.769-2.884c1.192-.731 2.615-1.097 4.268-1.097 1.654 0 3.068.366 4.241 1.097a7.09 7.09 0 0 1 2.682 2.855 7.872 7.872 0 0 1 .952 3.808c0 .5-.029.932-.087 1.298H168.58c.096 1.172.528 2.096 1.297 2.768.789.674 1.693 1.01 2.712 1.01.769 0 1.49-.183 2.163-.548.692-.384 1.163-.884 1.413-1.5l3.318.923c-.558 1.154-1.452 2.106-2.683 2.856-1.231.73-2.682 1.096-4.355 1.096Zm-3.952-9.056h7.903c-.115-1.135-.548-2.048-1.298-2.74-.73-.712-1.625-1.068-2.682-1.068a3.763 3.763 0 0 0-2.683 1.068c-.73.692-1.144 1.605-1.24 2.74Z" fill="#42B4A7"/><path d="M5.097 7.192a3.337 3.337 0 0 1-3.34-3.336A3.337 3.337 0 0 1 5.097.521a3.337 3.337 0 0 1 3.339 3.335 3.337 3.337 0 0 1-3.34 3.336Z" fill="#37E3C1"/><path d="M8.394 8.391c.174.131.338.274.493.43 1.119 1.115 1.692 2.743 1.983 4.604.302 1.928.644 3.842 1.138 5.463.499 1.639 1.126 2.887 1.94 3.572.983.826 1.838 1.228 2.514 1.411a8.7 8.7 0 0 0 4.43-7.584 8.704 8.704 0 0 0-4.897-7.829 8.583 8.583 0 0 0-4.394-.899 8.556 8.556 0 0 0-3.207.832Z" fill="#42B4A7"/><path d="M1.434 9.899c.774-.923 1.87-1.526 3.315-1.526 1.557 0 2.636.438 3.393 1.194.886.883 1.409 2.247 1.686 4.021.303 1.931.654 3.909 1.171 5.607.512 1.682 1.212 3.182 2.27 4.072a8.843 8.843 0 0 0 1.85 1.22 13.79 13.79 0 0 1-.472.204h-.001l-.09.037h-.002c-.96.386-2.091.715-3.282.82-1.326.119-2.798-.155-4.12-.628-1.327-.473-2.448-1.126-3.085-1.716C.97 20.337 0 17.012 0 14.238c0-1.595.486-3.208 1.434-4.34Z" fill="#37E3C1"/><path fill-rule="evenodd" clip-rule="evenodd" d="M13.298 19.881c.036.261.237.453.385.503.158.052.663.055.663.055s.508.24.235.581c-.274.34 1.154.666 1.284.418.13-.247.91-.796.484-1.131-.425-.335-.512-.426-.493-.8.019-.374.268-.433-.183-.585-.45-.151-.41-.667-.85-.324-.44.344-.375.152-.652.264-.278.112-.397.393-.632.488-.235.095-.278.27-.241.531Z" fill="#fff"/><path d="M13.13 8.269c-.157.073-.3.143-.431.213a.452.452 0 0 0-.121.205c-.077.321-.274.498-.42.628-.13.116-.219.196-.14.308.126.18.268.261.403.34.152.087.296.17.4.38.132.265.051.596-.242.992-.057.039-.11.077-.162.115-.012.16-.065.344-.16.55-.26.27-.439.523-.537.758a.59.59 0 0 0 .143.319c.065.088.15.202.253.434.11.25.164.445.206.6.06.217.097.356.239.455.243.17.57-.066.7-.254.055-.08.01-.166-.035-.249-.06-.112-.116-.22.083-.298.175-.07.511-.091.66.42l.01.033c.08.055.159.143.232.28.343.637.334.69.313.803a.725.725 0 0 0 .003.281c.033.204-.041.32-.104.419-.085.134-.15.235.104.48.059.056.13.1.212.132.099.021.198.04.293.057l.195.037c.18.01.367.005.54 0 .3-.008.558-.015.667.062.066.046.104.059.129.067.012.005.02.008.028.013.018.014.024.042.048.145.025.109.069.299.164.64.143.51.59.74 1.058.7.107-.095.205-.21.289-.343.28-.448.318-.492.331-.508l.005-.007a.074.074 0 0 0 .004-.005c.017-.029.094-.154-.095-.537-.274-.556-.148-.672-.06-.754.037-.034.068-.062.06-.113-.007-.042-.008-.08-.01-.115-.004-.112-.007-.185-.173-.185-.217 0-.552-.048-.552-.285 0-.106.052-.318.104-.528.064-.257.126-.51.089-.556-.009-.01-.018-.025-.028-.043-.078-.126-.247-.4-.867-.17-.47.174-.765.12-.882-.16-.259-.25-.367-.526-.324-.829-.039-.367.135-.819.522-1.357.657-.915.904-.598 1.173-.253l.012.016.017.022a.572.572 0 0 1 .16.184c.104.104.224.178.376.17.274-.012.506.045.691.09.17.043.301.075.392.036a8.074 8.074 0 0 0-5.966-3.835Z" fill="#fff"/></svg>