<svg width="65" height="64" fill="none" xmlns="http://www.w3.org/2000/svg">
  <g clip-path="url(#a)">
    <path d="M53.653 41.763h8.678c.599 0 1.084-.486 1.084-1.085V10.305c0-.599-.485-1.085-1.084-1.085H1.584C.985 9.22.5 9.706.5 10.305v30.373c0 .6.486 1.085 1.085 1.085h52.068Z" fill="#52B7AB"/>
    <path d="M10.263 9.22c0 5.392-4.371 9.763-9.763 9.763v-8.678c0-.599.486-1.085 1.085-1.085h8.678ZM10.263 41.763H1.585c-.6 0-1.085-.486-1.085-1.085V32c5.392 0 9.763 4.37 9.763 9.763ZM63.415 10.305v8.678c-5.392 0-9.762-4.37-9.762-9.763h8.678c.599 0 1.084.486 1.084 1.085ZM63.415 32v8.678c0 .6-.485 1.085-1.084 1.085h-8.678c0-5.392 4.37-9.763 9.762-9.763Z" fill="#0B7C68"/>
    <path d="m48.229 36.34 14.102 14.1a3.775 3.775 0 0 1 0 5.425 3.775 3.775 0 0 1-5.424 0L42.805 41.763l5.424-5.424Z" fill="#C8C3B0"/>
    <path d="m46.632 45.526 5.361-5.36 9.218 9.218-5.36 5.36-9.219-9.218Z" fill="#FB6B47"/>
    <path d="M31.958 45.017c10.783 0 19.525-8.742 19.525-19.525 0-10.784-8.742-19.526-19.525-19.526-10.784 0-19.526 8.742-19.526 19.526 0 10.783 8.742 19.525 19.526 19.525Z" fill="#C8C3B0"/>
    <path d="M31.958 42.847c9.585 0 17.355-7.77 17.355-17.355 0-9.586-7.77-17.356-17.355-17.356-9.586 0-17.356 7.77-17.356 17.356 0 9.585 7.77 17.355 17.356 17.355Z" fill="#E3DFCF"/>
    <path d="M42.924 35.925c-5.93 5.93-15.546 5.93-21.476 0s-5.93-15.546 0-21.477c5.93-5.93 15.545-5.93 21.476 0a15.186 15.186 0 0 1 0 21.477Z" fill="#52B7AB"/>
    <path d="M37.555 18.423c-1.254-1.32-2.86-2.046-4.523-2.046-2.724 0-5.082 1.913-6.192 4.678h7.566a1.188 1.188 0 0 1 0 2.376h-8.17a9.835 9.835 0 0 0 .02 2.525h8.15a1.188 1.188 0 0 1 0 2.376h-7.503c1.134 2.685 3.455 4.53 6.13 4.53 1.662 0 3.268-.727 4.522-2.046a1.188 1.188 0 0 1 1.723 1.637c-1.708 1.796-3.925 2.785-6.245 2.785-3.961 0-7.347-2.877-8.661-6.906h-3.184a1.188 1.188 0 0 1 0-2.376h2.675a12.217 12.217 0 0 1-.076-1.337c0-.402.021-.798.06-1.188h-2.659a1.188 1.188 0 0 1 0-2.376h3.137C25.603 16.947 29.023 14 33.032 14c2.32 0 4.538.99 6.245 2.785a1.188 1.188 0 0 1-1.722 1.638Z" fill="#0B7C68"/>
  </g>
  <defs>
    <clipPath id="a">
      <path fill="#fff" transform="translate(.5)" d="M0 0h64v64H0z"/>
    </clipPath>
  </defs>
</svg>
