<svg width="65" height="64" fill="none" xmlns="http://www.w3.org/2000/svg">
  <g clip-path="url(#a)">
    <path d="M22.59 32c-2.207 2.944-1.823 7.84-1.823 11.733A4.267 4.267 0 0 1 16.5 48h-2.133v3.2a4.267 4.267 0 0 1-4.267 4.267H7.967v4.266a3.2 3.2 0 0 1-6.4 0V26.667c0-8.128 7.466-12.683 15.221-15.21A17.067 17.067 0 0 0 22.591 32ZM63.433 26.667v33.066a3.2 3.2 0 1 1-6.4 0v-4.266H54.9a4.267 4.267 0 0 1-4.267-4.267V48H48.5a4.267 4.267 0 0 1-4.267-4.267c0-3.818.395-8.778-1.824-11.733a17.067 17.067 0 0 0 5.803-20.576c7.755 2.56 15.221 7.115 15.221 15.243Z" fill="#52B7AB"/>
    <path d="M32.5 35.2c9.426 0 17.067-7.641 17.067-17.067 0-9.425-7.641-17.066-17.067-17.066s-17.067 7.64-17.067 17.066c0 9.426 7.641 17.067 17.067 17.067Z" fill="#FF9477"/>
    <path d="M37.555 11.423c-1.254-1.32-2.86-2.046-4.523-2.046-2.724 0-5.082 1.913-6.192 4.678h7.566a1.188 1.188 0 0 1 0 2.376h-8.17a9.835 9.835 0 0 0 .02 2.525h8.15a1.188 1.188 0 0 1 0 2.376h-7.503c1.134 2.685 3.455 4.53 6.13 4.53 1.662 0 3.268-.727 4.522-2.046a1.188 1.188 0 0 1 1.723 1.637c-1.708 1.796-3.925 2.785-6.245 2.785-3.961 0-7.347-2.877-8.661-6.906h-3.184a1.188 1.188 0 0 1 0-2.376h2.675a12.217 12.217 0 0 1-.076-1.337c0-.402.021-.798.06-1.188h-2.659a1.188 1.188 0 0 1 0-2.376h3.137C25.603 9.947 29.023 7 33.032 7c2.32 0 4.538.99 6.245 2.785a1.188 1.188 0 0 1-1.722 1.638Z" fill="#FB6B47"/>
    <path d="M22.59 32a7.934 7.934 0 0 0-1.237 2.603A19.893 19.893 0 0 1 13.3 12.8a41.337 41.337 0 0 1 3.456-1.29A17.067 17.067 0 0 0 22.591 32ZM43.647 34.635A7.933 7.933 0 0 0 42.409 32a17.067 17.067 0 0 0 5.803-20.576c1.237.405 2.39.832 3.456 1.29a19.883 19.883 0 0 1-8.021 21.92ZM10.1 35.2v20.267H7.967V35.2a1.067 1.067 0 0 1 2.133 0Z" fill="#0B7C68"/>
    <path d="M16.5 29.867V48h-2.133V29.867a1.067 1.067 0 0 1 2.133 0Z" fill="#0B7C68"/>
    <path d="M32.5 64c-.59 0-1.067-.478-1.067-1.067V51.2a1.067 1.067 0 0 1 2.134 0v11.733c0 .59-.478 1.067-1.067 1.067ZM37.833 58.667c-.589 0-1.066-.478-1.066-1.067V42.667a1.067 1.067 0 1 1 2.133 0V57.6c0 .59-.478 1.067-1.067 1.067ZM27.167 58.667c-.59 0-1.067-.478-1.067-1.067V48a1.067 1.067 0 1 1 2.133 0v9.6c0 .59-.477 1.067-1.066 1.067Z" fill="#E3DFCF"/>
    <path d="M57.033 35.2v20.267H54.9V35.2a1.067 1.067 0 0 1 2.133 0ZM50.633 29.867V48H48.5V29.867a1.067 1.067 0 0 1 2.133 0Z" fill="#0B7C68"/>
    <path d="M32.5 36.267c-10.015 0-18.133-8.119-18.133-18.134C14.367 8.12 22.485 0 32.5 0c10.015 0 18.133 8.119 18.133 18.133A18.133 18.133 0 0 1 32.5 36.267Zm0-34.134c-8.837 0-16 7.164-16 16 0 8.837 7.163 16 16 16s16-7.163 16-16a16 16 0 0 0-16-16Z" fill="#FB6B47"/>
  </g>
  <defs>
    <clipPath id="a">
      <path fill="#fff" transform="translate(.5)" d="M0 0h64v64H0z"/>
    </clipPath>
  </defs>
</svg>
