<svg width="214" height="214" fill="none" xmlns="http://www.w3.org/2000/svg">
  <g filter="url(#a)">
    <path d="m88.643.321 123 123v86.643L2 .321h86.643Z" fill="#FB6B47"/>
  </g>
  <path d="M90.491 47.509c.594-.594.93-1.168 1.01-1.723.106-.554-.112-1.102-.653-1.643-.528-.528-1.129-.799-1.802-.812-.673-.013-1.3.27-1.88.852l-5.545 5.543-2.573-2.574 9.107-9.107 2.574 2.574-1.386 1.386c1.623-.489 3.075-.093 4.356 1.188 1.082 1.082 1.577 2.197 1.485 3.346-.08 1.135-.667 2.25-1.762 3.346l-5.821 5.82-2.653-2.652 5.543-5.544Zm3.576 5.555c.95-.95 2-1.564 3.148-1.842a6.575 6.575 0 0 1 3.464.14c1.162.369 2.224 1.035 3.188 1.999.964.963 1.63 2.026 2 3.187a6.335 6.335 0 0 1 .138 3.465c-.264 1.162-.871 2.218-1.821 3.168-.937.937-1.993 1.544-3.168 1.822a6.328 6.328 0 0 1-3.465-.139c-1.161-.37-2.224-1.036-3.188-2-.963-.963-1.63-2.026-2-3.187a6.577 6.577 0 0 1-.138-3.465c.29-1.162.904-2.211 1.842-3.148Zm2.633 2.633c-.766.766-1.155 1.617-1.168 2.554 0 .95.336 1.762 1.01 2.435.672.674 1.478 1.004 2.415.99.95 0 1.808-.382 2.574-1.148.778-.779 1.161-1.637 1.148-2.574.013-.937-.317-1.742-.99-2.415a3.319 3.319 0 0 0-2.435-1.01c-.924 0-1.776.39-2.554 1.168Zm16.278 14.298c.594-.594.93-1.168 1.01-1.722.105-.554-.113-1.102-.654-1.644-.528-.528-1.128-.798-1.801-.811-.674-.013-1.301.27-1.881.851l-5.544 5.544-2.574-2.574 9.108-9.108 2.573 2.574-1.385 1.386c1.623-.488 3.075-.092 4.355 1.188 1.083 1.082 1.578 2.198 1.485 3.346-.079 1.135-.666 2.25-1.762 3.346l-5.821 5.821-2.653-2.653 5.544-5.544Zm2.031 5.99 2.257-2.256 4.138 4.138-2.257 2.257-4.138-4.138Zm.094 15.935-2.574-2.574 13.464-13.464 2.574 2.574-1.485 1.485c.884-.224 1.735-.23 2.554-.02.844.212 1.61.66 2.296 1.347a6.08 6.08 0 0 1 1.584 2.692c.304 1.043.297 2.132-.02 3.267-.29 1.135-.956 2.224-1.999 3.267-1.043 1.043-2.139 1.716-3.287 2.02-1.122.303-2.204.303-3.247 0a6.095 6.095 0 0 1-2.693-1.584c-.686-.687-1.141-1.446-1.366-2.277-.198-.832-.184-1.69.04-2.574l-5.841 5.84Zm13.701-4.119c.818-.818 1.201-1.69 1.148-2.613-.039-.91-.396-1.703-1.069-2.376a3.131 3.131 0 0 0-1.386-.792c-.541-.171-1.122-.185-1.742-.04-.607.132-1.188.476-1.742 1.03-.555.554-.904 1.142-1.05 1.762a3.53 3.53 0 0 0 .04 1.742c.172.542.442.997.812 1.367.673.673 1.465 1.03 2.376 1.069.937.04 1.808-.343 2.613-1.149Zm11.653 7.931a2.683 2.683 0 0 0-.178-.89c-.079-.265-.251-.529-.515-.793-.488-.488-1.043-.673-1.663-.554-.62.119-1.261.508-1.921 1.168l-4.811 4.811-2.534-2.534 9.108-9.108 2.534 2.535-1.129 1.128a4.658 4.658 0 0 1 1.96.02c.621.145 1.136.422 1.545.832.33.33.587.706.772 1.128.185.422.244.838.178 1.247l-3.346 1.01Zm-.257 3.465c.95-.95 1.999-1.564 3.148-1.841a6.578 6.578 0 0 1 3.465.138c1.161.37 2.224 1.036 3.187 2 .964.964 1.63 2.026 2 3.188a6.322 6.322 0 0 1 .138 3.464c-.264 1.162-.871 2.218-1.821 3.168-.937.937-1.993 1.545-3.168 1.822a6.327 6.327 0 0 1-3.465-.139c-1.161-.369-2.224-1.036-3.187-1.999-.964-.964-1.63-2.027-2-3.188a6.58 6.58 0 0 1-.139-3.465c.291-1.161.905-2.211 1.842-3.148Zm2.633 2.633c-.766.766-1.155 1.617-1.168 2.554 0 .951.336 1.762 1.01 2.436.673.673 1.478 1.003 2.415.99.95 0 1.808-.383 2.574-1.149.779-.779 1.161-1.636 1.148-2.574.013-.937-.317-1.742-.99-2.415a3.32 3.32 0 0 0-2.435-1.01c-.924 0-1.775.39-2.554 1.168Zm13.15 4.043 1.069 1.069 3.366-3.366c1.043-1.043 2.112-1.571 3.207-1.584 1.122-.013 2.205.502 3.247 1.544.594.594.97 1.182 1.129 1.762.171.594.251 1.083.237 1.466l-3.029.811c.066-.33.053-.607-.039-.831a1.877 1.877 0 0 0-.416-.614 1.15 1.15 0 0 0-1.05-.337c-.409.066-.871.357-1.385.872l-2.772 2.771 2.178 2.178-2.178 2.178-2.178-2.178-6.93 6.93-2.495-2.495 6.93-6.929-1.069-1.069 2.178-2.178Zm10.655 3.606c.422-.422.917-.626 1.485-.613.581.026 1.089.257 1.525.693.435.435.66.937.673 1.504.026.581-.172 1.083-.594 1.505a1.981 1.981 0 0 1-1.505.594c-.568-.013-1.069-.237-1.505-.673-.435-.436-.666-.944-.693-1.525 0-.58.205-1.075.614-1.485Zm-3.247 3.802 2.495 2.495-9.108 9.107-2.494-2.495 9.107-9.107Zm4.049 4.048 1.564 1.565 3.168-3.168 2.494 2.494-3.168 3.168 1.584 1.584-2.178 2.178-1.583-1.584-6.93 6.93-2.495-2.495 6.93-6.93-1.564-1.564 2.178-2.178Z" fill="#FFC7B8"/>
  <defs>
    <filter id="a" x="0" y=".321" width="213.643" height="213.643" filterUnits="userSpaceOnUse" color-interpolation-filters="sRGB">
      <feFlood flood-opacity="0" result="BackgroundImageFix"/>
      <feColorMatrix in="SourceAlpha" values="0 0 0 0 0 0 0 0 0 0 0 0 0 0 0 0 0 0 127 0" result="hardAlpha"/>
      <feOffset dy="2"/>
      <feGaussianBlur stdDeviation="1"/>
      <feComposite in2="hardAlpha" operator="out"/>
      <feColorMatrix values="0 0 0 0 0 0 0 0 0 0 0 0 0 0 0 0 0 0 0.1 0"/>
      <feBlend in2="BackgroundImageFix" result="effect1_dropShadow"/>
      <feBlend in="SourceGraphic" in2="effect1_dropShadow" result="shape"/>
    </filter>
  </defs>
</svg>
