<svg width="124" height="124" fill="none" xmlns="http://www.w3.org/2000/svg">
  <g clip-path="url(#a)">
    <path fill-rule="evenodd" clip-rule="evenodd" d="M57.839 97.855c-11.67 10.211-28.804 11.126-41.495 2.217-12.69-8.909-17.65-25.336-12.01-39.78C9.972 45.85 24.751 37.13 40.12 39.176c1.36.174 2.708.433 4.036.777-.021.336-.021.694-.021 1.03L60.76 73.391l-2.921 24.464Z" fill="#FB6B47"/>
    <path fill-rule="evenodd" clip-rule="evenodd" d="M46.952 55.716a14.514 14.514 0 0 0-11.223 5.654 14.586 14.586 0 0 0-11.56-5.675c-6.851 0-11.559 5.822-11.559 12.61 0 7.86 6.431 17.15 23.119 25.22 14.396-6.956 21.164-14.838 22.74-21.92L46.952 55.716Z" fill="#fff"/>
    <path d="M70.386 61.874h-.021M60.298 61.937h-.022" stroke="#000" stroke-width="17.356" stroke-linecap="round" stroke-linejoin="round"/>
    <path fill-rule="evenodd" clip-rule="evenodd" d="M114.921 66.33c11.277 12.01 12.191 30.424 2.158 43.493-10.032 13.069-28.056 16.944-42.574 9.154l-19.861 3.972 8.89-13.325a33.831 33.831 0 0 1-5.695-11.769 33.699 33.699 0 0 1 2.92-24.464l54.162-7.062Z" fill="#52B7AB"/>
    <path fill-rule="evenodd" clip-rule="evenodd" d="M124 40.983c0 22.054-17.878 39.932-39.932 39.932-22.054 0-39.932-17.878-39.932-39.932 0-.336 0-.694.02-1.03.694-21.747 18.67-38.937 40.428-38.656 21.756.28 39.284 17.928 39.416 39.686Z" fill="#E3DFCF"/>
    <path fill-rule="evenodd" clip-rule="evenodd" d="M90.373 108.237H73.559a2.102 2.102 0 1 1 0-4.203h16.814a2.102 2.102 0 0 1 0 4.203ZM107.186 99.83H73.559a2.102 2.102 0 1 1 0-4.203h33.627a2.102 2.102 0 1 1 0 4.204ZM107.186 91.424H73.559a2.102 2.102 0 1 1 0-4.204h33.627a2.102 2.102 0 1 1 0 4.204ZM113.491 40.983a4.235 4.235 0 0 1-4.203 4.204h-2.102a4.216 4.216 0 0 1 4.204 4.203 4.235 4.235 0 0 1-4.204 4.203h-2.101a4.216 4.216 0 0 1 4.203 4.204A4.235 4.235 0 0 1 105.085 62h-25.22a6.305 6.305 0 0 1-6.306-6.305V36.78a11.396 11.396 0 0 0 5.696-6.558 53.355 53.355 0 0 0 2.711-16.75 2.705 2.705 0 0 1 2.207-2.67c3.278-.609 5.36 1.682 6.62 4.141a16.046 16.046 0 0 1 1.681 7.398v6.032h16.814a4.215 4.215 0 0 1 4.203 4.203 4.235 4.235 0 0 1-4.203 4.204 4.215 4.215 0 0 1 4.203 4.203Z" fill="#fff"/>
    <path d="M69.356 34.678h-8.407a4.203 4.203 0 0 0-4.203 4.203v18.916A4.203 4.203 0 0 0 60.949 62h8.407a4.203 4.203 0 0 0 4.203-4.203V38.88a4.203 4.203 0 0 0-4.203-4.203Z" fill="#52B7AB"/>
    <path fill-rule="evenodd" clip-rule="evenodd" d="M111.39 49.39a4.235 4.235 0 0 1-4.204 4.203h-4.203a2.102 2.102 0 1 1 0-4.203h8.407ZM113.491 40.983a4.235 4.235 0 0 1-4.203 4.204h-6.305a2.102 2.102 0 1 1 0-4.204h10.508ZM113.491 32.576a4.235 4.235 0 0 1-4.203 4.204h-6.305a2.102 2.102 0 1 1 0-4.204h10.508Z" fill="#F6F6F6"/>
  </g>
  <defs>
    <clipPath id="a">
      <path fill="#fff" d="M0 0h124v124H0z"/>
    </clipPath>
  </defs>
</svg>
