<svg width="65" height="64" fill="none" xmlns="http://www.w3.org/2000/svg">
  <g clip-path="url(#a)">
    <path d="M42.827.553a.582.582 0 0 1-.337.51 6.508 6.508 0 0 0-2.94 5.445c0 32.407.259 20.129-1.29 53.76a6.499 6.499 0 0 1-11.652-2.916 1.093 1.093 0 0 0-1.072-.945H13.604V6.508A6.508 6.508 0 0 1 20.112 0h22.162a.555.555 0 0 1 .553.553Z" fill="#E3DFCF"/>
    <path d="M33.042 62.915H7.095a6.517 6.517 0 0 1-6.388-5.258 1.075 1.075 0 0 1 1.075-1.25h23.756a1.085 1.085 0 0 1 1.072.945 6.508 6.508 0 0 0 6.432 5.563Z" fill="#C8C3B0"/>
    <path d="M23.366 15.186H3.841a2.17 2.17 0 0 0-2.17 2.17v32.542a2.17 2.17 0 0 0 2.17 2.17h19.526a2.17 2.17 0 0 0 2.169-2.17V17.356a2.17 2.17 0 0 0-2.17-2.17Z" fill="#0B7C68"/>
    <path d="M20.199 15.186H7.009a2.17 2.17 0 0 0-2.17 2.17v32.542a2.17 2.17 0 0 0 2.17 2.17h13.19a2.17 2.17 0 0 0 2.17-2.17V17.356a2.17 2.17 0 0 0-2.17-2.17Z" fill="#52B7AB"/>
    <path d="M20.112 19.525H7.095c-.599 0-1.084.486-1.084 1.085v2.17c0 .599.485 1.084 1.084 1.084h13.017c.6 0 1.085-.485 1.085-1.084v-2.17c0-.599-.486-1.085-1.085-1.085Z" fill="#BEE9D2"/>
    <path d="M9.265 32.542a2.17 2.17 0 1 0 0-4.339 2.17 2.17 0 0 0 0 4.34ZM9.265 40.136a2.17 2.17 0 1 0 0-4.34 2.17 2.17 0 0 0 0 4.34ZM9.265 47.729a2.17 2.17 0 1 0 0-4.34 2.17 2.17 0 0 0 0 4.34ZM17.943 32.542a2.17 2.17 0 1 0 0-4.339 2.17 2.17 0 0 0 0 4.34ZM17.943 40.136a2.17 2.17 0 1 0 0-4.34 2.17 2.17 0 0 0 0 4.34ZM17.943 47.729a2.17 2.17 0 1 0 0-4.34 2.17 2.17 0 0 0 0 4.34ZM55.171 15.121 38.336 7.625H27.619a1.107 1.107 0 0 0-.807 1.835l7.098 8.037 16.835 7.528 4.426-9.904Z" fill="#FF9477"/>
    <path d="M62.981 20.35a5.482 5.482 0 0 0-2.863-3.016l-4.947-2.213-4.426 9.904 4.947 2.213a5.434 5.434 0 0 0 7.29-6.888Z" fill="#FF9477"/>
    <path d="m33.924 17.511 2.215-4.957 16.837 7.524-2.215 4.957-16.837-7.524Z" fill="#FF6135"/>
    <path d="m50.746 25.023 4.426-9.903 3.958 1.769-4.426 9.903-3.958-1.769Z" fill="#C8C3B0"/>
    <path d="m33.563 7.625-2.81 6.291-3.938-4.456a1.108 1.108 0 0 1 .804-1.835h5.944Z" fill="#171717"/>
    <path d="m38.336 7.625-4.426 9.872-3.156-3.58 2.809-6.292h4.773Z" fill="#fff"/>
    <path d="M62.862 24.504a5.424 5.424 0 0 1-7.17 2.734l-.987-.445 4.425-9.904.988.445a5.424 5.424 0 0 1 2.744 7.17Z" fill="#FB6B47"/>
    <path d="M47.144 62.915c8.986 0 16.271-7.285 16.271-16.27 0-8.987-7.285-16.272-16.271-16.272s-16.271 7.285-16.271 16.271 7.285 16.271 16.271 16.271Z" fill="#FF9477"/>
    <path d="M47.144 64c-9.585 0-17.356-7.77-17.356-17.356 0-9.585 7.77-17.356 17.356-17.356 9.585 0 17.356 7.77 17.356 17.356-.011 9.58-7.775 17.345-17.356 17.356Zm0-32.542c-8.387 0-15.186 6.799-15.186 15.186s6.799 15.187 15.186 15.187 15.186-6.8 15.186-15.187c-.008-8.383-6.802-15.177-15.186-15.186Z" fill="#FF6135"/>
    <path d="M52.555 40.423c-1.254-1.32-2.86-2.046-4.523-2.046-2.724 0-5.082 1.913-6.192 4.678h7.566a1.188 1.188 0 0 1 0 2.376h-8.17a9.835 9.835 0 0 0 .02 2.525h8.15a1.188 1.188 0 0 1 0 2.376h-7.503c1.134 2.685 3.455 4.53 6.13 4.53 1.662 0 3.268-.727 4.522-2.046a1.188 1.188 0 0 1 1.723 1.637c-1.708 1.796-3.925 2.785-6.245 2.785-3.961 0-7.347-2.877-8.661-6.906h-3.184a1.188 1.188 0 0 1 0-2.376h2.675a12.217 12.217 0 0 1-.076-1.337c0-.402.021-.798.06-1.188h-2.659a1.188 1.188 0 0 1 0-2.376h3.137C40.603 38.947 44.023 36 48.032 36c2.32 0 4.538.99 6.245 2.785a1.188 1.188 0 0 1-1.722 1.638Z" fill="#FB6B47"/>
  </g>
  <defs>
    <clipPath id="a">
      <path fill="#fff" transform="translate(.5)" d="M0 0h64v64H0z"/>
    </clipPath>
  </defs>
</svg>
