<svg width="124" height="124" fill="none" xmlns="http://www.w3.org/2000/svg">
  <g clip-path="url(#a)">
    <path d="M60.95 121.898a52.178 52.178 0 0 1-29.004-8.757 2.103 2.103 0 0 1 2.312-3.502 48.224 48.224 0 0 0 49.535 2.299 2.103 2.103 0 0 1 2.002 3.697 52.367 52.367 0 0 1-24.846 6.263ZM111.325 68.788a2.101 2.101 0 0 1-2.102-1.992 48.362 48.362 0 0 0-22.488-38.305 2.102 2.102 0 1 1 2.24-3.556 52.58 52.58 0 0 1 24.451 41.642 2.099 2.099 0 0 1-1.99 2.21l-.111.001ZM10.553 69.356h-.09a2.102 2.102 0 0 1-2.012-2.188 52.595 52.595 0 0 1 24.474-42.244 2.102 2.102 0 1 1 2.245 3.556 48.387 48.387 0 0 0-22.52 38.881 2.102 2.102 0 0 1-2.097 1.995Z" fill="#FB6B47"/>
    <path d="M121.898 88.271c0 15.09-12.232 27.322-27.322 27.322-15.079-.025-27.296-12.243-27.322-27.322a27.31 27.31 0 0 1 51.156-13.325 27.021 27.021 0 0 1 3.488 13.325Z" fill="#F6F6F6"/>
    <path d="M121.898 88.271c0 15.09-12.232 27.322-27.322 27.322a27.012 27.012 0 0 1-13.325-3.489 27.023 27.023 0 0 1-3.488-13.324c0-15.09 12.232-27.322 27.322-27.322a27.03 27.03 0 0 1 13.325 3.488 27.022 27.022 0 0 1 3.488 13.325Z" fill="#F6F6F6"/>
    <path d="M88.271 31.525c0 15.09-12.232 27.322-27.322 27.322-15.079-.025-27.296-12.243-27.322-27.322a27.31 27.31 0 0 1 51.155-13.324 27.026 27.026 0 0 1 3.49 13.324Z" fill="#BEE9D2"/>
    <path d="M88.271 31.525c0 15.09-12.232 27.322-27.322 27.322a27.027 27.027 0 0 1-13.325-3.488 27.026 27.026 0 0 1-3.488-13.325c0-15.09 12.232-27.322 27.322-27.322A27.026 27.026 0 0 1 84.782 18.2a27.027 27.027 0 0 1 3.49 13.324Z" fill="#BEE9D2"/>
    <path d="M60.95 60.95c-16.251 0-29.425-13.174-29.425-29.425 0-16.25 13.174-29.423 29.424-29.423s29.424 13.173 29.424 29.423c-.017 16.244-13.18 29.407-29.424 29.424Zm0-54.645c-13.93 0-25.221 11.292-25.221 25.22 0 13.93 11.291 25.22 25.22 25.22 13.929 0 25.22-11.29 25.22-25.22-.014-13.922-11.297-25.205-25.22-25.22Z" fill="#52B7AB"/>
    <path d="M4.203 67.254h42.034a4.203 4.203 0 0 1 4.204 4.204V86.17H0V71.457a4.203 4.203 0 0 1 4.203-4.204Z" fill="#FB6B47"/>
    <path d="M50.44 79.864v27.322a4.216 4.216 0 0 1-4.203 4.204H4.203A4.216 4.216 0 0 1 0 107.186V79.864h50.44Z" fill="#F6F6F6"/>
    <path d="M94.576 67.254a2.102 2.102 0 0 1-2.101-2.101v-4.204a2.102 2.102 0 1 1 4.203 0v4.204c0 1.16-.941 2.101-2.102 2.101ZM94.576 117.695a2.102 2.102 0 0 1-2.101-2.102v-4.203a2.102 2.102 0 1 1 4.203 0v4.203a2.102 2.102 0 0 1-2.102 2.102ZM121.898 90.373h-4.203a2.102 2.102 0 1 1 0-4.204h4.203a2.102 2.102 0 1 1 0 4.204ZM71.458 90.373h-4.204a2.102 2.102 0 0 1 0-4.204h4.204a2.102 2.102 0 0 1 0 4.204ZM70.915 104.034a2.102 2.102 0 0 1-1.05-3.922l3.642-2.102a2.102 2.102 0 1 1 2.102 3.641l-3.643 2.101c-.319.186-.681.283-1.05.282ZM114.599 78.814a2.102 2.102 0 0 1-1.051-3.922l3.643-2.102a2.1 2.1 0 0 1 2.101 3.64l-3.642 2.102a2.085 2.085 0 0 1-1.051.282ZM83.017 70.352c-.752 0-1.446-.4-1.822-1.05l-2.102-3.64a2.102 2.102 0 1 1 3.64-2.103l2.102 3.64a2.102 2.102 0 0 1-1.818 3.153ZM108.237 114.034a2.102 2.102 0 0 1-1.822-1.051l-2.102-3.64a2.102 2.102 0 0 1 3.641-2.102l2.101 3.64a2.1 2.1 0 0 1-1.818 3.153ZM80.915 114.034a2.103 2.103 0 0 1-1.818-3.153l2.102-3.64a2.102 2.102 0 1 1 3.64 2.102l-2.102 3.64a2.101 2.101 0 0 1-1.822 1.051ZM106.136 70.352a2.102 2.102 0 0 1-1.818-3.152l2.101-3.64a2.103 2.103 0 1 1 3.641 2.101l-2.102 3.64a2.103 2.103 0 0 1-1.822 1.051ZM74.553 78.814c-.368 0-.731-.097-1.05-.282L69.86 76.43a2.102 2.102 0 0 1 2.102-3.64l3.642 2.102a2.102 2.102 0 0 1-1.05 3.922ZM118.237 104.034a2.078 2.078 0 0 1-1.051-.282l-3.642-2.101a2.102 2.102 0 0 1 2.102-3.64l3.642 2.101a2.102 2.102 0 0 1-1.051 3.922ZM100.881 100.881a2.1 2.1 0 0 1-1.803-1.019l-6.305-10.508a2.103 2.103 0 0 1-.298-1.083V73.56a2.102 2.102 0 0 1 4.203 0v14.13l6.005 10.008a2.102 2.102 0 0 1-1.802 3.184ZM50.44 92.475v4.203H35.73v14.712h-4.204V96.678h-12.61v14.712h-4.203V96.678H0v-4.203h14.712v-12.61h4.203v12.61h12.61v-12.61h4.204v12.61H50.44Z" fill="#E3DFCF"/>
    <path d="M94.576 117.695c-16.25 0-29.423-13.174-29.423-29.424s13.173-29.424 29.423-29.424c16.251 0 29.424 13.174 29.424 29.424-.017 16.243-13.181 29.407-29.424 29.424Zm0-54.644c-13.928 0-25.22 11.291-25.22 25.22 0 13.929 11.291 25.221 25.22 25.221 13.929 0 25.221-11.292 25.221-25.22-.015-13.923-11.298-25.206-25.22-25.221Z" fill="#E3DFCF"/>
    <path d="M70.446 20.67c-2.176-2.288-4.961-3.548-7.844-3.548-4.724 0-8.815 3.317-10.74 8.113h13.123a2.06 2.06 0 0 1 0 4.122h-14.17a17.046 17.046 0 0 0 .034 4.379h14.136a2.06 2.06 0 0 1 0 4.12H51.97c1.967 4.656 5.992 7.856 10.631 7.856 2.883 0 5.668-1.26 7.844-3.549a2.06 2.06 0 0 1 2.987 2.84c-2.96 3.115-6.807 4.83-10.83 4.83-6.87 0-12.742-4.99-15.02-11.977H42.06a2.06 2.06 0 0 1 0-4.121h4.638a21.21 21.21 0 0 1-.13-2.318c0-.698.036-1.384.102-2.061h-4.61a2.06 2.06 0 0 1 0-4.121h5.44C49.717 18.112 55.649 13 62.602 13c4.024 0 7.87 1.716 10.83 4.83a2.06 2.06 0 0 1-2.986 2.84Z" fill="#52B7AB"/>
  </g>
  <defs>
    <clipPath id="a">
      <path fill="#fff" d="M0 0h124v124H0z"/>
    </clipPath>
  </defs>
</svg>
