<svg width="29" height="29" fill="none" xmlns="http://www.w3.org/2000/svg"><circle cx="14.5" cy="14.5" r="14.5" fill="#52B7AB"/><path d="M23 8.007c-.74.49-1.56.864-2.426 1.109a3.505 3.505 0 0 0-1.772-1.019 3.68 3.68 0 0 0-2.075.116 3.434 3.434 0 0 0-1.63 1.21 3.103 3.103 0 0 0-.597 1.866v.725a8.695 8.695 0 0 1-3.917-.822 8.11 8.11 0 0 1-3.038-2.46s-3.09 6.52 3.864 9.418A9.437 9.437 0 0 1 6 19.6c6.954 3.622 15.454 0 15.454-8.333 0-.201-.02-.403-.061-.6A5.516 5.516 0 0 0 23 8.006Z" fill="#fff"/></svg>