<svg width="29" height="29" viewBox="0 0 29 29" fill="none" xmlns="http://www.w3.org/2000/svg">
<circle cx="14.5" cy="14.5" r="14.5" fill="#52B7AB"/>
<path d="M23 8.00729C22.26 8.49666 21.4407 8.87096 20.5736 9.11575C20.1083 8.61405 19.4898 8.25846 18.8018 8.09707C18.1138 7.93568 17.3896 7.97627 16.7271 8.21337C16.0645 8.45046 15.4956 8.87262 15.0973 9.42273C14.699 9.97285 14.4905 10.6244 14.5 11.2892V12.0137C13.142 12.0467 11.7964 11.7643 10.5831 11.1917C9.36967 10.6191 8.32615 9.77405 7.54545 8.73177C7.54545 8.73177 4.45455 15.2522 11.4091 18.1501C9.81768 19.1629 7.92189 19.6708 6 19.5991C12.9545 23.2216 21.4545 19.5991 21.4545 11.2675C21.4538 11.0657 21.4331 10.8644 21.3927 10.6662C22.1814 9.93696 22.7379 9.01629 23 8.00729V8.00729Z" fill="white"/>
</svg>
