<svg width="65" height="64" fill="none" xmlns="http://www.w3.org/2000/svg">
  <g clip-path="url(#a)" fill-rule="evenodd" clip-rule="evenodd">
    <path d="M54.569 33.104c.61 0 1.103.494 1.103 1.103v28.69c0 .61-.494 1.103-1.103 1.103H8.224a3.31 3.31 0 0 1-3.31-3.31V29.793l49.655 3.31Z" fill="#52B7AB"/>
    <path d="M11.534 26.483v6.62h-3.31a3.31 3.31 0 0 1 0-6.62h3.31Z" fill="#0B7C68"/>
    <path d="M51.259 12.138v20.965H11.535V12.138A2.213 2.213 0 0 1 13.74 9.93h35.31a2.214 2.214 0 0 1 2.208 2.207Z" fill="#FF9477"/>
    <path d="M38.017 0c1.22 0 2.207.988 2.207 2.207V9.93H35.81V2.207C35.81.988 36.798 0 38.017 0Z" fill="#C8C3B0"/>
    <path d="M25.581 20.965a2.207 2.207 0 0 1-1.909 1.104h-5.517a2.214 2.214 0 0 1-2.207-2.207v-3.31a2.214 2.214 0 0 1 2.207-2.207h4.414l3.012 6.62Z" fill="#FB6B47"/>
    <path d="M19.259 29.793h-2.207a1.103 1.103 0 1 1 0-2.207h2.207a1.103 1.103 0 1 1 0 2.207ZM25.88 29.793h-2.208a1.103 1.103 0 1 1 0-2.207h2.207a1.103 1.103 0 1 1 0 2.207ZM32.5 29.793h-2.207a1.103 1.103 0 0 1 0-2.207H32.5a1.103 1.103 0 1 1 0 2.207ZM39.12 29.793h-2.206a1.103 1.103 0 1 1 0-2.207h2.207a1.103 1.103 0 1 1 0 2.207ZM45.741 29.793h-2.206a1.103 1.103 0 0 1 0-2.207h2.206a1.103 1.103 0 1 1 0 2.207Z" fill="#fff"/>
    <path d="M55.672 27.586v6.62c0-.609-.493-1.103-1.103-1.103h-3.31v-6.62h3.31c.61 0 1.103.494 1.103 1.103Z" fill="#0B7C68"/>
    <path d="M31.397 18.759c-.144 0-.287-.011-.43-.022a4.515 4.515 0 0 1-3.973-4.392 1.061 1.061 0 0 1-.011-.188V9.931h1.754a1.104 1.104 0 0 0 .773-1.887l-3.763-3.763a1.857 1.857 0 0 0-3.145.883 1.82 1.82 0 0 0-.033.353v8.828a8.84 8.84 0 0 0 8.828 8.827" fill="#C8C3B0"/>
    <path d="M31.397 26.483c-.61 0-1.104-.494-1.104-1.104v-8.827a1.103 1.103 0 1 1 2.207 0v8.827c0 .61-.494 1.104-1.103 1.104Z" fill="#FB6B47"/>
  </g>
  <defs>
    <clipPath id="a">
      <path fill="#fff" transform="translate(.5)" d="M0 0h64v64H0z"/>
    </clipPath>
  </defs>
</svg>
